solid 1
 facet normal        1        0        0
  outer loop
   vertex    0.325     -8.9    0.325
   vertex    0.325     -8.9   -0.325
   vertex    0.325      8.9   -0.325
  endloop
 endfacet
 facet normal        1        0       -0
  outer loop
   vertex    0.325      8.9   -0.325
   vertex    0.325      8.9    0.325
   vertex    0.325     -8.9    0.325
  endloop
 endfacet
 facet normal        0        0       -1
  outer loop
   vertex    0.325     -8.9   -0.325
   vertex   -0.325     -8.9   -0.325
   vertex   -0.325      8.9   -0.325
  endloop
 endfacet
 facet normal        0        0       -1
  outer loop
   vertex   -0.325      8.9   -0.325
   vertex    0.325      8.9   -0.325
   vertex    0.325     -8.9   -0.325
  endloop
 endfacet
 facet normal       -1        0        0
  outer loop
   vertex   -0.325     -8.9   -0.325
   vertex   -0.325     -8.9    0.325
   vertex   -0.325      8.9    0.325
  endloop
 endfacet
 facet normal       -1        0       -0
  outer loop
   vertex   -0.325      8.9    0.325
   vertex   -0.325      8.9   -0.325
   vertex   -0.325     -8.9   -0.325
  endloop
 endfacet
 facet normal        0        0        1
  outer loop
   vertex   -0.325     -8.9    0.325
   vertex    0.325     -8.9    0.325
   vertex    0.325      8.9    0.325
  endloop
 endfacet
 facet normal        0        0        1
  outer loop
   vertex    0.325      8.9    0.325
   vertex   -0.325      8.9    0.325
   vertex   -0.325     -8.9    0.325
  endloop
 endfacet
 facet normal        0        1        0
  outer loop
   vertex     -0.2      9.4     -0.2
   vertex     -0.2      9.4      0.2
   vertex      0.2      9.4      0.2
  endloop
 endfacet
 facet normal        0        1        0
  outer loop
   vertex      0.2      9.4      0.2
   vertex      0.2      9.4     -0.2
   vertex     -0.2      9.4     -0.2
  endloop
 endfacet
 facet normal -0.970143 0.242536        0
  outer loop
   vertex     -0.2      9.4     -0.2
   vertex   -0.325      8.9   -0.325
   vertex   -0.325      8.9    0.325
  endloop
 endfacet
 facet normal -0.970143 0.242536        0
  outer loop
   vertex   -0.325      8.9    0.325
   vertex     -0.2      9.4      0.2
   vertex     -0.2      9.4     -0.2
  endloop
 endfacet
 facet normal        0 0.242536 -0.970143
  outer loop
   vertex   -0.325      8.9   -0.325
   vertex     -0.2      9.4     -0.2
   vertex      0.2      9.4     -0.2
  endloop
 endfacet
 facet normal        0 0.242536 -0.970143
  outer loop
   vertex      0.2      9.4     -0.2
   vertex    0.325      8.9   -0.325
   vertex   -0.325      8.9   -0.325
  endloop
 endfacet
 facet normal        0 0.242536 0.970143
  outer loop
   vertex     -0.2      9.4      0.2
   vertex   -0.325      8.9    0.325
   vertex    0.325      8.9    0.325
  endloop
 endfacet
 facet normal        0 0.242536 0.970143
  outer loop
   vertex    0.325      8.9    0.325
   vertex      0.2      9.4      0.2
   vertex     -0.2      9.4      0.2
  endloop
 endfacet
 facet normal 0.970143 0.242536        0
  outer loop
   vertex    0.325      8.9   -0.325
   vertex      0.2      9.4     -0.2
   vertex      0.2      9.4      0.2
  endloop
 endfacet
 facet normal 0.970143 0.242536        0
  outer loop
   vertex      0.2      9.4      0.2
   vertex    0.325      8.9    0.325
   vertex    0.325      8.9   -0.325
  endloop
 endfacet
 facet normal        0       -1        0
  outer loop
   vertex      0.2     -9.4     -0.2
   vertex      0.2     -9.4      0.2
   vertex     -0.2     -9.4      0.2
  endloop
 endfacet
 facet normal        0       -1        0
  outer loop
   vertex     -0.2     -9.4      0.2
   vertex     -0.2     -9.4     -0.2
   vertex      0.2     -9.4     -0.2
  endloop
 endfacet
 facet normal -0.970143 -0.242536        0
  outer loop
   vertex     -0.2     -9.4      0.2
   vertex   -0.325     -8.9    0.325
   vertex   -0.325     -8.9   -0.325
  endloop
 endfacet
 facet normal -0.970143 -0.242536        0
  outer loop
   vertex   -0.325     -8.9   -0.325
   vertex     -0.2     -9.4     -0.2
   vertex     -0.2     -9.4      0.2
  endloop
 endfacet
 facet normal        0 -0.242536 -0.970143
  outer loop
   vertex    0.325     -8.9   -0.325
   vertex      0.2     -9.4     -0.2
   vertex     -0.2     -9.4     -0.2
  endloop
 endfacet
 facet normal        0 -0.242536 -0.970143
  outer loop
   vertex     -0.2     -9.4     -0.2
   vertex   -0.325     -8.9   -0.325
   vertex    0.325     -8.9   -0.325
  endloop
 endfacet
 facet normal        0 -0.242536 0.970143
  outer loop
   vertex      0.2     -9.4      0.2
   vertex    0.325     -8.9    0.325
   vertex   -0.325     -8.9    0.325
  endloop
 endfacet
 facet normal        0 -0.242536 0.970143
  outer loop
   vertex   -0.325     -8.9    0.325
   vertex     -0.2     -9.4      0.2
   vertex      0.2     -9.4      0.2
  endloop
 endfacet
 facet normal 0.970143 -0.242536        0
  outer loop
   vertex    0.325     -8.9    0.325
   vertex      0.2     -9.4      0.2
   vertex      0.2     -9.4     -0.2
  endloop
 endfacet
 facet normal 0.970143 -0.242536        0
  outer loop
   vertex      0.2     -9.4     -0.2
   vertex    0.325     -8.9   -0.325
   vertex    0.325     -8.9    0.325
  endloop
 endfacet
endsolid 1 written by HOOPS Exchange
solid 2
 facet normal        1        0        0
  outer loop
   vertex     1.25       -1     1.25
   vertex     1.25       -1    -1.25
   vertex     1.25        1    -1.25
  endloop
 endfacet
 facet normal        1        0       -0
  outer loop
   vertex     1.25        1    -1.25
   vertex     1.25        1     1.25
   vertex     1.25       -1     1.25
  endloop
 endfacet
 facet normal        0        0       -1
  outer loop
   vertex     1.25       -1    -1.25
   vertex    -1.25       -1    -1.25
   vertex    -1.25        1    -1.25
  endloop
 endfacet
 facet normal        0        0       -1
  outer loop
   vertex    -1.25        1    -1.25
   vertex     1.25        1    -1.25
   vertex     1.25       -1    -1.25
  endloop
 endfacet
 facet normal       -1        0        0
  outer loop
   vertex    -1.25       -1    -1.25
   vertex    -1.25       -1     1.25
   vertex    -1.25        1     1.25
  endloop
 endfacet
 facet normal       -1        0       -0
  outer loop
   vertex    -1.25        1     1.25
   vertex    -1.25        1    -1.25
   vertex    -1.25       -1    -1.25
  endloop
 endfacet
 facet normal        0        0        1
  outer loop
   vertex    -1.25       -1     1.25
   vertex     1.25       -1     1.25
   vertex     1.25        1     1.25
  endloop
 endfacet
 facet normal        0        0        1
  outer loop
   vertex     1.25        1     1.25
   vertex    -1.25        1     1.25
   vertex    -1.25       -1     1.25
  endloop
 endfacet
 facet normal        0        1        0
  outer loop
   vertex    0.325        1    0.325
   vertex   -0.325        1    0.325
   vertex    -1.25        1     1.25
  endloop
 endfacet
 facet normal        0        1        0
  outer loop
   vertex    -1.25        1    -1.25
   vertex    -1.25        1     1.25
   vertex   -0.325        1    0.325
  endloop
 endfacet
 facet normal        0        1        0
  outer loop
   vertex    0.325        1   -0.325
   vertex    0.325        1    0.325
   vertex     1.25        1     1.25
  endloop
 endfacet
 facet normal       -0        1        0
  outer loop
   vertex    -1.25        1     1.25
   vertex     1.25        1     1.25
   vertex    0.325        1    0.325
  endloop
 endfacet
 facet normal        0        1        0
  outer loop
   vertex     1.25        1    -1.25
   vertex    -1.25        1    -1.25
   vertex   -0.325        1   -0.325
  endloop
 endfacet
 facet normal        0        1        0
  outer loop
   vertex   -0.325        1    0.325
   vertex   -0.325        1   -0.325
   vertex    -1.25        1    -1.25
  endloop
 endfacet
 facet normal        0        1        0
  outer loop
   vertex     1.25        1     1.25
   vertex     1.25        1    -1.25
   vertex    0.325        1   -0.325
  endloop
 endfacet
 facet normal       -0        1        0
  outer loop
   vertex   -0.325        1   -0.325
   vertex    0.325        1   -0.325
   vertex     1.25        1    -1.25
  endloop
 endfacet
 facet normal        0       -1        0
  outer loop
   vertex    -1.25       -1     1.25
   vertex   -0.325       -1    0.325
   vertex    0.325       -1    0.325
  endloop
 endfacet
 facet normal       -0       -1        0
  outer loop
   vertex   -0.325       -1    0.325
   vertex    -1.25       -1     1.25
   vertex    -1.25       -1    -1.25
  endloop
 endfacet
 facet normal        0       -1        0
  outer loop
   vertex     1.25       -1     1.25
   vertex    0.325       -1    0.325
   vertex    0.325       -1   -0.325
  endloop
 endfacet
 facet normal        0       -1        0
  outer loop
   vertex    0.325       -1    0.325
   vertex     1.25       -1     1.25
   vertex    -1.25       -1     1.25
  endloop
 endfacet
 facet normal        0       -1       -0
  outer loop
   vertex   -0.325       -1   -0.325
   vertex    -1.25       -1    -1.25
   vertex     1.25       -1    -1.25
  endloop
 endfacet
 facet normal        0       -1        0
  outer loop
   vertex    -1.25       -1    -1.25
   vertex   -0.325       -1   -0.325
   vertex   -0.325       -1    0.325
  endloop
 endfacet
 facet normal        0       -1        0
  outer loop
   vertex    0.325       -1   -0.325
   vertex     1.25       -1    -1.25
   vertex     1.25       -1     1.25
  endloop
 endfacet
 facet normal        0       -1        0
  outer loop
   vertex     1.25       -1    -1.25
   vertex    0.325       -1   -0.325
   vertex   -0.325       -1   -0.325
  endloop
 endfacet
 facet normal        1        0        0
  outer loop
   vertex   -0.325       -1    0.325
   vertex   -0.325       -1   -0.325
   vertex   -0.325        1   -0.325
  endloop
 endfacet
 facet normal        1        0       -0
  outer loop
   vertex   -0.325        1   -0.325
   vertex   -0.325        1    0.325
   vertex   -0.325       -1    0.325
  endloop
 endfacet
 facet normal       -0        0        1
  outer loop
   vertex   -0.325        1   -0.325
   vertex    0.325       -1   -0.325
   vertex    0.325        1   -0.325
  endloop
 endfacet
 facet normal        0        0        1
  outer loop
   vertex    0.325       -1   -0.325
   vertex   -0.325        1   -0.325
   vertex   -0.325       -1   -0.325
  endloop
 endfacet
 facet normal       -1        0        0
  outer loop
   vertex    0.325       -1   -0.325
   vertex    0.325       -1    0.325
   vertex    0.325        1    0.325
  endloop
 endfacet
 facet normal       -1        0       -0
  outer loop
   vertex    0.325        1    0.325
   vertex    0.325        1   -0.325
   vertex    0.325       -1   -0.325
  endloop
 endfacet
 facet normal        0        0       -1
  outer loop
   vertex    0.325       -1    0.325
   vertex   -0.325       -1    0.325
   vertex   -0.325        1    0.325
  endloop
 endfacet
 facet normal        0        0       -1
  outer loop
   vertex   -0.325        1    0.325
   vertex    0.325        1    0.325
   vertex    0.325       -1    0.325
  endloop
 endfacet
endsolid 2 written by HOOPS Exchange
