**ABCDEFGHIJKLMNOPQRSTUVWXYZabcdefghijklmnopqrstuvwxyz**************************
**PARASOLID !"#$%&'()*+,-./:;<=>?@[\]^_`{|}~0123456789**************************
**PART1;
MC=unknown;
MC_MODEL=unknown;
MC_ID=unknown;
OS=unknown;
OS_RELEASE=unknown;
FRU=unknown;
APPL=File generated by HOOPS Exchange Version 10.0.12;
SITE=unknown;
USER=unknown;
FORMAT=text;
GUISE=transmit;
KEY=Jumper;
FILE=c:\tempstorage\9903419456352163\Jumper.SLDASM.x_t;
DATE=unknown;
**PART2;
SCH=SCH_1100000_11004;
USFLD_SIZE=0;
**PART3;
**END_OF_HEADER*****************************************************************
T51 : TRANSMIT FILE created by modeller version 110000017 SCH_1100000_110040 10
 1 834 834 831 0 0 0 0 0 1e3 1e-008 0 0 0 1 0 1 752 10 2 749 749 746 0 0 0 0 0 1
e3 1e-008 752 0 0 1 0 1 545 10 3 542 542 537 0 0 0 0 0 1e3 1e-008 545 0 0 1 0 1
 535 12 4 533 533 157 0 0 0 0 1e3 1e-008 535 0 0 1 0 1 1 80 196 529 152 78 75 60
 13 5 5 0 0 0 0 0 0 78 6 14 6 6 156 ?16 0 7 80 153 -0 0 16 0 5 15 7 7 0 81 6 0 1
6 8 8 0 2e-008 81 11 0 0 0 0 4 18 9 9 0 134 19 14 137 2e-008 4 18 10 10 0 133 12
 0 138 2e-008 4 16 11 11 0 ?88 13 8 488 0 0 4 18 12 12 0 116 14 10 139 2e-008 4
 16 13 13 0 2e-008 116 15 11 0 0 0 4 18 14 14 0 115 9 12 140 2e-008 4 16 15 15 0
 ?84 18 13 491 0 0 4 14 16 16 161 ?23 6 17 80 160 -0 0 23 6 5 15 17 17 0 85 16 0
 16 18 18 0 2e-008 85 20 15 0 0 0 4 18 19 19 0 125 21 9 141 2e-008 4 16 20 20 0
 ?92 22 18 494 0 0 4 18 21 21 0 108 26 19 142 2e-008 4 16 22 22 0 2e-008 108 25
 20 0 0 0 4 14 23 23 164 ?30 16 24 80 163 -0 0 30 16 5 15 24 24 0 89 23 0 16 25
 25 0 2e-008 89 27 22 0 0 0 4 18 26 26 0 130 28 21 143 2e-008 4 16 27 27 0 ?96 2
9 25 497 0 0 4 18 28 28 0 111 38 26 144 2e-008 4 16 29 29 0 2e-008 104 32 27 0 0
 0 4 14 30 30 167 ?34 23 31 80 166 -0 0 34 23 5 15 31 31 0 93 30 0 16 32 32 0 2e
-008 93 33 29 0 0 0 4 16 33 33 0 2e-008 112 36 32 0 0 0 4 14 34 34 170 ?44 30 35
 80 169 -0 0 44 30 5 15 35 35 0 97 34 0 16 36 36 0 2e-008 97 39 33 499 0 0 4 18
 37 37 0 114 59 42 145 2e-008 4 18 38 38 0 113 40 28 146 2e-008 4 16 39 39 0 2e-
008 98 41 36 500 0 0 4 18 40 40 0 105 42 38 147 2e-008 4 16 41 41 0 2e-008 99 43
 39 501 0 0 4 18 42 42 0 110 37 40 148 2e-008 4 16 43 43 0 2e-008 100 46 41 502
 0 0 4 14 44 44 173 ?48 34 45 80 172 -0 0 48 34 5 15 45 45 0 101 44 0 16 46 46 0
 ?101 47 43 504 0 0 4 16 47 47 0 ?105 50 46 507 0 0 4 14 48 48 176 ?51 44 49 80
 175 -0 0 51 44 5 15 49 49 0 105 48 0 16 50 50 0 ?113 53 47 510 0 0 4 14 51 51 1
79 ?54 48 52 80 178 -0 0 54 48 5 15 52 52 0 109 51 0 16 53 53 0 ?109 58 50 513 0
 0 4 14 54 54 182 ?56 51 55 80 181 -0 0 56 51 5 15 55 55 0 113 54 0 14 56 56 185
 ?66 54 57 80 184 -0 0 66 54 5 15 57 57 0 117 56 0 16 58 58 0 2e-008 136 61 53 5
15 0 0 4 18 59 59 0 135 62 37 149 2e-008 4 18 60 60 0 136 0 64 150 2e-008 4 16 6
1 61 0 2e-008 132 63 58 516 0 0 4 18 62 62 0 131 64 59 151 2e-008 4 16 63 63 0 2
e-008 124 65 61 517 0 0 4 18 64 64 0 128 60 62 152 2e-008 4 16 65 65 0 2e-008 12
8 68 63 518 0 0 4 14 66 66 188 ?70 56 67 80 187 -0 0 70 56 5 15 67 67 0 121 66 0
 16 68 68 0 ?131 69 65 520 0 0 4 16 69 69 0 ?123 72 68 523 0 0 4 14 70 70 191 ?7
3 66 71 80 190 -0 0 73 66 5 15 71 71 0 125 70 0 16 72 72 0 ?127 75 69 526 0 0 4
 14 73 73 194 ?76 70 74 80 193 -0 0 76 70 5 15 74 74 0 129 73 0 16 75 75 0 ?135
 0 72 529 0 0 4 14 76 76 197 ?0 73 77 80 196 -0 0 0 73 5 15 77 77 0 133 76 0 19
 78 78 0 4 79 0 5 V19 79 79 0 4 0 78 80 S13 80 80 0 4 0 6 0 0 79 0 17 81 0 7 82
 84 10 134 8 211 0 +17 82 0 7 83 81 12 88 11 0 0 -17 83 0 7 84 82 14 116 13 233
 0 -17 84 0 7 81 83 9 94 15 0 0 +17 85 0 17 86 88 19 126 18 247 0 +17 86 0 17 87
 85 21 92 20 0 0 -17 87 0 17 88 86 12 108 22 269 82 -17 88 0 17 85 87 10 82 11 0
 81 +17 89 0 24 90 92 26 122 25 283 0 +17 90 0 24 91 89 28 96 27 0 0 -17 91 0 24
 92 90 21 104 29 305 86 -17 92 0 24 89 91 19 86 20 0 85 +17 93 0 31 94 96 9 130
 32 319 84 +17 94 0 31 95 93 14 84 15 0 83 -17 95 0 31 96 94 28 112 33 341 90 -1
7 96 0 31 93 95 26 90 27 0 89 +17 97 0 35 98 100 38 114 36 355 0 +17 98 0 35 99
 97 40 106 39 373 0 +17 99 0 35 100 98 42 102 41 391 0 +17 100 0 35 97 99 37 110
 43 409 0 +17 101 0 45 102 104 42 111 46 0 99 +17 102 0 45 103 101 40 99 41 395
 98 -17 103 0 45 104 102 21 105 47 0 91 -17 104 0 45 101 103 28 91 29 301 95 +17
 105 0 49 106 108 40 103 47 0 102 +17 106 0 49 107 105 38 98 39 377 97 -17 107 0
 49 108 106 12 113 50 0 87 -17 108 0 49 105 107 21 87 22 265 103 +17 109 0 52 11
0 112 37 115 53 0 100 +17 110 0 52 111 109 42 100 43 413 101 -17 111 0 52 112 11
0 28 101 46 0 104 -17 112 0 52 109 111 14 95 33 337 94 +17 113 0 55 114 116 38 1
07 50 0 106 +17 114 0 55 115 113 37 97 36 359 109 -17 115 0 55 116 114 14 109 53
 0 112 -17 116 0 55 113 115 12 83 13 229 107 +17 117 0 57 118 120 59 136 58 431
 0 -17 118 0 57 119 117 62 132 61 449 0 -17 119 0 57 120 118 64 124 63 467 0 -17
 120 0 57 117 119 60 128 65 485 0 -17 121 0 67 122 124 26 131 68 0 96 -17 122 0
 67 123 121 19 89 25 287 92 -17 123 0 67 124 122 64 125 69 0 119 +17 124 0 67 12
1 123 62 119 63 463 118 +17 125 0 71 126 128 19 123 69 0 122 -17 126 0 71 127 12
5 10 85 18 251 88 -17 127 0 71 128 126 60 133 72 0 120 +17 128 0 71 125 127 64 1
20 65 481 123 +17 129 0 74 130 132 9 135 75 0 93 -17 130 0 74 131 129 26 93 32 3
23 121 -17 131 0 74 132 130 62 121 68 0 124 +17 132 0 74 129 131 59 118 61 445 1
17 +17 133 0 77 134 136 10 127 72 0 126 -17 134 0 77 135 133 9 81 8 215 129 -17
 135 0 77 136 134 59 129 75 0 132 +17 136 0 77 133 135 60 117 58 427 127 +29 137
 137 0 9 0 138 .000325 -.0089 .000325 29 138 138 0 10 137 139 .000325 -.0089 -.0
00325 29 139 139 0 12 138 140 .000325 .0089 -.000325 29 140 140 0 14 139 141 .00
0325 .0089 .000325 29 141 141 0 19 140 142 -.000325 -.0089 -.000325 29 142 142 0
 21 141 143 -.000325 .0089 -.000325 29 143 143 0 26 142 144 -.000325 -.0089 .000
325 29 144 144 0 28 143 145 -.000325 .0089 .000325 29 145 145 0 37 144 146 .0002
 .0094 .0002 29 146 146 0 38 145 147 .0002 .0094 -.0002 29 147 147 0 40 146 148
 -.0002 .0094 -.0002 29 148 148 0 42 147 149 -.0002 .0094 .0002 29 149 149 0 59
 148 150 .0002 -.0094 .0002 29 150 150 0 60 149 151 .0002 -.0094 -.0002 29 151 1
51 0 62 150 152 -.0002 -.0094 .0002 29 152 152 0 64 151 0 -.0002 -.0094 -.0002 5
0 153 153 0 6 0 160 232 +.000325 .0094 .000325 -1 0 0 0 0 1 80 1 154 0 155 8001
 0 0 0 0 3 5 0 0 FFFFTFTFFFFFFF2 79 15 155 SDL/TYSA_COLOUR81 1 156 156 154 6 0 0
 0 161 159 70 157 157 4 0 0 4 2 20 4 158 158 1 T74 20 158 2 0 197 533 0 0 0 0 0
 0 0 0 0 0 0 0 0 0 0 0 0 0 83 3 159 .8666666746139526 .9098039269447327 1 50 160
 160 0 16 153 163 268 +-.000325 .0094 -.000325 0 0 1 1 0 - 81 1 161 161 154 16 0
 0 156 164 162 83 3 162 .8666666746139526 .9098039269447327 1 50 163 163 0 23 16
0 166 304 +-.000325 .0094 .000325 1 - 0 0 0 -1 81 1 164 164 154 23 0 0 161 167 1
65 83 3 165 .8666666746139526 .9098039269447327 1 50 166 166 0 30 163 169 340 +-
.000325 .0094 .000325 0 0 -1 -1 0 - 81 1 167 167 154 30 0 0 164 170 168 83 3 168
 .8666666746139526 .9098039269447327 1 50 169 169 0 34 166 172 408 +- .0094 - 0
 -1 0 0 - -1 81 1 170 170 154 34 0 0 167 173 171 83 3 171 .8666666746139526 .909
8039269447327 1 50 172 172 0 44 169 175 394 +-.002399999999999999 .0005999999999
999993 - .970142500145332 -.2425356250363328 0 .2425356250363328 .97014250014533
2 0 81 1 173 173 154 44 0 0 170 176 174 83 3 174 .8666666746139526 .909803926944
7327 1 50 175 175 0 48 172 178 376 +- .0005999999999999987 -.002399999999999998
 0 -.2425356250363327 .970142500145332 0 -.970142500145332 -.2425356250363327 81
 1 176 176 154 48 0 0 173 179 177 83 3 177 .8666666746139526 .9098039269447327 1
 50 178 178 0 51 175 181 412 +- .000599999999999999 .002399999999999999 0 -.2425
356250363328 -.970142500145332 0 .970142500145332 -.2425356250363328 81 1 179 17
9 154 51 0 0 176 182 180 83 3 180 .8666666746139526 .9098039269447327 1 50 181 1
81 0 54 178 184 358 +.002399999999999998 .0005999999999999987 0 -.97014250014533
21 -.2425356250363327 0 .2425356250363327 -.9701425001453321 0 81 1 182 182 154
 54 0 0 179 185 183 83 3 183 .8666666746139526 .9098039269447327 1 50 184 184 0
 56 181 187 484 +0 -.0094 0 0 1 0 0 0 -1 81 1 185 185 154 56 0 0 182 188 186 83
 3 186 .8666666746139526 .9098039269447327 1 50 187 187 0 66 184 190 462 +-.0023
99999999999999 -.0005999999999999993 0 .970142500145332 .2425356250363328 0 .242
5356250363328 -.970142500145332 0 81 1 188 188 154 66 0 0 185 191 189 83 3 189 .
8666666746139526 .9098039269447327 1 50 190 190 0 70 187 193 480 +0 -.0005999999
999999987 -.002399999999999998 0 .2425356250363327 .970142500145332 0 .970142500
145332 -.2425356250363327 81 1 191 191 154 70 0 0 188 194 192 83 3 192 .86666667
46139526 .9098039269447327 1 50 193 193 0 73 190 196 444 +0 -.000599999999999999
 .002399999999999999 0 .2425356250363328 -.970142500145332 0 -.970142500145332 -
.2425356250363328 81 1 194 194 154 73 0 0 191 197 195 83 3 195 .8666666746139526
 .9098039269447327 1 50 196 196 0 76 193 0 426 +.002399999999999998 -.0005999999
999999987 0 -.9701425001453321 .2425356250363327 0 .2425356250363327 .9701425001
453321 0 81 1 197 197 154 76 0 0 194 0 198 83 3 198 .8666666746139526 .909803926
9447327 1 134 199 0 0 0 0 0 0 +200 0 136 200 1 2 2 2 1 FFF1 201 202 203 45 4 201
 0 -.0183 -.00065 -.0183 127 2 202 2 2 128 2 203 0 1 134 204 0 0 0 0 0 0 +205 0
 136 205 1 2 2 2 1 FFF1 206 207 208 45 4 206 -.008555444173156648 .000325 -.0085
55444173156648 -.000325 127 2 207 2 2 128 2 208 0 1 137 209 209 0 4 0 211 212 +1
53 199 0 ?141 210 209 232 232 153 133 211 211 0 81 209 213 0 +209 .000325 -.0089
 .000325 .000325 -.0089 -.000325 0 1 141 212 211 212 212 209 137 213 213 0 4 211
 215 216 +196 204 0 ?141 214 213 426 426 196 133 215 215 0 134 213 227 0 +213 .0
003250000000000002 -.008900000000000002 -.000325 .0003250000000000002 -.00890000
0000000002 .000325 0 1 141 216 215 216 216 213 134 217 0 0 0 0 0 0 +218 0 136 21
8 1 2 2 2 1 FFF1 219 220 221 45 4 219 -.008555444173156648 .000325 -.00855544417
3156648 -.000325 127 2 220 2 2 128 2 221 0 1 134 222 0 0 0 0 0 0 +223 0 136 223
 1 2 2 2 1 FFF1 224 225 226 45 4 224 -.00065 -.0005000000000000004 0 -.000500000
0000000004 127 2 225 2 2 128 2 226 0 1 137 227 227 0 4 215 229 230 +181 217 0 ?1
41 228 227 358 358 181 133 229 229 0 116 227 231 0 +227 .0003250000000000002 .00
8900000000000002 .000325 .0003250000000000002 .008900000000000002 -.000325 0 1 1
41 230 229 230 230 227 137 231 231 0 4 229 233 234 +153 222 0 ?141 232 231 210 2
10 153 133 233 233 0 83 231 245 0 +231 .000325 .0089 -.000325 .000325 .0089 .000
325 0 1 141 234 233 234 234 231 134 235 0 0 0 0 0 0 +236 0 136 236 1 2 2 2 1 FFF
1 237 238 239 45 4 237 .00065 -.0183 0 -.0183 127 2 238 2 2 128 2 239 0 1 134 24
0 0 0 0 0 0 0 +241 0 136 241 1 2 2 2 1 FFF1 242 243 244 45 4 242 -.0085554441731
56646 .000325 -.008555444173156646 -.000325 127 2 243 2 2 128 2 244 0 1 137 245
 245 0 4 233 247 248 +160 235 0 ?141 246 245 268 268 160 133 247 247 0 85 245 24
9 0 +245 .000325 -.0089 -.000325 -.000325 -.0089 -.000325 0 1 141 248 247 248 24
8 245 137 249 249 0 4 247 251 252 +190 240 0 ?141 250 249 480 480 190 133 251 25
1 0 126 249 263 0 +249 -.000325 -.0089 -.0003249999999999998 .000325 -.0089 -.00
03249999999999998 0 1 141 252 251 252 252 249 134 253 0 0 0 0 0 0 +254 0 136 254
 1 2 2 2 1 FFF1 255 256 257 45 4 255 -.008555444173156646 .000325 -.008555444173
156646 -.000325 127 2 256 2 2 128 2 257 0 1 134 258 0 0 0 0 0 0 +259 0 136 259 1
 2 2 2 1 FFF1 260 261 262 45 4 260 0 -.0005000000000000004 .00065 -.000500000000
0000004 127 2 261 2 2 128 2 262 0 1 137 263 263 0 4 251 265 266 +175 253 0 ?141
 264 263 376 376 175 133 265 265 0 108 263 267 0 +263 .000325 .0089 -.0003249999
999999998 -.000325 .0089 -.0003249999999999998 0 1 141 266 265 266 266 263 137 2
67 267 0 4 265 269 270 +160 258 0 ?141 268 267 246 246 160 133 269 269 0 87 267
 281 0 +267 -.000325 .0089 -.000325 .000325 .0089 -.000325 0 1 141 270 269 270 2
70 267 134 271 0 0 0 0 0 0 +272 0 136 272 1 2 2 2 1 FFF1 273 274 275 45 4 273 .0
0065 -.0183 0 -.0183 127 2 274 2 2 128 2 275 0 1 134 276 0 0 0 0 0 0 +277 0 136
 277 1 2 2 2 1 FFF1 278 279 280 45 4 278 .008555444173156646 -.000325 .008555444
173156646 .000325 127 2 279 2 2 128 2 280 0 1 137 281 281 0 4 269 283 284 +163 2
71 0 ?141 282 281 304 304 163 133 283 283 0 89 281 285 0 +281 -.000325 -.0089 -.
000325 -.000325 -.0089 .000325 0 1 141 284 283 284 284 281 137 285 285 0 4 283 2
87 288 +187 276 0 ?141 286 285 462 462 187 133 287 287 0 122 285 299 0 +285 -.00
03250000000000002 -.008900000000000002 .000325 -.0003250000000000002 -.008900000
000000002 -.000325 0 1 141 288 287 288 288 285 134 289 0 0 0 0 0 0 +290 0 136 29
0 1 2 2 2 1 FFF1 291 292 293 45 4 291 .008555444173156646 -.000325 .008555444173
156646 .000325 127 2 292 2 2 128 2 293 0 1 134 294 0 0 0 0 0 0 +295 0 136 295 1
 2 2 2 1 FFF1 296 297 298 45 4 296 0 -.0005000000000000004 .00065 -.000500000000
0000004 127 2 297 2 2 128 2 298 0 1 137 299 299 0 4 287 301 302 +172 289 0 ?141
 300 299 394 394 172 133 301 301 0 104 299 303 0 +299 -.0003250000000000002 .008
900000000000002 -.000325 -.0003250000000000002 .008900000000000002 .000325 0 1 1
41 302 301 302 302 299 137 303 303 0 4 301 305 306 +163 294 0 ?141 304 303 282 2
82 163 133 305 305 0 91 303 317 0 +303 -.000325 .0089 .000325 -.000325 .0089 -.0
00325 0 1 141 306 305 306 306 303 134 307 0 0 0 0 0 0 +308 0 136 308 1 2 2 2 1 F
FF1 309 310 311 45 4 309 0 -.0183 -.00065 -.0183 127 2 310 2 2 128 2 311 0 1 134
 312 0 0 0 0 0 0 +313 0 136 313 1 2 2 2 1 FFF1 314 315 316 45 4 314 .00855544417
3156649 -.000325 .008555444173156649 .000325 127 2 315 2 2 128 2 316 0 1 137 317
 317 0 4 305 319 320 +166 307 0 ?141 318 317 340 340 166 133 319 319 0 93 317 32
1 0 +317 -.000325 -.0089 .000325 .000325 -.0089 .000325 0 1 141 320 319 320 320
 317 137 321 321 0 4 319 323 324 +193 312 0 ?141 322 321 444 444 193 133 323 323
 0 130 321 335 0 +321 .000325 -.008900000000000002 .0003249999999999993 -.000325
 -.008900000000000002 .0003249999999999993 0 1 141 324 323 324 324 321 134 325 0
 0 0 0 0 0 +326 0 136 326 1 2 2 2 1 FFF1 327 328 329 45 4 327 .00855544417315664
9 -.000325 .008555444173156649 .000325 127 2 328 2 2 128 2 329 0 1 134 330 0 0 0
 0 0 0 +331 0 136 331 1 2 2 2 1 FFF1 332 333 334 45 4 332 -.00065 -.000500000000
0000004 0 -.0005000000000000004 127 2 333 2 2 128 2 334 0 1 137 335 335 0 4 323
 337 338 +178 325 0 ?141 336 335 412 412 178 133 337 337 0 112 335 339 0 +335 -.
000325 .008900000000000002 .0003249999999999993 .000325 .008900000000000002 .000
3249999999999993 0 1 141 338 337 338 338 335 137 339 339 0 4 337 341 342 +166 33
0 0 ?141 340 339 318 318 166 133 341 341 0 95 339 353 0 +339 .000325 .0089 .0003
25 -.000325 .0089 .000325 0 1 141 342 341 342 342 339 134 343 0 0 0 0 0 0 +344 0
 136 344 1 2 2 2 1 FFF1 345 346 347 45 4 345 -.0002 .0002 .0002 .0002 127 2 346
 2 2 128 2 347 0 1 134 348 0 0 0 0 0 0 +349 0 136 349 1 2 2 2 1 FFF1 350 351 352
 45 4 350 -.009070832376358855 -.0002 -.009070832376358855 .0002 127 2 351 2 2 1
28 2 352 0 1 137 353 353 0 4 341 355 356 +169 343 0 ?141 354 353 372 408 169 133
 355 355 0 97 353 357 0 +353 .0002 .0094 .0002 .0002 .0094 -.0002 0 1 141 356 35
5 356 356 353 137 357 357 0 4 355 359 360 +181 348 0 ?141 358 357 228 228 181 13
3 359 359 0 114 357 371 0 +357 .0002000000000000005 .009400000000000002 -.0002 .
0002000000000000005 .009400000000000002 .0002 0 1 141 360 359 360 360 357 134 36
1 0 0 0 0 0 0 +362 0 136 362 1 2 2 2 1 FFF1 363 364 365 45 4 363 .0002 .0002 .00
02 -.0002 127 2 364 2 2 128 2 365 0 1 134 366 0 0 0 0 0 0 +367 0 136 367 1 2 2 2
 1 FFF1 368 369 370 45 4 368 -.009070832376358855 -.0002 -.009070832376358855 .0
002 127 2 369 2 2 128 2 370 0 1 137 371 371 0 4 359 373 374 +169 361 0 ?141 372
 371 390 354 169 133 373 373 0 98 371 375 0 +371 .0002 .0094 -.0002 -.0002 .0094
 -.0002 0 1 141 374 373 374 374 371 137 375 375 0 4 373 377 378 +175 366 0 ?141
 376 375 264 264 175 133 377 377 0 106 375 389 0 +375 -.0002 .0094 -.00019999999
99999997 .0002 .0094 -.0001999999999999997 0 1 141 378 377 378 378 375 134 379 0
 0 0 0 0 0 +380 0 136 380 1 2 2 2 1 FFF1 381 382 383 45 4 381 .0002 -.0002 -.000
2 -.0002 127 2 382 2 2 128 2 383 0 1 134 384 0 0 0 0 0 0 +385 0 136 385 1 2 2 2
 1 FFF1 386 387 388 45 4 386 .009070832376358855 .0002 .009070832376358855 -.000
2000000000000002 127 2 387 2 2 128 2 388 0 1 137 389 389 0 4 377 391 392 +169 37
9 0 ?141 390 389 408 372 169 133 391 391 0 99 389 393 0 +389 -.0002 .0094 -.0002
 -.0002 .0094 .0002 0 1 141 392 391 392 392 389 137 393 393 0 4 391 395 396 +172
 384 0 ?141 394 393 300 300 172 133 395 395 0 102 393 407 0 +393 -.0001999999999
999997 .009400000000000002 .0002 -.0001999999999999997 .009400000000000002 -.000
2000000000000002 0 1 141 396 395 396 396 393 134 397 0 0 0 0 0 0 +398 0 136 398
 1 2 2 2 1 FFF1 399 400 401 45 4 399 -.0002 -.0002 -.0002 .0002 127 2 400 2 2 12
8 2 401 0 1 134 402 0 0 0 0 0 0 +403 0 136 403 1 2 2 2 1 FFF1 404 405 406 45 4 4
04 .009070832376358856 .0002 .009070832376358856 -.0002 127 2 405 2 2 128 2 406
 0 1 137 407 407 0 4 395 409 410 +169 397 0 ?141 408 407 354 390 169 133 409 409
 0 100 407 411 0 +407 -.0002 .0094 .0002 .0002 .0094 .0002 0 1 141 410 409 410 4
10 407 137 411 411 0 4 409 413 414 +178 402 0 ?141 412 411 336 336 178 133 413 4
13 0 110 411 425 0 +411 .0002 .009400000000000002 .0001999999999999997 -.0002 .0
09400000000000002 .0001999999999999997 0 1 141 414 413 414 414 411 134 415 0 0 0
 0 0 0 +416 0 136 416 1 2 2 2 1 FFF1 417 418 419 45 4 417 -.009070832376358855 -
.0002 -.009070832376358855 .0002 127 2 418 2 2 128 2 419 0 1 134 420 0 0 0 0 0 0
 +421 0 136 421 1 2 2 2 1 FFF1 422 423 424 45 4 422 .0002 -.0002 -.0002 -.0002 1
27 2 423 2 2 128 2 424 0 1 137 425 425 0 4 413 427 428 +196 415 0 ?141 426 425 2
14 214 196 133 427 427 0 136 425 429 0 +425 .0002000000000000005 -.0094000000000
00002 .0002 .0002000000000000005 -.009400000000000002 -.0002 0 1 141 428 427 428
 428 425 137 429 429 0 4 427 431 432 +184 420 0 ?141 430 429 448 484 184 133 431
 431 0 117 429 443 0 +429 .0002 -.0094 -.0002 .0002 -.0094 .0002 0 1 141 432 431
 432 432 429 134 433 0 0 0 0 0 0 +434 0 136 434 1 2 2 2 1 FFF1 435 436 437 45 4
 435 .009070832376358856 .0002 .009070832376358856 -.0002 127 2 436 2 2 128 2 43
7 0 1 134 438 0 0 0 0 0 0 +439 0 136 439 1 2 2 2 1 FFF1 440 441 442 45 4 440 -.0
002 -.0002 -.0002 .0002 127 2 441 2 2 128 2 442 0 1 137 443 443 0 4 431 445 446
 +193 433 0 ?141 444 443 322 322 193 133 445 445 0 132 443 447 0 +443 -.0002 -.0
09400000000000002 .0001999999999999997 .0002 -.009400000000000002 .0001999999999
999997 0 1 141 446 445 446 446 443 137 447 447 0 4 445 449 450 +184 438 0 ?141 4
48 447 466 430 184 133 449 449 0 118 447 461 0 +447 .0002 -.0094 .0002 -.0002 -.
0094 .0002 0 1 141 450 449 450 450 447 134 451 0 0 0 0 0 0 +452 0 136 452 1 2 2
 2 1 FFF1 453 454 455 45 4 453 .009070832376358855 .0002000000000000002 .0090708
32376358855 -.0002 127 2 454 2 2 128 2 455 0 1 134 456 0 0 0 0 0 0 +457 0 136 45
7 1 2 2 2 1 FFF1 458 459 460 45 4 458 -.0002 .0002 .0002 .0002 127 2 459 2 2 128
 2 460 0 1 137 461 461 0 4 449 463 464 +187 451 0 ?141 462 461 286 286 187 133 4
63 463 0 124 461 465 0 +461 -.0001999999999999997 -.009400000000000002 -.0002000
000000000002 -.0001999999999999997 -.009400000000000002 .0002 0 1 141 464 463 46
4 464 461 137 465 465 0 4 463 467 468 +184 456 0 ?141 466 465 484 448 184 133 46
7 467 0 119 465 479 0 +465 -.0002 -.0094 .0002 -.0002 -.0094 -.0002 0 1 141 468
 467 468 468 465 134 469 0 0 0 0 0 0 +470 0 136 470 1 2 2 2 1 FFF1 471 472 473 4
5 4 471 -.009070832376358855 -.0002 -.009070832376358855 .0002 127 2 472 2 2 128
 2 473 0 1 134 474 0 0 0 0 0 0 +475 0 136 475 1 2 2 2 1 FFF1 476 477 478 45 4 47
6 .0002 .0002 .0002 -.0002 127 2 477 2 2 128 2 478 0 1 137 479 479 0 4 467 481 4
82 +190 469 0 ?141 480 479 250 250 190 133 481 481 0 128 479 483 0 +479 .0002 -.
0094 -.0001999999999999997 -.0002 -.0094 -.0001999999999999997 0 1 141 482 481 4
82 482 479 137 483 483 0 4 481 485 486 +184 474 0 ?141 484 483 430 466 184 133 4
85 485 0 120 483 487 0 +483 -.0002 -.0094 -.0002 .0002 -.0094 -.0002 0 1 141 486
 485 486 486 483 30 487 487 0 4 485 488 489 +.000325 .0094 -.000325 0 -1 0 133 4
88 488 0 11 487 490 0 +487 .000325 .0089 -.000325 .000325 -.0089 -.000325 .00050
00000000000004 .0183 141 489 488 489 489 487 30 490 490 0 4 488 491 492 +.000325
 .0094 .000325 0 -1 0 133 491 491 0 15 490 493 0 +490 .000325 .0089 .000325 .000
325 -.0089 .000325 .0005000000000000004 .0183 141 492 491 492 492 490 30 493 493
 0 4 491 494 495 +-.000325 .0094 -.000325 0 -1 0 133 494 494 0 20 493 496 0 +493
 -.000325 .0089 -.000325 -.000325 -.0089 -.000325 .0005000000000000004 .0183 141
 495 494 495 495 493 30 496 496 0 4 494 497 498 +-.000325 .0094 .000325 0 -1 0 1
33 497 497 0 27 496 499 0 +496 -.000325 .0089 .000325 -.000325 -.0089 .000325 .0
005000000000000004 .0183 141 498 497 498 498 496 30 499 499 0 36 497 500 0 +.000
2 .0094 .0002 0 0 -1 30 500 500 0 39 499 501 0 +-.0002 .0094 -.0002 -1 0 - 30 50
1 501 0 41 500 502 0 +-.0002 .0094 .0002 0 - 1 30 502 502 0 43 501 503 0 +-.0002
 .0094 .0002 1 0 - 30 503 503 0 4 502 504 505 +-.000325 .0089 .000325 .235702260
3955157 .9428090415820635 -.2357022603955156 133 504 504 0 46 503 506 0 +503 -.0
00325 .0089 .000325 -.0002 .0094 .0002 0 .000530330085889911 141 505 504 505 505
 503 30 506 506 0 4 504 507 508 +-.000325 .0089 -.000325 .2357022603955157 .9428
090415820636 .2357022603955156 133 507 507 0 47 506 509 0 +506 -.000325 .0089 -.
000325 -.0002 .0094 -.0002 0 .0005303300858899109 141 508 507 508 508 506 30 509
 509 0 4 507 510 511 +.000325 .0089 -.000325 -.2357022603955155 .942809041582063
6 .2357022603955156 133 510 510 0 50 509 512 0 +509 .000325 .0089 -.000325 .0002
 .0094 -.0002 0 .000530330085889911 141 511 510 511 511 509 30 512 512 0 4 510 5
13 514 +.000325 .0089 .000325 -.2357022603955155 .9428090415820635 -.23570226039
55156 133 513 513 0 53 512 515 0 +512 .000325 .0089 .000325 .0002 .0094 .0002 0
 .000530330085889911 141 514 513 514 514 512 30 515 515 0 58 513 516 0 +.0002 -.
0094 .0002 0 0 -1 30 516 516 0 61 515 517 0 +-.0002 -.0094 .0002 1 0 - 30 517 51
7 0 63 516 518 0 +-.0002 -.0094 .0002 0 0 1 30 518 518 0 65 517 519 0 +-.0002 -.
0094 -.0002 -1 0 0 30 519 519 0 4 518 520 521 +-.000325 -.0089 .000325 .23570226
03955157 -.9428090415820635 -.2357022603955156 133 520 520 0 68 519 522 0 +519 -
.000325 -.0089 .000325 -.0002 -.0094 .0002 0 .000530330085889911 141 521 520 521
 521 519 30 522 522 0 4 520 523 524 +-.000325 -.0089 -.000325 .2357022603955157
 -.9428090415820636 .2357022603955156 133 523 523 0 69 522 525 0 +522 -.000325 -
.0089 -.000325 -.0002 -.0094 -.0002 0 .0005303300858899109 141 524 523 524 524 5
22 30 525 525 0 4 523 526 527 +.000325 -.0089 -.000325 -.2357022603955155 -.9428
090415820636 .2357022603955156 133 526 526 0 72 525 528 0 +525 .000325 -.0089 -.
000325 .0002 -.0094 -.0002 0 .000530330085889911 141 527 526 527 527 525 30 528
 528 0 4 526 529 530 +.000325 -.0089 .000325 -.2357022603955155 -.94280904158206
35 -.2357022603955156 133 529 529 0 75 528 0 0 +528 .000325 -.0089 .000325 .0002
 -.0094 .0002 0 .000530330085889911 141 530 529 530 530 528 80 1 531 154 532 900
0 0 0 0 0 3 6 0 0 TFTTTTTTFFFFTT3 79 25 532 H3DX_BRIDGE/PERSISTENT_ID81 1 533 53
3 531 4 0 0 0 0 534 84 3 534 10411 535 535 0 1 4 0 3 0 0 0 0 81 1 536 536 531 3
 0 542 0 0 539 70 537 537 3 0 0 4 2 20 4 538 538 1 T74 20 538 2 0 536 542 0 0 0
 0 0 0 0 0 0 0 0 0 0 0 0 0 0 0 84 10 539 149320533280 1 540 531 541 8017 0 0 0 0
 0 0 0 0 TTTTTTTTTTTTTF3 79 13 541 SDL/TYSA_NAME81 1 542 542 540 3 536 0 0 0 543
 84 5 543 Pin-1100 544 544 545 0 0 1 - 0 0 1 0 - 0 1 0 0 0 1 0 ?11 545 545 0 1 3
 544 2 744 0 0 0 10 546 741 741 738 0 0 0 0 0 1e3 1e-008 744 0 0 1 0 1 736 12 54
7 734 734 680 0 0 0 0 1e3 1e-008 736 0 0 1 0 1 1 613 707 733 677 611 608 591 13
 548 548 0 0 0 0 0 0 611 549 14 549 549 679 ?559 0 550 613 678 -0 0 559 0 548 15
 550 550 0 614 549 0 16 551 551 0 ?614 554 0 710 0 0 547 18 552 552 0 642 562 55
7 662 ?547 18 553 553 0 645 555 0 663 ?547 16 554 554 0 ?621 556 551 711 0 0 547
 18 555 555 0 634 557 553 664 ?547 16 556 556 0 ?634 558 554 712 0 0 547 18 557
 557 0 637 552 555 665 ?547 16 558 558 0 ?617 561 556 713 0 0 547 14 559 559 684
 ?566 549 560 613 683 -0 0 566 549 548 15 560 560 0 618 559 0 16 561 561 0 ?618
 563 558 714 0 0 547 18 562 562 0 644 564 552 666 ?547 16 563 563 0 ?625 565 561
 715 0 0 547 18 564 564 0 635 569 562 667 ?547 16 565 565 0 ?635 568 563 716 0 0
 547 14 566 566 687 ?573 559 567 613 686 -0 0 573 559 548 15 567 567 0 622 566 0
 16 568 568 0 ?622 570 565 717 0 0 547 18 569 569 0 643 571 564 668 ?547 16 570
 570 0 ?629 572 568 718 0 0 547 18 571 571 0 636 580 569 669 ?547 16 572 572 0 ?
636 575 570 719 0 0 547 14 573 573 690 ?577 566 574 613 689 -0 0 577 566 548 15
 574 574 0 626 573 0 16 575 575 0 ?626 576 572 720 0 0 547 16 576 576 0 ?637 579
 575 721 0 0 547 14 577 577 693 ?588 573 578 613 692 -0 0 588 573 548 15 578 578
 0 630 577 587 16 579 579 0 ?659 582 576 722 0 0 547 18 580 580 0 658 583 571 67
0 ?547 18 581 581 0 659 592 585 671 ?547 16 582 582 0 ?647 584 579 723 0 0 547 1
8 583 583 0 651 585 580 672 ?547 16 584 584 0 ?651 586 582 724 0 0 547 18 585 58
5 0 655 581 583 673 ?547 16 586 586 0 ?655 590 584 725 0 0 547 15 587 587 0 634
 577 0 14 588 588 696 ?599 577 589 613 695 +0 0 599 577 548 15 589 589 0 638 588
 598 16 590 590 0 ?638 593 586 726 0 0 547 18 591 591 0 652 0 596 674 ?547 18 59
2 592 0 661 594 581 675 ?547 16 593 593 0 ?639 595 590 727 0 0 547 18 594 594 0
 660 596 592 676 ?547 16 595 595 0 ?640 597 593 728 0 0 547 18 596 596 0 656 591
 594 677 ?547 16 597 597 0 ?641 601 595 729 0 0 547 15 598 598 0 642 588 0 14 59
9 599 699 ?603 588 600 613 698 -0 0 603 588 548 15 600 600 0 646 599 0 16 601 60
1 0 ?646 602 597 730 0 0 547 16 602 602 0 ?658 605 601 731 0 0 547 14 603 603 70
2 ?606 599 604 613 701 -0 0 606 599 548 15 604 604 0 650 603 0 16 605 605 0 ?650
 608 602 732 0 0 547 14 606 606 705 ?609 603 607 613 704 -0 0 609 603 548 15 607
 607 0 654 606 0 16 608 608 0 ?654 0 605 733 0 0 547 14 609 609 708 ?0 606 610 6
13 707 -0 0 0 606 548 15 610 610 0 658 609 0 19 611 611 0 547 612 0 548 V19 612
 612 0 547 0 611 613 S13 613 613 0 547 0 549 0 0 612 0 17 614 0 550 615 617 553
 642 551 0 0 +17 615 0 550 616 614 555 621 554 0 0 -17 616 0 550 617 615 557 634
 556 0 0 -17 617 0 550 614 616 552 627 558 0 0 +17 618 0 560 619 621 562 645 561
 0 0 +17 619 0 560 620 618 564 625 563 0 0 -17 620 0 560 621 619 555 635 565 0 6
15 -17 621 0 560 618 620 553 615 554 0 614 +17 622 0 567 623 625 569 644 568 0 0
 +17 623 0 567 624 622 571 629 570 0 0 -17 624 0 567 625 623 564 636 572 0 619 -
17 625 0 567 622 624 562 619 563 0 618 +17 626 0 574 627 629 552 643 575 0 617 +
17 627 0 574 628 626 557 617 558 0 616 -17 628 0 574 629 627 571 637 576 0 623 -
17 629 0 574 626 628 569 623 570 0 622 +17 630 0 578 631 633 580 659 579 0 0 -17
 631 0 578 632 630 583 647 582 0 0 -17 632 0 578 633 631 585 651 584 0 0 -17 633
 0 578 630 632 581 655 586 0 0 -17 634 0 587 635 637 555 616 556 0 620 +17 635 0
 587 636 634 564 620 565 0 624 +17 636 0 587 637 635 571 624 572 0 628 +17 637 0
 587 634 636 557 628 576 0 627 +17 638 0 589 639 641 592 649 590 0 0 +17 639 0 5
89 640 638 594 661 593 0 0 +17 640 0 589 641 639 596 657 595 0 0 +17 641 0 589 6
38 640 591 653 597 0 0 +17 642 0 598 643 645 552 614 551 0 626 -17 643 0 598 644
 642 569 626 575 0 629 -17 644 0 598 645 643 562 622 568 0 625 -17 645 0 598 642
 644 553 618 561 0 621 -17 646 0 600 647 649 583 652 601 0 631 +17 647 0 600 648
 646 580 631 582 0 630 +17 648 0 600 649 647 592 658 602 0 638 -17 649 0 600 646
 648 591 638 590 0 641 -17 650 0 604 651 653 585 656 605 0 632 +17 651 0 604 652
 650 583 632 584 0 646 +17 652 0 604 653 651 591 646 601 0 649 -17 653 0 604 650
 652 596 641 597 0 640 -17 654 0 607 655 657 581 660 608 0 633 +17 655 0 607 656
 654 585 633 586 0 650 +17 656 0 607 657 655 596 650 605 0 653 -17 657 0 607 654
 656 594 640 595 0 639 -17 658 0 610 659 661 580 648 602 0 647 +17 659 0 610 660
 658 581 630 579 0 654 +17 660 0 610 661 659 594 654 608 0 657 -17 661 0 610 658
 660 592 639 593 0 648 -29 662 662 0 552 0 663 .00125 -.001 .00125 29 663 663 0
 553 662 664 .00125 -.001 -.00125 29 664 664 0 555 663 665 .00125 .001 -.00125 2
9 665 665 0 557 664 666 .00125 .001 .00125 29 666 666 0 562 665 667 -.00125 -.00
1 -.00125 29 667 667 0 564 666 668 -.00125 .001 -.00125 29 668 668 0 569 667 669
 -.00125 -.001 .00125 29 669 669 0 571 668 670 -.00125 .001 .00125 29 670 670 0
 580 669 671 -.000325 .001 .000325 29 671 671 0 581 670 672 .000325 .001 .000325
0000000000002 29 672 672 0 583 671 673 -.000325 .001 -.0003249999999999999 29 67
3 673 0 585 672 674 .000325 .001 -.000325 29 674 674 0 591 673 675 -.00032499999
99999999 -.001 -.0003249999999999999 29 675 675 0 592 674 676 -.0003249999999999
999 -.001 .000325 29 676 676 0 594 675 677 .000325 -.001 .0003250000000000002 29
 677 677 0 596 676 0 .000325 -.001 -.0003249999999999999 50 678 678 0 549 0 683
 0 +.00125 .001 .00125 -1 0 0 0 0 1 81 1 679 679 154 549 0 0 0 684 682 70 680 68
0 547 0 0 4 2 20 4 681 681 1 T74 20 681 2 0 708 734 0 0 0 0 0 0 0 0 0 0 0 0 0 0
 0 0 0 0 83 3 682 .8980392217636108 .9176470637321472 .929411768913269 50 683 68
3 0 559 678 686 0 +-.00125 .001 -.00125 0 0 1 1 0 - 81 1 684 684 154 559 0 0 679
 687 685 83 3 685 .1019607856869698 .1019607856869698 .1019607856869698 50 686 6
86 0 566 683 689 0 +-.00125 .001 .00125 1 - 0 0 0 -1 81 1 687 687 154 566 0 0 68
4 690 688 83 3 688 .1019607856869698 .1019607856869698 .1019607856869698 50 689
 689 0 573 686 692 0 +-.00125 .001 .00125 0 0 -1 -1 0 - 81 1 690 690 154 573 0 0
 687 693 691 83 3 691 .8980392217636108 .9176470637321472 .929411768913269 50 69
2 692 0 577 689 695 0 +0 .001 0 0 -1 0 0 - -1 81 1 693 693 154 577 0 0 690 696 6
94 83 3 694 .1019607856869698 .1019607856869698 .1019607856869698 50 695 695 0 5
88 692 698 0 +0 -.001 0 0 -1 0 0 - -1 81 1 696 696 154 588 0 0 693 699 697 83 3
 697 .1019607856869698 .1019607856869698 .1019607856869698 50 698 698 0 599 695
 701 0 +-.000325 -.001001 .000325 -1 0 - 0 0 1 81 1 699 699 154 599 0 0 696 702
 700 83 3 700 .1019607856869698 .1019607856869698 .1019607856869698 50 701 701 0
 603 698 704 0 +.000325 -.001001 -.000325 -1.668003342285392e-016 0 -1 -1 0 1.66
8003342285392e-016 81 1 702 702 154 603 0 0 699 705 703 83 3 703 .10196078568696
98 .1019607856869698 .1019607856869698 50 704 704 0 606 701 707 0 +.000325 -.001
001 .0003250000000000002 1 0 0 0 0 -1 81 1 705 705 154 606 0 0 702 708 706 83 3
 706 .1019607856869698 .1019607856869698 .1019607856869698 50 707 707 0 609 704
 0 0 +.000325 -.001001 .0003250000000000002 -1.668003342285392e-016 0 1 1 0 1.66
8003342285392e-016 81 1 708 708 154 609 0 0 705 0 709 83 3 709 .1019607856869698
 .1019607856869698 .1019607856869698 30 710 710 0 551 0 711 0 +.00125 -.001 .001
25 0 0 -1 30 711 711 0 554 710 712 0 +.00125 .001 -.00125 0 -1 0 30 712 712 0 55
6 711 713 0 +.00125 .001 .00125 0 0 -1 30 713 713 0 558 712 714 0 +.00125 .001 .
00125 0 -1 0 30 714 714 0 561 713 715 0 +-.00125 -.001 -.00125 -1 0 - 30 715 715
 0 563 714 716 0 +-.00125 .001 -.00125 0 -1 0 30 716 716 0 565 715 717 0 +-.0012
5 .001 -.00125 -1 0 - 30 717 717 0 568 716 718 0 +-.00125 -.001 .00125 0 - 1 30
 718 718 0 570 717 719 0 +-.00125 .001 .00125 0 -1 0 30 719 719 0 572 718 720 0
 +-.00125 .001 .00125 0 - 1 30 720 720 0 575 719 721 0 +-.00125 -.001 .00125 1 0
 - 30 721 721 0 576 720 722 0 +-.00125 .001 .00125 1 0 - 30 722 722 0 579 721 72
3 0 +.000325 .001 .0003250000000000002 1 0 1.668003342285392e-016 30 723 723 0 5
82 722 724 0 +-.000325 .001 .000325 0 - 1 30 724 724 0 584 723 725 0 +.000325 .0
01 -.000325 -1 0 1.668003342285392e-016 30 725 725 0 586 724 726 0 +.000325 .001
 .0003250000000000002 0 0 -1 30 726 726 0 590 725 727 0 +-.000325 -.001 .000325
 0 0 1 30 727 727 0 593 726 728 0 +.000325 -.001 .0003250000000000002 1 0 1.6680
03342285392e-016 30 728 728 0 595 727 729 0 +.000325 -.001 .0003250000000000002
 0 0 -1 30 729 729 0 597 728 730 0 +.000325 -.001 -.000325 -1 0 1.66800334228539
2e-016 30 730 730 0 601 729 731 0 +-.000325 -.001001 -.0003249999999999999 - 1 0
 30 731 731 0 602 730 732 0 +-.000325 -.001001 .000325 - 1 0 30 732 732 0 605 73
1 733 0 +.000325 -.001001 -.000325 - 1 0 30 733 733 0 608 732 0 0 +.000325 -.001
001 .0003250000000000002 - 1 0 81 1 734 734 531 547 0 0 0 0 735 84 3 735 10211 7
36 736 0 1 547 0 546 0 0 0 0 81 1 737 737 531 546 0 741 0 0 740 70 738 738 546 0
 0 4 2 20 4 739 739 1 T74 20 739 2 0 737 741 0 0 0 0 0 0 0 0 0 0 0 0 0 0 0 0 0 0
 84 10 740 149320351081 1 741 741 540 546 737 0 0 0 742 84 8 742 Socket-1100 743
 743 744 0 0 1 - 0 0 1 0 - 0 1 0 0 0 1 0 ?11 744 744 0 1 546 743 2 0 545 0 0 81
 1 745 745 531 2 0 749 0 0 748 70 746 746 2 0 0 4 2 20 4 747 747 1 T74 20 747 2
 0 745 749 0 0 0 0 0 0 0 0 0 0 0 0 0 0 0 0 0 0 84 10 748 149320650881 1 749 749
 540 2 745 0 0 0 750 84 9 750 Male-male100 751 751 752 0 0 1 0 0 0 1 0 0 0 1 0 0
 0 1 0 ?11 752 752 0 1 2 751 1 759 0 0 0 10 753 755 754 755 0 0 0 0 0 1e3 1e-008
 759 0 0 1 0 1 0 81 1 754 754 540 753 0 0 0 0 757 70 755 755 753 0 0 4 1 20 4 75
6 756 1 T74 20 756 1 0 754 0 0 0 0 0 0 0 0 0 0 0 0 0 0 0 0 0 0 0 84 11 757 Male-
female100 758 758 759 0 0 1 0 0 0 1 0 0 0 1 0 0 0 1 0 ?11 759 759 0 1 753 758 1
 766 752 0 0 10 760 762 761 762 0 0 0 0 0 1e3 1e-008 766 0 0 1 0 1 0 81 1 761 76
1 540 760 0 0 0 0 764 70 762 762 760 0 0 4 1 20 4 763 763 1 T74 20 763 1 0 761 0
 0 0 0 0 0 0 0 0 0 0 0 0 0 0 0 0 0 0 84 23 764 Male-female-wire-female100 765 76
5 766 0 0 1 0 0 0 1 0 0 0 1 0 0 0 1 0 ?11 766 766 0 1 760 765 1 773 759 0 0 10 7
67 769 768 769 0 0 0 0 0 1e3 1e-008 773 0 0 1 0 1 0 81 1 768 768 540 767 0 0 0 0
 771 70 769 769 767 0 0 4 1 20 4 770 770 1 T74 20 770 1 0 768 0 0 0 0 0 0 0 0 0
 0 0 0 0 0 0 0 0 0 0 84 28 771 Male-female-wire-female-male100 772 772 773 0 0 1
 0 0 0 1 0 0 0 1 0 0 0 1 0 ?11 773 773 0 1 767 772 1 780 766 0 0 10 774 776 775
 776 0 0 0 0 0 1e3 1e-008 780 0 0 1 0 1 0 81 1 775 775 540 774 0 0 0 0 778 70 77
6 776 774 0 0 4 1 20 4 777 777 1 T74 20 777 1 0 775 0 0 0 0 0 0 0 0 0 0 0 0 0 0
 0 0 0 0 0 84 53 778 Male-female-wire-female/15 cm Male-female-wire-female100 77
9 779 780 0 0 1 0 0 0 1 0 0 0 1 0 0 0 1 0 ?11 780 780 0 1 774 779 1 787 773 0 0
 10 781 783 782 783 0 0 0 0 0 1e3 1e-008 787 0 0 1 0 1 0 81 1 782 782 540 781 0
 0 0 0 785 70 783 783 781 0 0 4 1 20 4 784 784 1 T74 20 784 1 0 782 0 0 0 0 0 0
 0 0 0 0 0 0 0 0 0 0 0 0 0 84 52 785 Male-female-wire-female/20cm Male-female-wi
re-female100 786 786 787 0 0 1 0 0 0 1 0 0 0 1 0 0 0 1 0 ?11 787 787 0 1 781 786
 1 794 780 0 0 10 788 790 789 790 0 0 0 0 0 1e3 1e-008 794 0 0 1 0 1 0 81 1 789
 789 540 788 0 0 0 0 792 70 790 790 788 0 0 4 1 20 4 791 791 1 T74 20 791 1 0 78
9 0 0 0 0 0 0 0 0 0 0 0 0 0 0 0 0 0 0 0 84 52 792 Male-female-wire-female/30cm M
ale-female-wire-female100 793 793 794 0 0 1 0 0 0 1 0 0 0 1 0 0 0 1 0 ?11 794 79
4 0 1 788 793 1 801 787 0 0 10 795 797 796 797 0 0 0 0 0 1e3 1e-008 801 0 0 1 0
 1 0 81 1 796 796 540 795 0 0 0 0 799 70 797 797 795 0 0 4 1 20 4 798 798 1 T74
 20 798 1 0 796 0 0 0 0 0 0 0 0 0 0 0 0 0 0 0 0 0 0 0 84 52 799 Male-female-wire
-female/50cm Male-female-wire-female100 800 800 801 0 0 1 0 0 0 1 0 0 0 1 0 0 0
 1 0 ?11 801 801 0 1 795 800 1 808 794 0 0 10 802 804 803 804 0 0 0 0 0 1e3 1e-0
08 808 0 0 1 0 1 0 81 1 803 803 540 802 0 0 0 0 806 70 804 804 802 0 0 4 1 20 4
 805 805 1 T74 20 805 1 0 803 0 0 0 0 0 0 0 0 0 0 0 0 0 0 0 0 0 0 0 84 62 806 Ma
le-female-wire-female-male/15cm Male-female-wire-female-male100 807 807 808 0 0
 1 0 0 0 1 0 0 0 1 0 0 0 1 0 ?11 808 808 0 1 802 807 1 815 801 0 0 10 809 811 81
0 811 0 0 0 0 0 1e3 1e-008 815 0 0 1 0 1 0 81 1 810 810 540 809 0 0 0 0 813 70 8
11 811 809 0 0 4 1 20 4 812 812 1 T74 20 812 1 0 810 0 0 0 0 0 0 0 0 0 0 0 0 0 0
 0 0 0 0 0 84 62 813 Male-female-wire-female-male/20cm Male-female-wire-female-m
ale100 814 814 815 0 0 1 0 0 0 1 0 0 0 1 0 0 0 1 0 ?11 815 815 0 1 809 814 1 822
 808 0 0 10 816 818 817 818 0 0 0 0 0 1e3 1e-008 822 0 0 1 0 1 0 81 1 817 817 54
0 816 0 0 0 0 820 70 818 818 816 0 0 4 1 20 4 819 819 1 T74 20 819 1 0 817 0 0 0
 0 0 0 0 0 0 0 0 0 0 0 0 0 0 0 0 84 62 820 Male-female-wire-female-male/30cm Mal
e-female-wire-female-male100 821 821 822 0 0 1 0 0 0 1 0 0 0 1 0 0 0 1 0 ?11 822
 822 0 1 816 821 1 829 815 0 0 10 823 825 824 825 0 0 0 0 0 1e3 1e-008 829 0 0 1
 0 1 0 81 1 824 824 540 823 0 0 0 0 827 70 825 825 823 0 0 4 1 20 4 826 826 1 T7
4 20 826 1 0 824 0 0 0 0 0 0 0 0 0 0 0 0 0 0 0 0 0 0 0 84 62 827 Male-female-wir
e-female-male/50cm Male-female-wire-female-male100 828 828 829 0 0 1 0 0 0 1 0 0
 0 1 0 0 0 1 0 ?11 829 829 0 1 823 828 1 0 822 0 0 81 1 830 830 531 1 0 834 0 0
 833 70 831 831 1 0 0 4 2 20 4 832 832 1 T74 20 832 2 0 830 834 0 0 0 0 0 0 0 0
 0 0 0 0 0 0 0 0 0 0 84 10 833 149320650881 1 834 834 540 1 830 0 0 0 835 84 6 8
35 Jumper1 0 