**ABCDEFGHIJKLMNOPQRSTUVWXYZabcdefghijklmnopqrstuvwxyz**************************
**PARASOLID !"#$%&'()*+,-./:;<=>?@[\]^_`{|}~0123456789**************************
**PART1;
MC=unknown;
MC_MODEL=unknown;
MC_ID=unknown;
OS=unknown;
OS_RELEASE=unknown;
FRU=unknown;
APPL=File generated by HOOPS Exchange Version 10.0.12;
SITE=unknown;
USER=unknown;
FORMAT=text;
GUISE=transmit;
KEY=Pin;
FILE=c:\tempstorage\9992672266648408\Pin.SLDPRT.x_t;
DATE=unknown;
**PART2;
SCH=SCH_1100000_11004;
USFLD_SIZE=0;
**PART3;
**END_OF_HEADER*****************************************************************
T51 : TRANSMIT FILE created by modeller version 110000017 SCH_1100000_110040 10
 1 549 549 546 0 0 0 0 0 1e3 1e-008 0 0 0 1 0 1 544 10 2 541 541 536 0 0 0 0 0 1
e3 1e-008 544 0 0 1 0 1 534 12 3 532 532 156 0 0 0 0 1e3 1e-008 534 0 0 1 0 1 1
 79 195 528 151 77 74 59 13 4 4 0 0 0 0 0 0 77 5 14 5 5 155 ?15 0 6 79 152 -0 0
 15 0 4 15 6 6 0 80 5 0 16 7 7 0 2e-008 80 10 0 0 0 0 3 18 8 8 0 133 18 13 136 2
e-008 3 18 9 9 0 132 11 0 137 2e-008 3 16 10 10 0 ?87 12 7 487 0 0 3 18 11 11 0
 115 13 9 138 2e-008 3 16 12 12 0 2e-008 115 14 10 0 0 0 3 18 13 13 0 114 8 11 1
39 2e-008 3 16 14 14 0 ?83 17 12 490 0 0 3 14 15 15 160 ?22 5 16 79 159 -0 0 22
 5 4 15 16 16 0 84 15 0 16 17 17 0 2e-008 84 19 14 0 0 0 3 18 18 18 0 124 20 8 1
40 2e-008 3 16 19 19 0 ?91 21 17 493 0 0 3 18 20 20 0 107 25 18 141 2e-008 3 16
 21 21 0 2e-008 107 24 19 0 0 0 3 14 22 22 163 ?29 15 23 79 162 -0 0 29 15 4 15
 23 23 0 88 22 0 16 24 24 0 2e-008 88 26 21 0 0 0 3 18 25 25 0 129 27 20 142 2e-
008 3 16 26 26 0 ?95 28 24 496 0 0 3 18 27 27 0 110 37 25 143 2e-008 3 16 28 28
 0 2e-008 103 31 26 0 0 0 3 14 29 29 166 ?33 22 30 79 165 -0 0 33 22 4 15 30 30
 0 92 29 0 16 31 31 0 2e-008 92 32 28 0 0 0 3 16 32 32 0 2e-008 111 35 31 0 0 0
 3 14 33 33 169 ?43 29 34 79 168 -0 0 43 29 4 15 34 34 0 96 33 0 16 35 35 0 2e-0
08 96 38 32 498 0 0 3 18 36 36 0 113 58 41 144 2e-008 3 18 37 37 0 112 39 27 145
 2e-008 3 16 38 38 0 2e-008 97 40 35 499 0 0 3 18 39 39 0 104 41 37 146 2e-008 3
 16 40 40 0 2e-008 98 42 38 500 0 0 3 18 41 41 0 109 36 39 147 2e-008 3 16 42 42
 0 2e-008 99 45 40 501 0 0 3 14 43 43 172 ?47 33 44 79 171 -0 0 47 33 4 15 44 44
 0 100 43 0 16 45 45 0 ?100 46 42 503 0 0 3 16 46 46 0 ?104 49 45 506 0 0 3 14 4
7 47 175 ?50 43 48 79 174 -0 0 50 43 4 15 48 48 0 104 47 0 16 49 49 0 ?112 52 46
 509 0 0 3 14 50 50 178 ?53 47 51 79 177 -0 0 53 47 4 15 51 51 0 108 50 0 16 52
 52 0 ?108 57 49 512 0 0 3 14 53 53 181 ?55 50 54 79 180 -0 0 55 50 4 15 54 54 0
 112 53 0 14 55 55 184 ?65 53 56 79 183 -0 0 65 53 4 15 56 56 0 116 55 0 16 57 5
7 0 2e-008 135 60 52 514 0 0 3 18 58 58 0 134 61 36 148 2e-008 3 18 59 59 0 135
 0 63 149 2e-008 3 16 60 60 0 2e-008 131 62 57 515 0 0 3 18 61 61 0 130 63 58 15
0 2e-008 3 16 62 62 0 2e-008 123 64 60 516 0 0 3 18 63 63 0 127 59 61 151 2e-008
 3 16 64 64 0 2e-008 127 67 62 517 0 0 3 14 65 65 187 ?69 55 66 79 186 -0 0 69 5
5 4 15 66 66 0 120 65 0 16 67 67 0 ?130 68 64 519 0 0 3 16 68 68 0 ?122 71 67 52
2 0 0 3 14 69 69 190 ?72 65 70 79 189 -0 0 72 65 4 15 70 70 0 124 69 0 16 71 71
 0 ?126 74 68 525 0 0 3 14 72 72 193 ?75 69 73 79 192 -0 0 75 69 4 15 73 73 0 12
8 72 0 16 74 74 0 ?134 0 71 528 0 0 3 14 75 75 196 ?0 72 76 79 195 -0 0 0 72 4 1
5 76 76 0 132 75 0 19 77 77 0 3 78 0 4 V19 78 78 0 3 0 77 79 S13 79 79 0 3 0 5 0
 0 78 0 17 80 0 6 81 83 9 133 7 210 0 +17 81 0 6 82 80 11 87 10 0 0 -17 82 0 6 8
3 81 13 115 12 232 0 -17 83 0 6 80 82 8 93 14 0 0 +17 84 0 16 85 87 18 125 17 24
6 0 +17 85 0 16 86 84 20 91 19 0 0 -17 86 0 16 87 85 11 107 21 268 81 -17 87 0 1
6 84 86 9 81 10 0 80 +17 88 0 23 89 91 25 121 24 282 0 +17 89 0 23 90 88 27 95 2
6 0 0 -17 90 0 23 91 89 20 103 28 304 85 -17 91 0 23 88 90 18 85 19 0 84 +17 92
 0 30 93 95 8 129 31 318 83 +17 93 0 30 94 92 13 83 14 0 82 -17 94 0 30 95 93 27
 111 32 340 89 -17 95 0 30 92 94 25 89 26 0 88 +17 96 0 34 97 99 37 113 35 354 0
 +17 97 0 34 98 96 39 105 38 372 0 +17 98 0 34 99 97 41 101 40 390 0 +17 99 0 34
 96 98 36 109 42 408 0 +17 100 0 44 101 103 41 110 45 0 98 +17 101 0 44 102 100
 39 98 40 394 97 -17 102 0 44 103 101 20 104 46 0 90 -17 103 0 44 100 102 27 90
 28 300 94 +17 104 0 48 105 107 39 102 46 0 101 +17 105 0 48 106 104 37 97 38 37
6 96 -17 106 0 48 107 105 11 112 49 0 86 -17 107 0 48 104 106 20 86 21 264 102 +
17 108 0 51 109 111 36 114 52 0 99 +17 109 0 51 110 108 41 99 42 412 100 -17 110
 0 51 111 109 27 100 45 0 103 -17 111 0 51 108 110 13 94 32 336 93 +17 112 0 54
 113 115 37 106 49 0 105 +17 113 0 54 114 112 36 96 35 358 108 -17 114 0 54 115
 113 13 108 52 0 111 -17 115 0 54 112 114 11 82 12 228 106 +17 116 0 56 117 119
 58 135 57 430 0 -17 117 0 56 118 116 61 131 60 448 0 -17 118 0 56 119 117 63 12
3 62 466 0 -17 119 0 56 116 118 59 127 64 484 0 -17 120 0 66 121 123 25 130 67 0
 95 -17 121 0 66 122 120 18 88 24 286 91 -17 122 0 66 123 121 63 124 68 0 118 +1
7 123 0 66 120 122 61 118 62 462 117 +17 124 0 70 125 127 18 122 68 0 121 -17 12
5 0 70 126 124 9 84 17 250 87 -17 126 0 70 127 125 59 132 71 0 119 +17 127 0 70
 124 126 63 119 64 480 122 +17 128 0 73 129 131 8 134 74 0 92 -17 129 0 73 130 1
28 25 92 31 322 120 -17 130 0 73 131 129 61 120 67 0 123 +17 131 0 73 128 130 58
 117 60 444 116 +17 132 0 76 133 135 9 126 71 0 125 -17 133 0 76 134 132 8 80 7
 214 128 -17 134 0 76 135 133 58 128 74 0 131 +17 135 0 76 132 134 59 116 57 426
 126 +29 136 136 0 8 0 137 .000325 -.0089 .000325 29 137 137 0 9 136 138 .000325
 -.0089 -.000325 29 138 138 0 11 137 139 .000325 .0089 -.000325 29 139 139 0 13
 138 140 .000325 .0089 .000325 29 140 140 0 18 139 141 -.000325 -.0089 -.000325
 29 141 141 0 20 140 142 -.000325 .0089 -.000325 29 142 142 0 25 141 143 -.00032
5 -.0089 .000325 29 143 143 0 27 142 144 -.000325 .0089 .000325 29 144 144 0 36
 143 145 .0002 .0094 .0002 29 145 145 0 37 144 146 .0002 .0094 -.0002 29 146 146
 0 39 145 147 -.0002 .0094 -.0002 29 147 147 0 41 146 148 -.0002 .0094 .0002 29
 148 148 0 58 147 149 .0002 -.0094 .0002 29 149 149 0 59 148 150 .0002 -.0094 -.
0002 29 150 150 0 61 149 151 -.0002 -.0094 .0002 29 151 151 0 63 150 0 -.0002 -.
0094 -.0002 50 152 152 0 5 0 159 231 +.000325 .0094 .000325 -1 0 0 0 0 1 80 1 15
3 0 154 8001 0 0 0 0 3 5 0 0 FFFFTFTFFFFFFF2 79 15 154 SDL/TYSA_COLOUR81 1 155 1
55 153 5 0 0 0 160 158 70 156 156 3 0 0 4 2 20 4 157 157 1 T74 20 157 2 0 196 53
2 0 0 0 0 0 0 0 0 0 0 0 0 0 0 0 0 0 0 83 3 158 .8666666746139526 .90980392694473
27 1 50 159 159 0 15 152 162 267 +-.000325 .0094 -.000325 0 0 1 1 0 - 81 1 160 1
60 153 15 0 0 155 163 161 83 3 161 .8666666746139526 .9098039269447327 1 50 162
 162 0 22 159 165 303 +-.000325 .0094 .000325 1 - 0 0 0 -1 81 1 163 163 153 22 0
 0 160 166 164 83 3 164 .8666666746139526 .9098039269447327 1 50 165 165 0 29 16
2 168 339 +-.000325 .0094 .000325 0 0 -1 -1 0 - 81 1 166 166 153 29 0 0 163 169
 167 83 3 167 .8666666746139526 .9098039269447327 1 50 168 168 0 33 165 171 407
 +- .0094 - 0 -1 0 0 - -1 81 1 169 169 153 33 0 0 166 172 170 83 3 170 .86666667
46139526 .9098039269447327 1 50 171 171 0 43 168 174 393 +-.002399999999999999 .
0005999999999999993 - .970142500145332 -.2425356250363328 0 .2425356250363328 .9
70142500145332 0 81 1 172 172 153 43 0 0 169 175 173 83 3 173 .8666666746139526
 .9098039269447327 1 50 174 174 0 47 171 177 375 +- .0005999999999999987 -.00239
9999999999998 0 -.2425356250363327 .970142500145332 0 -.970142500145332 -.242535
6250363327 81 1 175 175 153 47 0 0 172 178 176 83 3 176 .8666666746139526 .90980
39269447327 1 50 177 177 0 50 174 180 411 +- .000599999999999999 .00239999999999
9999 0 -.2425356250363328 -.970142500145332 0 .970142500145332 -.242535625036332
8 81 1 178 178 153 50 0 0 175 181 179 83 3 179 .8666666746139526 .90980392694473
27 1 50 180 180 0 53 177 183 357 +.002399999999999998 .0005999999999999987 0 -.9
701425001453321 -.2425356250363327 0 .2425356250363327 -.9701425001453321 0 81 1
 181 181 153 53 0 0 178 184 182 83 3 182 .8666666746139526 .9098039269447327 1 5
0 183 183 0 55 180 186 483 +0 -.0094 0 0 1 0 0 0 -1 81 1 184 184 153 55 0 0 181
 187 185 83 3 185 .8666666746139526 .9098039269447327 1 50 186 186 0 65 183 189
 461 +-.002399999999999999 -.0005999999999999993 0 .970142500145332 .24253562503
63328 0 .2425356250363328 -.970142500145332 0 81 1 187 187 153 65 0 0 184 190 18
8 83 3 188 .8666666746139526 .9098039269447327 1 50 189 189 0 69 186 192 479 +0
 -.0005999999999999987 -.002399999999999998 0 .2425356250363327 .970142500145332
 0 .970142500145332 -.2425356250363327 81 1 190 190 153 69 0 0 187 193 191 83 3
 191 .8666666746139526 .9098039269447327 1 50 192 192 0 72 189 195 443 +0 -.0005
99999999999999 .002399999999999999 0 .2425356250363328 -.970142500145332 0 -.970
142500145332 -.2425356250363328 81 1 193 193 153 72 0 0 190 196 194 83 3 194 .86
66666746139526 .9098039269447327 1 50 195 195 0 75 192 0 425 +.00239999999999999
8 -.0005999999999999987 0 -.9701425001453321 .2425356250363327 0 .24253562503633
27 .9701425001453321 0 81 1 196 196 153 75 0 0 193 0 197 83 3 197 .8666666746139
526 .9098039269447327 1 134 198 0 0 0 0 0 0 +199 0 136 199 1 2 2 2 1 FFF1 200 20
1 202 45 4 200 0 -.0183 -.00065 -.0183 127 2 201 2 2 128 2 202 0 1 134 203 0 0 0
 0 0 0 +204 0 136 204 1 2 2 2 1 FFF1 205 206 207 45 4 205 -.008555444173156648 .
000325 -.008555444173156648 -.000325 127 2 206 2 2 128 2 207 0 1 137 208 208 0 3
 0 210 211 +152 198 0 ?141 209 208 231 231 152 133 210 210 0 80 208 212 0 +208 .
000325 -.0089 .000325 .000325 -.0089 -.000325 0 1 141 211 210 211 211 208 137 21
2 212 0 3 210 214 215 +195 203 0 ?141 213 212 425 425 195 133 214 214 0 133 212
 226 0 +212 .0003250000000000002 -.008900000000000002 -.000325 .0003250000000000
002 -.008900000000000002 .000325 0 1 141 215 214 215 215 212 134 216 0 0 0 0 0 0
 +217 0 136 217 1 2 2 2 1 FFF1 218 219 220 45 4 218 -.008555444173156648 .000325
 -.008555444173156648 -.000325 127 2 219 2 2 128 2 220 0 1 134 221 0 0 0 0 0 0 +
222 0 136 222 1 2 2 2 1 FFF1 223 224 225 45 4 223 -.00065 -.0005000000000000004
 0 -.0005000000000000004 127 2 224 2 2 128 2 225 0 1 137 226 226 0 3 214 228 229
 +180 216 0 ?141 227 226 357 357 180 133 228 228 0 115 226 230 0 +226 .000325000
0000000002 .008900000000000002 .000325 .0003250000000000002 .008900000000000002
 -.000325 0 1 141 229 228 229 229 226 137 230 230 0 3 228 232 233 +152 221 0 ?14
1 231 230 209 209 152 133 232 232 0 82 230 244 0 +230 .000325 .0089 -.000325 .00
0325 .0089 .000325 0 1 141 233 232 233 233 230 134 234 0 0 0 0 0 0 +235 0 136 23
5 1 2 2 2 1 FFF1 236 237 238 45 4 236 .00065 -.0183 0 -.0183 127 2 237 2 2 128 2
 238 0 1 134 239 0 0 0 0 0 0 +240 0 136 240 1 2 2 2 1 FFF1 241 242 243 45 4 241
 -.008555444173156646 .000325 -.008555444173156646 -.000325 127 2 242 2 2 128 2
 243 0 1 137 244 244 0 3 232 246 247 +159 234 0 ?141 245 244 267 267 159 133 246
 246 0 84 244 248 0 +244 .000325 -.0089 -.000325 -.000325 -.0089 -.000325 0 1 14
1 247 246 247 247 244 137 248 248 0 3 246 250 251 +189 239 0 ?141 249 248 479 47
9 189 133 250 250 0 125 248 262 0 +248 -.000325 -.0089 -.0003249999999999998 .00
0325 -.0089 -.0003249999999999998 0 1 141 251 250 251 251 248 134 252 0 0 0 0 0
 0 +253 0 136 253 1 2 2 2 1 FFF1 254 255 256 45 4 254 -.008555444173156646 .0003
25 -.008555444173156646 -.000325 127 2 255 2 2 128 2 256 0 1 134 257 0 0 0 0 0 0
 +258 0 136 258 1 2 2 2 1 FFF1 259 260 261 45 4 259 0 -.0005000000000000004 .000
65 -.0005000000000000004 127 2 260 2 2 128 2 261 0 1 137 262 262 0 3 250 264 265
 +174 252 0 ?141 263 262 375 375 174 133 264 264 0 107 262 266 0 +262 .000325 .0
089 -.0003249999999999998 -.000325 .0089 -.0003249999999999998 0 1 141 265 264 2
65 265 262 137 266 266 0 3 264 268 269 +159 257 0 ?141 267 266 245 245 159 133 2
68 268 0 86 266 280 0 +266 -.000325 .0089 -.000325 .000325 .0089 -.000325 0 1 14
1 269 268 269 269 266 134 270 0 0 0 0 0 0 +271 0 136 271 1 2 2 2 1 FFF1 272 273
 274 45 4 272 .00065 -.0183 0 -.0183 127 2 273 2 2 128 2 274 0 1 134 275 0 0 0 0
 0 0 +276 0 136 276 1 2 2 2 1 FFF1 277 278 279 45 4 277 .008555444173156646 -.00
0325 .008555444173156646 .000325 127 2 278 2 2 128 2 279 0 1 137 280 280 0 3 268
 282 283 +162 270 0 ?141 281 280 303 303 162 133 282 282 0 88 280 284 0 +280 -.0
00325 -.0089 -.000325 -.000325 -.0089 .000325 0 1 141 283 282 283 283 280 137 28
4 284 0 3 282 286 287 +186 275 0 ?141 285 284 461 461 186 133 286 286 0 121 284
 298 0 +284 -.0003250000000000002 -.008900000000000002 .000325 -.000325000000000
0002 -.008900000000000002 -.000325 0 1 141 287 286 287 287 284 134 288 0 0 0 0 0
 0 +289 0 136 289 1 2 2 2 1 FFF1 290 291 292 45 4 290 .008555444173156646 -.0003
25 .008555444173156646 .000325 127 2 291 2 2 128 2 292 0 1 134 293 0 0 0 0 0 0 +
294 0 136 294 1 2 2 2 1 FFF1 295 296 297 45 4 295 0 -.0005000000000000004 .00065
 -.0005000000000000004 127 2 296 2 2 128 2 297 0 1 137 298 298 0 3 286 300 301 +
171 288 0 ?141 299 298 393 393 171 133 300 300 0 103 298 302 0 +298 -.0003250000
000000002 .008900000000000002 -.000325 -.0003250000000000002 .008900000000000002
 .000325 0 1 141 301 300 301 301 298 137 302 302 0 3 300 304 305 +162 293 0 ?141
 303 302 281 281 162 133 304 304 0 90 302 316 0 +302 -.000325 .0089 .000325 -.00
0325 .0089 -.000325 0 1 141 305 304 305 305 302 134 306 0 0 0 0 0 0 +307 0 136 3
07 1 2 2 2 1 FFF1 308 309 310 45 4 308 0 -.0183 -.00065 -.0183 127 2 309 2 2 128
 2 310 0 1 134 311 0 0 0 0 0 0 +312 0 136 312 1 2 2 2 1 FFF1 313 314 315 45 4 31
3 .008555444173156649 -.000325 .008555444173156649 .000325 127 2 314 2 2 128 2 3
15 0 1 137 316 316 0 3 304 318 319 +165 306 0 ?141 317 316 339 339 165 133 318 3
18 0 92 316 320 0 +316 -.000325 -.0089 .000325 .000325 -.0089 .000325 0 1 141 31
9 318 319 319 316 137 320 320 0 3 318 322 323 +192 311 0 ?141 321 320 443 443 19
2 133 322 322 0 129 320 334 0 +320 .000325 -.008900000000000002 .000324999999999
9993 -.000325 -.008900000000000002 .0003249999999999993 0 1 141 323 322 323 323
 320 134 324 0 0 0 0 0 0 +325 0 136 325 1 2 2 2 1 FFF1 326 327 328 45 4 326 .008
555444173156649 -.000325 .008555444173156649 .000325 127 2 327 2 2 128 2 328 0 1
 134 329 0 0 0 0 0 0 +330 0 136 330 1 2 2 2 1 FFF1 331 332 333 45 4 331 -.00065
 -.0005000000000000004 0 -.0005000000000000004 127 2 332 2 2 128 2 333 0 1 137 3
34 334 0 3 322 336 337 +177 324 0 ?141 335 334 411 411 177 133 336 336 0 111 334
 338 0 +334 -.000325 .008900000000000002 .0003249999999999993 .000325 .008900000
000000002 .0003249999999999993 0 1 141 337 336 337 337 334 137 338 338 0 3 336 3
40 341 +165 329 0 ?141 339 338 317 317 165 133 340 340 0 94 338 352 0 +338 .0003
25 .0089 .000325 -.000325 .0089 .000325 0 1 141 341 340 341 341 338 134 342 0 0
 0 0 0 0 +343 0 136 343 1 2 2 2 1 FFF1 344 345 346 45 4 344 -.0002 .0002 .0002 .
0002 127 2 345 2 2 128 2 346 0 1 134 347 0 0 0 0 0 0 +348 0 136 348 1 2 2 2 1 FF
F1 349 350 351 45 4 349 -.009070832376358855 -.0002 -.009070832376358855 .0002 1
27 2 350 2 2 128 2 351 0 1 137 352 352 0 3 340 354 355 +168 342 0 ?141 353 352 3
71 407 168 133 354 354 0 96 352 356 0 +352 .0002 .0094 .0002 .0002 .0094 -.0002
 0 1 141 355 354 355 355 352 137 356 356 0 3 354 358 359 +180 347 0 ?141 357 356
 227 227 180 133 358 358 0 113 356 370 0 +356 .0002000000000000005 .009400000000
000002 -.0002 .0002000000000000005 .009400000000000002 .0002 0 1 141 359 358 359
 359 356 134 360 0 0 0 0 0 0 +361 0 136 361 1 2 2 2 1 FFF1 362 363 364 45 4 362
 .0002 .0002 .0002 -.0002 127 2 363 2 2 128 2 364 0 1 134 365 0 0 0 0 0 0 +366 0
 136 366 1 2 2 2 1 FFF1 367 368 369 45 4 367 -.009070832376358855 -.0002 -.00907
0832376358855 .0002 127 2 368 2 2 128 2 369 0 1 137 370 370 0 3 358 372 373 +168
 360 0 ?141 371 370 389 353 168 133 372 372 0 97 370 374 0 +370 .0002 .0094 -.00
02 -.0002 .0094 -.0002 0 1 141 373 372 373 373 370 137 374 374 0 3 372 376 377 +
174 365 0 ?141 375 374 263 263 174 133 376 376 0 105 374 388 0 +374 -.0002 .0094
 -.0001999999999999997 .0002 .0094 -.0001999999999999997 0 1 141 377 376 377 377
 374 134 378 0 0 0 0 0 0 +379 0 136 379 1 2 2 2 1 FFF1 380 381 382 45 4 380 .000
2 -.0002 -.0002 -.0002 127 2 381 2 2 128 2 382 0 1 134 383 0 0 0 0 0 0 +384 0 13
6 384 1 2 2 2 1 FFF1 385 386 387 45 4 385 .009070832376358855 .0002 .00907083237
6358855 -.0002000000000000002 127 2 386 2 2 128 2 387 0 1 137 388 388 0 3 376 39
0 391 +168 378 0 ?141 389 388 407 371 168 133 390 390 0 98 388 392 0 +388 -.0002
 .0094 -.0002 -.0002 .0094 .0002 0 1 141 391 390 391 391 388 137 392 392 0 3 390
 394 395 +171 383 0 ?141 393 392 299 299 171 133 394 394 0 101 392 406 0 +392 -.
0001999999999999997 .009400000000000002 .0002 -.0001999999999999997 .00940000000
0000002 -.0002000000000000002 0 1 141 395 394 395 395 392 134 396 0 0 0 0 0 0 +3
97 0 136 397 1 2 2 2 1 FFF1 398 399 400 45 4 398 -.0002 -.0002 -.0002 .0002 127
 2 399 2 2 128 2 400 0 1 134 401 0 0 0 0 0 0 +402 0 136 402 1 2 2 2 1 FFF1 403 4
04 405 45 4 403 .009070832376358856 .0002 .009070832376358856 -.0002 127 2 404 2
 2 128 2 405 0 1 137 406 406 0 3 394 408 409 +168 396 0 ?141 407 406 353 389 168
 133 408 408 0 99 406 410 0 +406 -.0002 .0094 .0002 .0002 .0094 .0002 0 1 141 40
9 408 409 409 406 137 410 410 0 3 408 412 413 +177 401 0 ?141 411 410 335 335 17
7 133 412 412 0 109 410 424 0 +410 .0002 .009400000000000002 .000199999999999999
7 -.0002 .009400000000000002 .0001999999999999997 0 1 141 413 412 413 413 410 13
4 414 0 0 0 0 0 0 +415 0 136 415 1 2 2 2 1 FFF1 416 417 418 45 4 416 -.009070832
376358855 -.0002 -.009070832376358855 .0002 127 2 417 2 2 128 2 418 0 1 134 419
 0 0 0 0 0 0 +420 0 136 420 1 2 2 2 1 FFF1 421 422 423 45 4 421 .0002 -.0002 -.0
002 -.0002 127 2 422 2 2 128 2 423 0 1 137 424 424 0 3 412 426 427 +195 414 0 ?1
41 425 424 213 213 195 133 426 426 0 135 424 428 0 +424 .0002000000000000005 -.0
09400000000000002 .0002 .0002000000000000005 -.009400000000000002 -.0002 0 1 141
 427 426 427 427 424 137 428 428 0 3 426 430 431 +183 419 0 ?141 429 428 447 483
 183 133 430 430 0 116 428 442 0 +428 .0002 -.0094 -.0002 .0002 -.0094 .0002 0 1
 141 431 430 431 431 428 134 432 0 0 0 0 0 0 +433 0 136 433 1 2 2 2 1 FFF1 434 4
35 436 45 4 434 .009070832376358856 .0002 .009070832376358856 -.0002 127 2 435 2
 2 128 2 436 0 1 134 437 0 0 0 0 0 0 +438 0 136 438 1 2 2 2 1 FFF1 439 440 441 4
5 4 439 -.0002 -.0002 -.0002 .0002 127 2 440 2 2 128 2 441 0 1 137 442 442 0 3 4
30 444 445 +192 432 0 ?141 443 442 321 321 192 133 444 444 0 131 442 446 0 +442
 -.0002 -.009400000000000002 .0001999999999999997 .0002 -.009400000000000002 .00
01999999999999997 0 1 141 445 444 445 445 442 137 446 446 0 3 444 448 449 +183 4
37 0 ?141 447 446 465 429 183 133 448 448 0 117 446 460 0 +446 .0002 -.0094 .000
2 -.0002 -.0094 .0002 0 1 141 449 448 449 449 446 134 450 0 0 0 0 0 0 +451 0 136
 451 1 2 2 2 1 FFF1 452 453 454 45 4 452 .009070832376358855 .000200000000000000
2 .009070832376358855 -.0002 127 2 453 2 2 128 2 454 0 1 134 455 0 0 0 0 0 0 +45
6 0 136 456 1 2 2 2 1 FFF1 457 458 459 45 4 457 -.0002 .0002 .0002 .0002 127 2 4
58 2 2 128 2 459 0 1 137 460 460 0 3 448 462 463 +186 450 0 ?141 461 460 285 285
 186 133 462 462 0 123 460 464 0 +460 -.0001999999999999997 -.009400000000000002
 -.0002000000000000002 -.0001999999999999997 -.009400000000000002 .0002 0 1 141
 463 462 463 463 460 137 464 464 0 3 462 466 467 +183 455 0 ?141 465 464 483 447
 183 133 466 466 0 118 464 478 0 +464 -.0002 -.0094 .0002 -.0002 -.0094 -.0002 0
 1 141 467 466 467 467 464 134 468 0 0 0 0 0 0 +469 0 136 469 1 2 2 2 1 FFF1 470
 471 472 45 4 470 -.009070832376358855 -.0002 -.009070832376358855 .0002 127 2 4
71 2 2 128 2 472 0 1 134 473 0 0 0 0 0 0 +474 0 136 474 1 2 2 2 1 FFF1 475 476 4
77 45 4 475 .0002 .0002 .0002 -.0002 127 2 476 2 2 128 2 477 0 1 137 478 478 0 3
 466 480 481 +189 468 0 ?141 479 478 249 249 189 133 480 480 0 127 478 482 0 +47
8 .0002 -.0094 -.0001999999999999997 -.0002 -.0094 -.0001999999999999997 0 1 141
 481 480 481 481 478 137 482 482 0 3 480 484 485 +183 473 0 ?141 483 482 429 465
 183 133 484 484 0 119 482 486 0 +482 -.0002 -.0094 -.0002 .0002 -.0094 -.0002 0
 1 141 485 484 485 485 482 30 486 486 0 3 484 487 488 +.000325 .0094 -.000325 0
 -1 0 133 487 487 0 10 486 489 0 +486 .000325 .0089 -.000325 .000325 -.0089 -.00
0325 .0005000000000000004 .0183 141 488 487 488 488 486 30 489 489 0 3 487 490 4
91 +.000325 .0094 .000325 0 -1 0 133 490 490 0 14 489 492 0 +489 .000325 .0089 .
000325 .000325 -.0089 .000325 .0005000000000000004 .0183 141 491 490 491 491 489
 30 492 492 0 3 490 493 494 +-.000325 .0094 -.000325 0 -1 0 133 493 493 0 19 492
 495 0 +492 -.000325 .0089 -.000325 -.000325 -.0089 -.000325 .000500000000000000
4 .0183 141 494 493 494 494 492 30 495 495 0 3 493 496 497 +-.000325 .0094 .0003
25 0 -1 0 133 496 496 0 26 495 498 0 +495 -.000325 .0089 .000325 -.000325 -.0089
 .000325 .0005000000000000004 .0183 141 497 496 497 497 495 30 498 498 0 35 496
 499 0 +.0002 .0094 .0002 0 0 -1 30 499 499 0 38 498 500 0 +-.0002 .0094 -.0002
 -1 0 - 30 500 500 0 40 499 501 0 +-.0002 .0094 .0002 0 - 1 30 501 501 0 42 500
 502 0 +-.0002 .0094 .0002 1 0 - 30 502 502 0 3 501 503 504 +-.000325 .0089 .000
325 .2357022603955157 .9428090415820635 -.2357022603955156 133 503 503 0 45 502
 505 0 +502 -.000325 .0089 .000325 -.0002 .0094 .0002 0 .000530330085889911 141
 504 503 504 504 502 30 505 505 0 3 503 506 507 +-.000325 .0089 -.000325 .235702
2603955157 .9428090415820636 .2357022603955156 133 506 506 0 46 505 508 0 +505 -
.000325 .0089 -.000325 -.0002 .0094 -.0002 0 .0005303300858899109 141 507 506 50
7 507 505 30 508 508 0 3 506 509 510 +.000325 .0089 -.000325 -.2357022603955155
 .9428090415820636 .2357022603955156 133 509 509 0 49 508 511 0 +508 .000325 .00
89 -.000325 .0002 .0094 -.0002 0 .000530330085889911 141 510 509 510 510 508 30
 511 511 0 3 509 512 513 +.000325 .0089 .000325 -.2357022603955155 .942809041582
0635 -.2357022603955156 133 512 512 0 52 511 514 0 +511 .000325 .0089 .000325 .0
002 .0094 .0002 0 .000530330085889911 141 513 512 513 513 511 30 514 514 0 57 51
2 515 0 +.0002 -.0094 .0002 0 0 -1 30 515 515 0 60 514 516 0 +-.0002 -.0094 .000
2 1 0 - 30 516 516 0 62 515 517 0 +-.0002 -.0094 .0002 0 0 1 30 517 517 0 64 516
 518 0 +-.0002 -.0094 -.0002 -1 0 0 30 518 518 0 3 517 519 520 +-.000325 -.0089
 .000325 .2357022603955157 -.9428090415820635 -.2357022603955156 133 519 519 0 6
7 518 521 0 +518 -.000325 -.0089 .000325 -.0002 -.0094 .0002 0 .0005303300858899
11 141 520 519 520 520 518 30 521 521 0 3 519 522 523 +-.000325 -.0089 -.000325
 .2357022603955157 -.9428090415820636 .2357022603955156 133 522 522 0 68 521 524
 0 +521 -.000325 -.0089 -.000325 -.0002 -.0094 -.0002 0 .0005303300858899109 141
 523 522 523 523 521 30 524 524 0 3 522 525 526 +.000325 -.0089 -.000325 -.23570
22603955155 -.9428090415820636 .2357022603955156 133 525 525 0 71 524 527 0 +524
 .000325 -.0089 -.000325 .0002 -.0094 -.0002 0 .000530330085889911 141 526 525 5
26 526 524 30 527 527 0 3 525 528 529 +.000325 -.0089 .000325 -.2357022603955155
 -.9428090415820635 -.2357022603955156 133 528 528 0 74 527 0 0 +527 .000325 -.0
089 .000325 .0002 -.0094 .0002 0 .000530330085889911 141 529 528 529 529 527 80
 1 530 153 531 9000 0 0 0 0 3 6 0 0 TFTTTTTTFFFFTT3 79 25 531 H3DX_BRIDGE/PERSIS
TENT_ID81 1 532 532 530 3 0 0 0 0 533 84 3 533 10411 534 534 0 1 3 0 2 0 0 0 0 8
1 1 535 535 530 2 0 541 0 0 538 70 536 536 2 0 0 4 2 20 4 537 537 1 T74 20 537 2
 0 535 541 0 0 0 0 0 0 0 0 0 0 0 0 0 0 0 0 0 0 84 10 538 149320533280 1 539 530
 540 8017 0 0 0 0 0 0 0 0 TTTTTTTTTTTTTF3 79 13 540 SDL/TYSA_NAME81 1 541 541 53
9 2 535 0 0 0 542 84 7 542 Default100 543 543 544 0 0 1 0 0 0 1 0 0 0 1 0 0 0 1
 0 ?11 544 544 0 1 2 543 1 0 0 0 0 81 1 545 545 530 1 0 549 0 0 548 70 546 546 1
 0 0 4 2 20 4 547 547 1 T74 20 547 2 0 545 549 0 0 0 0 0 0 0 0 0 0 0 0 0 0 0 0 0
 0 84 10 548 149320533281 1 549 549 539 1 545 0 0 0 550 84 3 550 Pin1 0 