**ABCDEFGHIJKLMNOPQRSTUVWXYZabcdefghijklmnopqrstuvwxyz**************************
**PARASOLID !"#$%&'()*+,-./:;<=>?@[\]^_`{|}~0123456789**************************
**PART1;
MC=unknown;
MC_MODEL=unknown;
MC_ID=unknown;
OS=unknown;
OS_RELEASE=unknown;
FRU=unknown;
APPL=File generated by HOOPS Exchange Version 10.0.12;
SITE=unknown;
USER=unknown;
FORMAT=text;
GUISE=transmit;
KEY=Socket;
FILE=c:\tempstorage\0197424909054022\Socket.SLDPRT.x_t;
DATE=unknown;
**PART2;
SCH=SCH_1100000_11004;
USFLD_SIZE=0;
**PART3;
**END_OF_HEADER*****************************************************************
T51 : TRANSMIT FILE created by modeller version 110000017 SCH_1100000_110040 10
 1 896 896 893 0 0 0 0 0 1e3 1e-008 0 0 0 1 0 1 877 10 2 874 874 869 0 0 0 0 0 1
e3 1e-008 877 0 0 1 0 1 867 12 3 865 865 622 0 0 0 0 1e3 1e-008 867 0 0 1 0 1 1
 297 740 862 617 295 290 283 13 4 4 0 0 0 0 0 0 295 5 14 5 5 621 ?49 0 6 297 618
 -0 0 49 0 4 15 6 6 0 298 5 15 16 7 7 0 ?501 10 0 743 0 0 3 18 8 8 0 521 11 0 53
8 ?3 18 9 9 0 508 17 13 539 ?3 16 10 10 0 ?521 12 7 744 0 0 3 18 11 11 0 520 13
 8 540 ?3 16 12 12 0 ?512 14 10 745 0 0 3 18 13 13 0 511 9 11 541 ?3 16 14 14 0
 ?509 16 12 746 0 0 3 15 15 15 0 302 5 40 16 16 16 0 ?480 19 14 747 0 0 3 18 17
 17 0 479 20 9 542 ?3 18 18 18 0 480 42 38 543 ?3 16 19 19 0 ?303 21 16 748 0 0
 3 18 20 20 0 414 22 17 544 ?3 16 21 21 0 ?304 23 19 749 0 0 3 18 22 22 0 449 24
 20 545 ?3 16 23 23 0 ?305 25 21 750 0 0 3 18 24 24 0 448 26 22 546 ?3 16 25 25
 0 ?306 27 23 751 0 0 3 18 26 26 0 405 28 24 547 ?3 16 27 27 0 ?307 29 25 752 0
 0 3 18 28 28 0 393 30 26 548 ?3 16 29 29 0 ?308 31 27 753 0 0 3 18 30 30 0 388
 32 28 549 ?3 16 31 31 0 ?388 33 29 754 0 0 3 18 32 32 0 402 34 30 550 ?3 16 33
 33 0 ?310 35 31 755 0 0 3 18 34 34 0 453 36 32 551 ?3 16 35 35 0 ?311 37 33 756
 0 0 3 18 36 36 0 452 38 34 552 ?3 16 37 37 0 ?312 39 35 757 0 0 3 18 38 38 0 41
7 18 36 553 ?3 16 39 39 0 ?319 41 37 758 0 0 3 15 40 40 0 314 5 0 16 41 41 0 ?50
5 44 39 759 0 0 3 18 42 42 0 528 45 18 554 ?3 18 43 43 0 524 54 47 555 ?3 16 44
 44 0 ?528 46 41 760 0 0 3 18 45 45 0 527 47 42 556 ?3 16 46 46 0 ?517 48 44 761
 0 0 3 18 47 47 0 525 43 45 557 ?3 16 48 48 0 ?525 51 46 762 0 0 3 14 49 49 626
 ?56 5 50 297 625 -158 158 56 5 4 15 50 50 0 318 49 0 16 51 51 0 ?481 53 48 763
 0 0 3 18 52 52 0 481 59 54 558 ?3 16 53 53 0 ?320 55 51 764 0 0 3 18 54 54 0 41
6 52 43 559 ?3 16 55 55 0 ?327 58 53 765 0 0 3 14 56 56 629 ?63 49 57 297 628 -1
63 163 63 49 4 15 57 57 0 322 56 0 16 58 58 0 ?479 60 55 766 0 0 3 18 59 59 0 47
8 61 52 560 ?3 16 60 60 0 ?323 62 58 767 0 0 3 18 61 61 0 415 70 59 561 ?3 16 62
 62 0 ?324 65 60 768 0 0 3 14 63 63 632 ?67 56 64 297 631 -168 168 67 56 4 15 64
 64 0 326 63 0 16 65 65 0 ?478 66 62 769 0 0 3 16 66 66 0 ?328 69 65 770 0 0 3 1
4 67 67 635 ?77 63 68 297 634 +201 201 77 63 4 15 68 68 0 330 67 0 16 69 69 0 ?4
47 72 66 771 0 0 3 18 70 70 0 446 73 61 562 ?3 18 71 71 0 447 81 75 563 ?3 16 72
 72 0 ?331 74 69 772 0 0 3 18 73 73 0 411 75 70 564 ?3 16 74 74 0 ?332 76 72 773
 0 0 3 18 75 75 0 408 71 73 565 ?3 16 76 76 0 ?333 79 74 774 0 0 3 14 77 77 638
 ?87 67 78 297 637 -118 118 87 67 4 15 78 78 0 334 77 0 16 79 79 0 ?334 82 76 77
5 0 0 3 18 80 80 0 376 91 85 566 ?3 18 81 81 0 398 83 71 567 ?3 16 82 82 0 ?398
 84 79 776 0 0 3 18 83 83 0 409 85 81 568 ?3 16 84 84 0 ?338 86 82 777 0 0 3 18
 85 85 0 377 80 83 569 ?3 16 86 86 0 ?377 89 84 778 0 0 3 14 87 87 641 ?99 77 88
 297 640 -0 0 99 77 4 15 88 88 0 338 87 0 16 89 89 0 ?409 90 86 779 0 0 3 16 90
 90 0 ?341 92 89 780 0 0 3 18 91 91 0 410 93 80 570 ?3 16 92 92 0 ?342 94 90 781
 0 0 3 18 93 93 0 382 95 91 571 ?3 16 94 94 0 ?343 96 92 782 0 0 3 18 95 95 0 38
5 97 93 572 ?3 16 96 96 0 ?349 98 94 783 0 0 3 18 97 97 0 374 102 95 573 ?3 16 9
8 98 0 ?374 101 96 784 0 0 3 14 99 99 644 ?106 87 100 297 643 -0 0 106 87 4 15 1
00 100 0 346 99 0 16 101 101 0 ?346 103 98 785 0 0 3 18 102 102 0 384 104 97 574
 ?3 16 103 103 0 ?354 105 101 786 0 0 3 18 104 104 0 375 109 102 575 ?3 16 105 1
05 0 ?375 108 103 787 0 0 3 14 106 106 647 ?118 99 107 297 646 -0 0 118 99 4 15
 107 107 0 350 106 0 16 108 108 0 ?440 111 105 788 0 0 3 18 109 109 0 439 114 10
4 576 ?3 18 110 110 0 440 121 116 577 ?3 16 111 111 0 ?351 112 108 789 0 0 3 16
 112 112 0 ?376 113 111 790 0 0 3 16 113 113 0 ?355 115 112 791 0 0 3 18 114 114
 0 383 116 109 578 ?3 16 115 115 0 ?368 117 113 792 0 0 3 18 116 116 0 421 110 1
14 579 ?3 16 117 117 0 ?421 120 115 793 0 0 3 14 118 118 649 ?139 106 119 297 63
7 -77 77 139 106 4 15 119 119 0 358 118 128 16 120 120 0 ?466 123 117 794 0 0 3
 18 121 121 0 469 124 110 580 ?3 18 122 122 0 466 130 126 581 ?3 16 123 123 0 ?4
54 125 120 795 0 0 3 18 124 124 0 458 126 121 582 ?3 16 125 125 0 ?360 127 123 7
96 0 0 3 18 126 126 0 462 122 124 583 ?3 16 127 127 0 ?361 129 125 797 0 0 3 15
 128 128 0 362 118 0 16 129 129 0 ?410 131 127 798 0 0 3 18 130 130 0 426 132 12
2 584 ?3 16 131 131 0 ?426 133 129 799 0 0 3 18 132 132 0 430 134 130 585 ?3 16
 133 133 0 ?430 135 131 800 0 0 3 18 134 134 0 434 136 132 586 ?3 16 135 135 0 ?
434 137 133 801 0 0 3 18 136 136 0 437 142 134 587 ?3 16 137 137 0 ?422 138 135
 802 0 0 3 16 138 138 0 ?369 141 137 803 0 0 3 14 139 139 652 ?147 118 140 297 6
51 -0 0 147 118 4 15 140 140 0 370 139 146 16 141 141 0 ?397 144 138 804 0 0 3 1
8 142 142 0 396 143 136 588 ?3 18 143 143 0 397 150 142 589 ?3 16 144 144 0 ?389
 145 141 805 0 0 3 16 145 145 0 ?393 149 144 806 0 0 3 15 146 146 0 374 139 0 14
 147 147 655 ?158 139 148 297 654 +0 0 158 139 4 15 148 148 0 378 147 157 16 149
 149 0 ?482 152 145 807 0 0 3 18 150 150 0 486 153 143 590 ?3 18 151 151 0 497 1
61 155 591 ?3 16 152 152 0 ?486 154 149 808 0 0 3 18 153 153 0 490 155 150 592 ?
3 16 154 154 0 ?490 156 152 809 0 0 3 18 155 155 0 494 151 153 593 ?3 16 156 156
 0 ?494 160 154 810 0 0 3 15 157 157 0 382 147 0 14 158 158 657 ?163 147 159 297
 625 -49 49 163 147 4 15 159 159 0 386 158 0 16 160 160 0 ?396 162 156 811 0 0 3
 18 161 161 0 403 166 151 594 ?3 16 162 162 0 ?387 165 160 812 0 0 3 14 163 163
 659 ?168 158 164 297 628 -56 56 168 158 4 15 164 164 0 390 163 0 16 165 165 0 ?
391 167 162 813 0 0 3 18 166 166 0 404 174 161 595 ?3 16 167 167 0 ?392 170 165
 814 0 0 3 14 168 168 661 ?171 163 169 297 631 -63 63 171 163 4 15 169 169 0 394
 168 0 16 170 170 0 ?395 173 167 815 0 0 3 14 171 171 664 ?177 168 172 297 663 -
0 0 177 168 4 15 172 172 0 398 171 0 16 173 173 0 ?439 175 170 816 0 0 3 18 174
 174 0 450 181 166 596 ?3 16 175 175 0 ?450 176 173 817 0 0 3 16 176 176 0 ?407
 179 175 818 0 0 3 14 177 177 667 ?188 171 178 297 666 -0 0 188 171 4 15 178 178
 0 410 177 0 16 179 179 0 ?446 180 176 819 0 0 3 16 180 180 0 ?419 182 179 820 0
 0 3 18 181 181 0 451 184 174 597 ?3 16 182 182 0 ?441 183 180 821 0 0 3 16 183
 183 0 ?437 185 182 822 0 0 3 18 184 184 0 442 186 181 598 ?3 16 185 185 0 ?424
 187 183 823 0 0 3 18 186 186 0 445 191 184 599 ?3 16 187 187 0 ?425 190 185 824
 0 0 3 14 188 188 670 ?193 177 189 297 669 -0 0 193 177 4 15 189 189 0 426 188 0
 16 190 190 0 ?445 192 187 825 0 0 3 18 191 191 0 444 196 186 600 ?3 16 192 192
 0 ?429 195 190 826 0 0 3 14 193 193 673 ?198 188 194 297 672 -0 0 198 188 4 15
 194 194 0 430 193 0 16 195 195 0 ?444 197 192 827 0 0 3 18 196 196 0 443 213 19
1 601 ?3 16 197 197 0 ?433 200 195 828 0 0 3 14 198 198 676 ?201 193 199 297 675
 -0 0 201 193 4 15 199 199 0 434 198 0 16 200 200 0 ?443 203 197 829 0 0 3 14 20
1 201 678 ?204 198 202 297 634 +67 67 204 198 4 15 202 202 0 438 201 0 16 203 20
3 0 ?451 212 200 830 0 0 3 14 204 204 681 ?206 201 205 297 680 -0 0 206 201 4 15
 205 205 0 442 204 0 14 206 206 684 ?208 204 207 297 683 -0 0 208 204 4 15 207 2
07 0 446 206 0 14 208 208 687 ?210 206 209 297 686 -0 0 210 206 4 15 209 209 0 4
50 208 0 14 210 210 690 ?217 208 211 297 689 -0 0 217 208 4 15 211 211 0 454 210
 0 16 212 212 0 ?469 214 203 831 0 0 3 18 213 213 0 470 215 196 602 ?3 16 214 21
4 0 ?470 216 212 832 0 0 3 18 215 215 0 473 220 213 603 ?3 16 216 216 0 ?457 219
 214 833 0 0 3 14 217 217 693 ?222 210 218 297 692 +0 0 222 210 4 15 218 218 0 4
58 217 0 16 219 219 0 ?460 221 216 834 0 0 3 18 220 220 0 472 225 215 604 ?3 16
 221 221 0 ?461 224 219 835 0 0 3 14 222 222 696 ?227 217 223 297 695 -0 0 227 2
17 4 15 223 223 0 462 222 0 16 224 224 0 ?464 226 221 836 0 0 3 18 225 225 0 471
 236 220 605 ?3 16 226 226 0 ?465 229 224 837 0 0 3 14 227 227 699 ?230 222 228
 297 698 -0 0 230 222 4 15 228 228 0 466 227 0 16 229 229 0 ?471 234 226 838 0 0
 3 14 230 230 702 ?232 227 231 297 701 +0 0 232 227 4 15 231 231 0 470 230 0 14
 232 232 705 ?243 230 233 297 704 +0 0 243 230 4 15 233 233 0 474 232 242 16 234
 234 0 ?474 237 229 839 0 0 3 18 235 235 0 487 258 240 606 ?3 18 236 236 0 496 2
38 225 607 ?3 16 237 237 0 ?475 239 234 840 0 0 3 18 238 238 0 495 240 236 608 ?
3 16 239 239 0 ?476 241 237 841 0 0 3 18 240 240 0 491 235 238 609 ?3 16 241 241
 0 ?477 245 239 842 0 0 3 15 242 242 0 478 232 0 14 243 243 708 ?247 232 244 297
 707 -0 0 247 232 4 15 244 244 0 482 243 0 16 245 245 0 ?497 246 241 843 0 0 3 1
6 246 246 0 ?485 249 245 844 0 0 3 14 247 247 711 ?250 243 248 297 710 -0 0 250
 243 4 15 248 248 0 486 247 0 16 249 249 0 ?489 252 246 845 0 0 3 14 250 250 714
 ?253 247 251 297 713 -0 0 253 247 4 15 251 251 0 490 250 0 16 252 252 0 ?493 25
7 249 846 0 0 3 14 253 253 717 ?255 250 254 297 716 -0 0 255 250 4 15 254 254 0
 494 253 0 14 255 255 720 ?262 253 256 297 719 -0 0 262 253 4 15 256 256 0 498 2
55 0 16 257 257 0 ?508 259 252 847 0 0 3 18 258 258 0 534 260 235 610 ?3 16 259
 259 0 ?534 261 257 848 0 0 3 18 260 260 0 537 265 258 611 ?3 16 261 261 0 ?500
 264 259 849 0 0 3 14 262 262 723 ?272 255 263 297 722 -0 0 272 255 4 15 263 263
 0 502 262 0 16 264 264 0 ?511 266 261 850 0 0 3 18 265 265 0 530 267 260 612 ?3
 16 266 266 0 ?503 268 264 851 0 0 3 18 267 267 0 533 270 265 613 ?3 16 268 268
 0 ?504 269 266 852 0 0 3 16 269 269 0 ?524 271 268 853 0 0 3 18 270 270 0 535 2
75 267 614 ?3 16 271 271 0 ?535 274 269 854 0 0 3 14 272 272 726 ?277 262 273 29
7 725 -0 0 277 262 4 15 273 273 0 510 272 0 16 274 274 0 ?531 276 271 855 0 0 3
 18 275 275 0 531 280 270 615 ?3 16 276 276 0 ?520 279 274 856 0 0 3 14 277 277
 729 ?285 272 278 297 728 -0 0 285 272 4 15 278 278 0 514 277 0 16 279 279 0 ?53
7 281 276 857 0 0 3 18 280 280 0 536 283 275 616 ?3 16 281 281 0 ?516 282 279 85
8 0 0 3 16 282 282 0 ?527 284 281 859 0 0 3 18 283 283 0 532 0 280 617 ?3 16 284
 284 0 ?519 287 282 860 0 0 3 14 285 285 732 ?288 277 286 297 731 -0 0 288 277 4
 15 286 286 0 522 285 0 16 287 287 0 ?536 290 284 861 0 0 3 14 288 288 735 ?291
 285 289 297 734 -0 0 291 285 4 15 289 289 0 526 288 0 16 290 290 0 ?533 0 287 8
62 0 0 3 14 291 291 738 ?293 288 292 297 737 -0 0 293 288 4 15 292 292 0 530 291
 0 14 293 293 741 ?0 291 294 297 740 +0 0 0 291 4 15 294 294 0 534 293 0 19 295
 295 0 3 296 0 4 V19 296 296 0 3 0 295 297 S13 297 297 0 3 0 5 0 0 296 0 17 298
 0 6 299 301 8 501 7 0 0 -17 299 0 6 300 298 11 521 10 0 0 -17 300 0 6 301 299 1
3 512 12 0 0 -17 301 0 6 298 300 9 509 14 0 0 -17 302 0 15 303 313 17 480 16 0 0
 -17 303 0 15 304 302 20 325 19 0 0 +17 304 0 15 305 303 22 414 21 0 0 +17 305 0
 15 306 304 24 449 23 0 0 +17 306 0 15 307 305 26 406 25 0 0 +17 307 0 15 308 30
6 28 390 27 0 0 +17 308 0 15 309 307 30 372 29 0 0 +17 309 0 15 310 308 32 388 3
1 0 0 -17 310 0 15 311 309 34 402 33 0 0 +17 311 0 15 312 310 36 453 35 0 0 +17
 312 0 15 313 311 38 418 37 0 0 +17 313 0 15 302 312 18 319 39 0 0 -17 314 0 40
 315 317 42 505 41 0 0 -17 315 0 40 316 314 45 528 44 0 0 -17 316 0 40 317 315 4
7 517 46 0 0 -17 317 0 40 314 316 43 525 48 0 0 -17 318 0 50 319 321 18 481 51 0
 313 -17 319 0 50 320 318 38 313 39 0 312 +17 320 0 50 321 319 54 417 53 0 0 +17
 321 0 50 318 320 52 327 55 0 0 -17 322 0 57 323 325 59 479 58 0 0 -17 323 0 57
 324 322 61 329 60 0 0 +17 324 0 57 325 323 20 415 62 0 303 +17 325 0 57 322 324
 17 303 19 0 302 -17 326 0 64 327 329 52 478 65 0 321 -17 327 0 64 328 326 54 32
1 55 0 320 +17 328 0 64 329 327 61 416 66 0 323 +17 329 0 64 326 328 59 323 60 0
 322 -17 330 0 68 331 333 70 447 69 0 0 -17 331 0 68 332 330 73 412 72 0 0 +17 3
32 0 68 333 331 75 340 74 0 0 +17 333 0 68 330 332 71 408 76 0 0 +17 334 0 78 33
5 337 81 352 79 0 0 +17 335 0 78 336 334 83 398 82 0 0 -17 336 0 78 337 335 85 3
38 84 0 0 -17 337 0 78 334 336 80 377 86 0 0 -17 338 0 88 339 345 83 336 84 0 33
5 +17 339 0 88 340 338 75 409 89 0 332 -17 340 0 88 341 339 73 332 74 0 331 -17
 341 0 88 342 340 91 411 90 0 0 +17 342 0 88 343 341 93 362 92 0 0 +17 343 0 88
 344 342 95 382 94 0 0 +17 344 0 88 345 343 97 349 96 0 0 -17 345 0 88 338 344 8
5 374 98 0 336 -17 346 0 100 347 349 102 385 101 0 0 +17 347 0 100 348 346 104 3
54 103 0 0 -17 348 0 100 349 347 97 375 105 0 344 -17 349 0 100 346 348 95 344 9
6 0 343 +17 350 0 107 351 357 109 440 108 0 0 -17 351 0 107 352 350 81 399 111 0
 334 +17 352 0 107 353 351 80 334 79 0 337 -17 353 0 107 354 352 104 376 112 0 3
47 -17 354 0 107 355 353 102 347 103 0 346 +17 355 0 107 356 354 114 384 113 0 0
 +17 356 0 107 357 355 116 368 115 0 0 -17 357 0 107 350 356 110 421 117 0 0 -17
 358 0 119 359 361 121 466 120 0 0 -17 359 0 119 360 358 124 454 123 0 0 -17 360
 0 119 361 359 126 458 125 0 0 +17 361 0 119 358 360 122 462 127 0 0 +17 362 0 1
28 363 369 91 342 92 0 341 -17 363 0 128 364 362 130 410 129 0 0 -17 364 0 128 3
65 363 132 426 131 0 0 -17 365 0 128 366 364 134 430 133 0 0 -17 366 0 128 367 3
65 136 434 135 0 0 -17 367 0 128 368 366 116 422 137 0 356 -17 368 0 128 369 367
 114 356 115 0 355 +17 369 0 128 362 368 93 383 138 0 342 +17 370 0 140 371 373
 142 397 141 0 0 -17 371 0 140 372 370 30 389 144 0 308 -17 372 0 140 373 371 28
 308 29 0 307 -17 373 0 140 370 372 143 393 145 0 0 -17 374 0 146 375 377 97 345
 98 0 348 +17 375 0 146 376 374 104 348 105 0 353 +17 376 0 146 377 375 80 353 1
12 0 352 +17 377 0 146 374 376 85 337 86 0 345 +17 378 0 148 379 381 150 482 149
 0 0 -17 379 0 148 380 378 153 486 152 0 0 -17 380 0 148 381 379 155 490 154 0 0
 -17 381 0 148 378 380 151 494 156 0 0 -17 382 0 157 383 385 93 343 94 0 369 -17
 383 0 157 384 382 114 369 138 0 368 -17 384 0 157 385 383 102 355 113 0 354 -17
 385 0 157 382 384 95 346 101 0 349 -17 386 0 159 387 389 161 396 160 0 0 -17 38
7 0 159 388 386 32 403 162 0 309 +17 388 0 159 389 387 30 309 31 0 371 +17 389 0
 159 386 388 142 371 144 0 370 +17 390 0 164 391 393 26 307 27 0 306 -17 391 0 1
64 392 390 166 405 165 0 0 +17 392 0 164 393 391 143 394 167 0 373 +17 393 0 164
 390 392 28 373 145 0 372 +17 394 0 169 395 397 166 392 167 0 391 -17 395 0 169
 396 394 161 404 170 0 386 +17 396 0 169 397 395 142 386 160 0 389 +17 397 0 169
 394 396 143 370 141 0 392 +17 398 0 172 399 409 81 335 82 0 351 +17 399 0 172 4
00 398 109 351 111 0 350 -17 400 0 172 401 399 174 439 173 0 0 -17 401 0 172 402
 400 34 450 175 0 310 -17 402 0 172 403 401 32 310 33 0 387 -17 403 0 172 404 40
2 161 387 162 0 395 -17 404 0 172 405 403 166 395 170 0 394 -17 405 0 172 406 40
4 26 391 165 0 390 -17 406 0 172 407 405 24 306 25 0 305 -17 407 0 172 408 406 7
1 448 176 0 333 +17 408 0 172 409 407 75 333 76 0 339 -17 409 0 172 398 408 83 3
39 89 0 338 +17 410 0 178 411 425 91 363 129 0 362 +17 411 0 178 412 410 73 341
 90 0 340 -17 412 0 178 413 411 70 331 72 0 330 -17 413 0 178 414 412 22 446 179
 0 304 -17 414 0 178 415 413 20 304 21 0 324 -17 415 0 178 416 414 61 324 62 0 3
28 -17 416 0 178 417 415 54 328 66 0 327 -17 417 0 178 418 416 38 320 53 0 319 -
17 418 0 178 419 417 36 312 37 0 311 -17 419 0 178 420 418 181 452 180 0 0 +17 4
20 0 178 421 419 110 441 182 0 357 -17 421 0 178 422 420 116 357 117 0 367 +17 4
22 0 178 423 421 136 367 137 0 366 +17 423 0 178 424 422 184 437 183 0 0 -17 424
 0 178 425 423 186 442 185 0 0 +17 425 0 178 410 424 130 427 187 0 363 +17 426 0
 189 427 429 130 364 131 0 425 +17 427 0 189 428 426 186 425 187 0 424 -17 428 0
 189 429 427 191 445 190 0 0 -17 429 0 189 426 428 132 431 192 0 364 +17 430 0 1
94 431 433 132 365 133 0 429 +17 431 0 194 432 430 191 429 192 0 428 -17 432 0 1
94 433 431 196 444 195 0 0 -17 433 0 194 430 432 134 435 197 0 365 +17 434 0 199
 435 437 134 366 135 0 433 +17 435 0 199 436 434 196 433 197 0 432 -17 436 0 199
 437 435 184 443 200 0 423 -17 437 0 199 434 436 136 423 183 0 422 +17 438 0 202
 439 441 174 451 203 0 400 -17 439 0 202 440 438 109 400 173 0 399 +17 440 0 202
 441 439 110 350 108 0 420 +17 441 0 202 438 440 181 420 182 0 419 +17 442 0 205
 443 445 184 424 185 0 436 -17 443 0 205 444 442 196 436 200 0 435 +17 444 0 205
 445 443 191 432 195 0 431 +17 445 0 205 442 444 186 428 190 0 427 +17 446 0 207
 447 449 70 413 179 0 412 +17 447 0 207 448 446 71 330 69 0 407 +17 448 0 207 44
9 447 24 407 176 0 406 -17 449 0 207 446 448 22 305 23 0 413 -17 450 0 209 451 4
53 174 401 175 0 438 +17 451 0 209 452 450 181 438 203 0 441 +17 452 0 209 453 4
51 36 419 180 0 418 -17 453 0 209 450 452 34 311 35 0 401 -17 454 0 211 455 457
 121 359 123 0 358 +17 455 0 211 456 454 213 469 212 0 0 -17 456 0 211 457 455 2
15 470 214 0 0 -17 457 0 211 454 456 124 459 216 0 359 +17 458 0 218 459 461 124
 360 125 0 457 -17 459 0 218 460 458 215 457 216 0 456 -17 460 0 218 461 459 220
 473 219 0 0 +17 461 0 218 458 460 126 463 221 0 360 +17 462 0 223 463 465 126 3
61 127 0 461 -17 463 0 223 464 462 220 461 221 0 460 -17 464 0 223 465 463 225 4
72 224 0 0 +17 465 0 223 462 464 122 467 226 0 361 +17 466 0 228 467 469 122 358
 120 0 465 +17 467 0 228 468 466 225 465 226 0 464 -17 468 0 228 469 467 213 471
 229 0 455 -17 469 0 228 466 468 121 455 212 0 454 +17 470 0 231 471 473 213 456
 214 0 468 +17 471 0 231 472 470 225 468 229 0 467 +17 472 0 231 473 471 220 464
 224 0 463 -17 473 0 231 470 472 215 460 219 0 459 -17 474 0 233 475 477 236 484
 234 0 0 +17 475 0 233 476 474 238 496 237 0 0 +17 476 0 233 477 475 240 492 239
 0 0 +17 477 0 233 474 476 235 488 241 0 0 +17 478 0 242 479 481 59 326 65 0 329
 +17 479 0 242 480 478 17 322 58 0 325 +17 480 0 242 481 479 18 302 16 0 318 +17
 481 0 242 478 480 52 318 51 0 326 +17 482 0 244 483 485 151 378 149 0 381 +17 4
83 0 244 484 482 236 497 245 0 474 -17 484 0 244 485 483 235 474 234 0 477 -17 4
85 0 244 482 484 150 487 246 0 378 +17 486 0 248 487 489 150 379 152 0 485 +17 4
87 0 248 488 486 235 485 246 0 484 -17 488 0 248 489 487 240 477 241 0 476 -17 4
89 0 248 486 488 153 491 249 0 379 +17 490 0 251 491 493 153 380 154 0 489 +17 4
91 0 251 492 490 240 489 249 0 488 -17 492 0 251 493 491 238 476 239 0 475 -17 4
93 0 251 490 492 155 495 252 0 380 +17 494 0 254 495 497 155 381 156 0 493 +17 4
95 0 254 496 494 238 493 252 0 492 -17 496 0 254 497 495 236 475 237 0 483 -17 4
97 0 254 494 496 151 483 245 0 482 +17 498 0 256 499 501 258 508 257 0 0 -17 499
 0 256 500 498 260 534 259 0 0 -17 500 0 256 501 499 8 514 261 0 298 +17 501 0 2
56 498 500 9 298 7 0 301 +17 502 0 263 503 509 265 511 264 0 0 -17 503 0 263 504
 502 267 530 266 0 0 +17 504 0 263 505 503 42 529 268 0 314 +17 505 0 263 506 50
4 43 314 41 0 317 +17 506 0 263 507 505 270 524 269 0 0 -17 507 0 263 508 506 25
8 535 271 0 498 -17 508 0 263 509 507 9 498 257 0 501 +17 509 0 263 502 508 13 3
01 14 0 300 +17 510 0 273 511 513 265 531 274 0 502 -17 511 0 273 512 510 13 502
 264 0 509 +17 512 0 273 513 511 11 300 12 0 299 +17 513 0 273 510 512 275 520 2
76 0 0 -17 514 0 278 515 521 260 500 261 0 499 -17 515 0 278 516 514 280 537 279
 0 0 -17 516 0 278 517 515 47 522 281 0 316 +17 517 0 278 518 516 45 316 46 0 31
5 +17 518 0 278 519 517 283 527 282 0 0 -17 519 0 278 520 518 275 532 284 0 513
 +17 520 0 278 521 519 11 513 276 0 512 +17 521 0 278 514 520 8 299 10 0 500 +17
 522 0 286 523 525 280 516 281 0 515 -17 523 0 286 524 522 270 536 287 0 506 -17
 524 0 286 525 523 43 506 269 0 505 +17 525 0 286 522 524 47 317 48 0 516 +17 52
6 0 289 527 529 283 533 290 0 518 -17 527 0 289 528 526 45 518 282 0 517 +17 528
 0 289 529 527 42 315 44 0 504 +17 529 0 289 526 528 267 504 268 0 503 -17 530 0
 292 531 533 265 503 266 0 510 -17 531 0 292 532 530 275 510 274 0 519 +17 532 0
 292 533 531 283 519 284 0 526 -17 533 0 292 530 532 267 526 290 0 529 +17 534 0
 294 535 537 258 499 259 0 507 +17 535 0 294 536 534 270 507 271 0 523 +17 536 0
 294 537 535 280 523 287 0 522 +17 537 0 294 534 536 260 515 279 0 514 +29 538 5
38 0 8 0 539 -.0009000000000000004 .002899999999999999 -.0003249999999999999 29
 539 539 0 9 538 540 -.0009000000000000002 .0019 -.0003249999999999998 29 540 54
0 0 11 539 541 -.0007500000000000002 .002899999999999999 -.0003249999999999998 2
9 541 541 0 13 540 542 -.00075 .0019 -.0003249999999999998 29 542 542 0 17 541 5
43 .000325 -.00305 -.000325 29 543 543 0 18 542 544 -.000325 -.00305 -.000324999
9999999999 29 544 544 0 20 543 545 .000325 -.00205 -.000325 29 545 545 0 22 544
 546 .00105 -.00205 -.0003249999999999998 29 546 546 0 24 545 547 .00105 .003249
999999999999 -.0003249999999999998 29 547 547 0 26 546 548 .000325 .003249999999
999999 -.000325 29 548 548 0 28 547 549 .000325 .00705 -.000325 29 549 549 0 30
 548 550 -.000325 .00705 -.0003249999999999999 29 550 550 0 32 549 551 -.0003249
999999999999 .003249999999999999 -.0003249999999999999 29 551 551 0 34 550 552 -
.00105 .003249999999999999 -.0003249999999999998 29 552 552 0 36 551 553 -.00105
 -.00205 -.0003249999999999998 29 553 553 0 38 552 554 -.0003249999999999999 -.0
0205 -.0003249999999999999 29 554 554 0 42 553 555 .0007500000000000006 .0019 -.
0003249999999999999 29 555 555 0 43 554 556 .0009000000000000005 .0019 -.000325
 29 556 556 0 45 555 557 .0007500000000000002 .0029 -.000325 29 557 557 0 47 556
 558 .0009000000000000002 .002899999999999999 -.000325 29 558 558 0 52 557 559 -
.000325 -.00305 .000325 29 559 559 0 54 558 560 -.0003249999999999999 -.00205 .0
00325 29 560 560 0 59 559 561 .000325 -.00305 .0003250000000000002 29 561 561 0
 61 560 562 .000325 -.00205 .0003250000000000002 29 562 562 0 70 561 563 .00105
 -.00205 .0009 29 563 563 0 71 562 564 .00105 .003249999999999999 .0009 29 564 5
64 0 73 563 565 .00125 -.00205 .0009 29 565 565 0 75 564 566 .00125 .00324999999
9999999 .0009 29 566 566 0 80 565 567 -.00125 .00705 .00125 29 567 567 0 81 566
 568 -.00125 .003249999999999999 .00125 29 568 568 0 83 567 569 .00125 .00324999
9999999999 .00125 29 569 569 0 85 568 570 .00125 .00705 .00125 29 570 570 0 91 5
69 571 .00125 -.00205 .00125 29 571 571 0 93 570 572 .00125 -.00705 .00125 29 57
2 572 0 95 571 573 .00125 -.00705 -.00125 29 573 573 0 97 572 574 .00125 .00705
 -.00125 29 574 574 0 102 573 575 -.00125 -.00705 -.00125 29 575 575 0 104 574 5
76 -.00125 .00705 -.00125 29 576 576 0 109 575 577 -.00125 .003249999999999999 .
0009 29 577 577 0 110 576 578 -.00125 -.00205 .0009 29 578 578 0 114 577 579 -.0
0125 -.00705 .00125 29 579 579 0 116 578 580 -.00125 -.00205 .00125 29 580 580 0
 121 579 581 .0005750000000000026 -.00205 .00125 29 581 581 0 122 580 582 .00057
50000000000022 .0008250000000000002 .00125 29 582 582 0 124 581 583 -.000575 -.0
0205 .00125 29 583 583 0 126 582 584 -.0005750000000000002 .0008250000000000002
 .00125 29 584 584 0 130 583 585 .0006749999999999998 -.00205 .00125 29 585 585
 0 132 584 586 .0006749999999999998 .001549999999999999 .00125 29 586 586 0 134
 585 587 -.0006750000000000003 .001549999999999999 .00125 29 587 587 0 136 586 5
88 -.0006750000000000003 -.00205 .00125 29 588 588 0 142 587 589 -.000325 .00705
 .000325 29 589 589 0 143 588 590 .000325 .00705 .0003250000000000002 29 590 590
 0 150 589 591 -.00105 -.00705 .00105 29 591 591 0 151 590 592 -.00105 -.00705 -
.00105 29 592 592 0 153 591 593 .00105 -.00705 .00105 29 593 593 0 155 592 594 .
00105 -.00705 -.00105 29 594 594 0 161 593 595 -.000325 .003249999999999999 .000
325 29 595 595 0 166 594 596 .000325 .003249999999999999 .0003250000000000002 29
 596 596 0 174 595 597 -.00105 .003249999999999999 .0009 29 597 597 0 181 596 59
8 -.00105 -.00205 .0009 29 598 598 0 184 597 599 -.0006750000000000003 -.00205 .
0009 29 599 599 0 186 598 600 .0006749999999999998 -.00205 .0009 29 600 600 0 19
1 599 601 .000675 .001549999999999999 .0009 29 601 601 0 196 600 602 -.000675000
0000000003 .001549999999999999 .0009 29 602 602 0 213 601 603 .00057500000000000
24 -.00205 .001225 29 603 603 0 215 602 604 -.000575 -.00205 .001225 29 604 604
 0 220 603 605 -.0005750000000000002 .0008250000000000002 .001225 29 605 605 0 2
25 604 606 .0005750000000000022 .0008250000000000002 .001225 29 606 606 0 235 60
5 607 -.00105 -.00305 .00105 29 607 607 0 236 606 608 -.00105 -.00305 -.00105 29
 608 608 0 238 607 609 .00105 -.00305 -.00105 29 609 609 0 240 608 610 .00105 -.
00305 .00105 29 610 610 0 258 609 611 -.0009000000000000004 .0019 .0009 29 611 6
11 0 260 610 612 -.0009000000000000004 .002899999999999999 .0009 29 612 612 0 26
5 611 613 -.00075 .001899999999999999 .00075 29 613 613 0 267 612 614 .000750000
0000000005 .0019 .00075 29 614 614 0 270 613 615 .0009000000000000005 .0019 .000
9 29 615 615 0 275 614 616 -.0007500000000000002 .002899999999999999 .00075 29 6
16 616 0 280 615 617 .0009000000000000005 .002899999999999999 .0009 29 617 617 0
 283 616 0 .0007500000000000002 .0029 .00075 50 618 618 0 5 0 625 0 +.000325 -.0
07050999999999999 -.000325 -1.668003342285392e-016 0 -1 -1 0 1.668003342285392e-
016 80 1 619 0 620 8001 0 0 0 0 3 5 0 0 FFFFTFTFFFFFFF2 79 15 620 SDL/TYSA_COLOU
R81 1 621 621 619 5 0 0 0 626 624 70 622 622 3 0 0 4 2 20 4 623 623 1 T74 20 623
 2 0 741 865 0 0 0 0 0 0 0 0 0 0 0 0 0 0 0 0 0 0 83 3 624 .8980392217636108 .917
6470637321472 .929411768913269 50 625 625 0 158 618 628 0 +-.000325 -.0070509999
99999999 .000325 -1 0 - 0 0 1 81 1 626 626 619 49 0 0 621 629 627 83 3 627 .1019
607856869698 .1019607856869698 .1019607856869698 50 628 628 0 163 625 631 0 +.00
0325 -.007050999999999999 .0003250000000000002 1 0 0 0 0 -1 81 1 629 629 619 56
 0 0 626 632 630 83 3 630 .1019607856869698 .1019607856869698 .1019607856869698
 50 631 631 0 168 628 634 0 +.000325 -.007050999999999999 .0003250000000000002 -
1.668003342285392e-016 0 1 1 0 1.668003342285392e-016 81 1 632 632 619 63 0 0 62
9 635 633 83 3 633 .8980392217636108 .9176470637321472 .929411768913269 50 634 6
34 0 201 631 637 0 +0 0 .0009 - 0 1 1 0 0 81 1 635 635 619 67 0 0 632 638 636 83
 3 636 .1019607856869698 .1019607856869698 .1019607856869698 50 637 637 0 118 63
4 640 0 +-.00125 .00705 .00125 0 0 -1 -1 0 - 81 1 638 638 619 77 0 0 635 641 639
 83 3 639 .1019607856869698 .1019607856869698 .1019607856869698 50 640 640 0 87
 637 643 0 +.00125 .00705 .00125 -1 0 0 0 0 1 81 1 641 641 619 87 0 0 638 644 64
2 83 3 642 .1019607856869698 .1019607856869698 .1019607856869698 50 643 643 0 99
 640 646 0 +-.00125 .00705 -.00125 0 0 1 1 0 - 81 1 644 644 619 99 0 0 641 647 6
45 83 3 645 .1019607856869698 .1019607856869698 .1019607856869698 50 646 646 0 1
06 643 651 0 +-.00125 .00705 .00125 1 - 0 0 0 -1 81 1 647 647 619 106 0 0 644 64
9 648 83 3 648 .1019607856869698 .1019607856869698 .1019607856869698 81 1 649 64
9 619 118 0 0 647 652 650 83 3 650 .1019607856869698 .1019607856869698 .10196078
56869698 50 651 651 0 139 646 654 0 +0 .00705 0 0 -1 0 0 - -1 81 1 652 652 619 1
39 0 0 649 655 653 83 3 653 .1019607856869698 .1019607856869698 .101960785686969
8 50 654 654 0 147 651 663 0 +0 -.00705 0 0 -1 0 0 - -1 81 1 655 655 619 147 0 0
 652 657 656 83 3 656 .1019607856869698 .1019607856869698 .1019607856869698 81 1
 657 657 619 158 0 0 655 659 658 83 3 658 .1019607856869698 .1019607856869698 .1
019607856869698 81 1 659 659 619 163 0 0 657 661 660 83 3 660 .1019607856869698
 .1019607856869698 .1019607856869698 81 1 661 661 619 168 0 0 659 664 662 83 3 6
62 .8980392217636108 .9176470637321472 .929411768913269 50 663 663 0 171 654 666
 0 +-.00125 .003249999999999999 .0009 - 1 0 0 0 1 81 1 664 664 619 171 0 0 661 6
67 665 83 3 665 .1019607856869698 .1019607856869698 .1019607856869698 50 666 666
 0 177 663 669 0 +.0006749999999999998 -.00205 .0009 0 -1 0 0 - -1 81 1 667 667
 619 177 0 0 664 670 668 83 3 668 .1019607856869698 .1019607856869698 .101960785
6869698 50 669 669 0 188 666 672 0 +.0006749999999999998 -.00205 .0009 -1 0 0 0
 0 1 81 1 670 670 619 188 0 0 667 673 671 83 3 671 .1019607856869698 .1019607856
869698 .1019607856869698 50 672 672 0 193 669 675 0 +-.0006750000000000003 .0015
49999999999999 .0009 0 -1 0 0 - -1 81 1 673 673 619 193 0 0 670 676 674 83 3 674
 .1019607856869698 .1019607856869698 .1019607856869698 50 675 675 0 198 672 680
 0 +-.0006750000000000003 -.00205 .0009 1 - 0 0 0 -1 81 1 676 676 619 198 0 0 67
3 678 677 83 3 677 .1019607856869698 .1019607856869698 .1019607856869698 81 1 67
8 678 619 201 0 0 676 681 679 83 3 679 .1019607856869698 .1019607856869698 .1019
607856869698 50 680 680 0 204 675 683 0 +- 0 .0009 - 0 1 1 0 0 81 1 681 681 619
 204 0 0 678 684 682 83 3 682 .1019607856869698 .1019607856869698 .1019607856869
698 50 683 683 0 206 680 686 0 +.00105 .003249999999999999 -.006025877125495689
 1 -1.227398685832647e-016 0 1.227398685832647e-016 1 0 81 1 684 684 619 206 0 0
 681 687 685 83 3 685 .1019607856869698 .1019607856869698 .1019607856869698 50 6
86 686 0 208 683 689 0 +-.00105 .003249999999999999 -.006025877125495689 -1 -1.2
27398685832647e-016 0 1.227398685832647e-016 -1 0 81 1 687 687 619 208 0 0 684 6
90 688 83 3 688 .1019607856869698 .1019607856869698 .1019607856869698 50 689 689
 0 210 686 692 0 +0 -.00205 .001225 0 -1 0 0 - -1 81 1 690 690 619 210 0 0 687 6
93 691 83 3 691 .1019607856869698 .1019607856869698 .1019607856869698 50 692 692
 0 217 689 695 0 +-.0005750000000000002 -2.16840434497101e-020 .001225 1 3.77113
7991253929e-017 0 -3.771137991253929e-017 1 0 81 1 693 693 619 217 0 0 690 696 6
94 83 3 694 .1019607856869698 .1019607856869698 .1019607856869698 51 695 695 0 2
22 692 698 0 +0 .0008250000000000002 .001225 0 - 1 .0005750000000000012 1 0 0 81
 1 696 696 619 222 0 0 693 699 697 83 3 697 .1019607856869698 .1019607856869698
 .1019607856869698 50 698 698 0 227 695 701 0 +.0005750000000000023 1.0842021724
85509e-019 .001225 1 1.885568995626965e-016 0 -1.885568995626965e-016 1 0 81 1 6
99 699 619 227 0 0 696 702 700 83 3 700 .1019607856869698 .1019607856869698 .101
9607856869698 50 701 701 0 230 698 704 0 +0 0 .001225 - 0 1 1 0 0 81 1 702 702 6
19 230 0 0 699 705 703 83 3 703 .1019607856869698 .1019607856869698 .10196078568
69698 50 704 704 0 232 701 707 0 +0 -.00305 0 0 -1 0 0 - -1 81 1 705 705 619 232
 0 0 702 708 706 83 3 706 .1019607856869698 .1019607856869698 .1019607856869698
 50 707 707 0 243 704 710 0 +-.00105 -.00305 -.00105 -1 0 0 0 0 1 81 1 708 708 6
19 243 0 0 705 711 709 83 3 709 .1019607856869698 .1019607856869698 .10196078568
69698 50 710 710 0 247 707 713 0 +.00105 -.00305 .00105 0 - 1 1 0 0 81 1 711 711
 619 247 0 0 708 714 712 83 3 712 .1019607856869698 .1019607856869698 .101960785
6869698 50 713 713 0 250 710 716 0 +.00105 -.00305 -.00105 1 0 0 0 0 -1 81 1 714
 714 619 250 0 0 711 717 715 83 3 715 .1019607856869698 .1019607856869698 .10196
07856869698 50 716 716 0 253 713 719 0 +.00105 -.00305 -.00105 0 0 -1 -1 0 - 81
 1 717 717 619 253 0 0 714 720 718 83 3 718 .1019607856869698 .1019607856869698
 .1019607856869698 50 719 719 0 255 716 722 0 +-.0009000000000000004 .0028999999
99999999 .001911187420807835 1 3.252606517456514e-016 - -3.252606517456514e-016
 1 0 81 1 720 720 619 255 0 0 717 723 721 83 3 721 .8980392217636108 .9176470637
321472 .929411768913269 50 722 722 0 262 719 725 0 +-.0009 .001899999999999999 .
001911187420807835 -1.44560289664734e-015 1 0 -1 -1.44560289664734e-015 0 81 1 7
23 723 619 262 0 0 720 726 724 83 3 724 .8980392217636108 .9176470637321472 .929
411768913269 50 725 725 0 272 722 728 0 +-.0007500000000000005 .0028999999999999
99 .001911187420807835 -1 -3.252606517456515e-016 0 3.252606517456515e-016 -1 0
 81 1 726 726 619 272 0 0 723 729 727 83 3 727 .8980392217636108 .91764706373214
72 .929411768913269 50 728 728 0 277 725 731 0 +-.0009000000000000004 .002899999
999999999 .001911187420807835 0 -1 0 0 - -1 81 1 729 729 619 277 0 0 726 732 730
 83 3 730 .8980392217636108 .9176470637321472 .929411768913269 50 731 731 0 285
 728 734 0 +.0009000000000000002 .0029 .001911187420807835 -1 -3.252606517456512
e-016 0 3.252606517456512e-016 -1 0 81 1 732 732 619 285 0 0 729 735 733 83 3 73
3 .8980392217636108 .9176470637321472 .929411768913269 50 734 734 0 288 731 737
 0 +.0007500000000000002 .0029 .001911187420807835 1 3.252606517456513e-016 - -3
.252606517456513e-016 1 0 81 1 735 735 619 288 0 0 732 738 736 83 3 736 .8980392
217636108 .9176470637321472 .929411768913269 50 737 737 0 291 734 740 0 +- 0 .00
075 - 0 1 1 0 0 81 1 738 738 619 291 0 0 735 741 739 83 3 739 .8980392217636108
 .9176470637321472 .929411768913269 50 740 740 0 293 737 0 0 +0 0 .0009 - 0 1 1
 0 0 81 1 741 741 619 293 0 0 738 0 742 83 3 742 .8980392217636108 .917647063732
1472 .929411768913269 30 743 743 0 7 0 744 0 +-.0009000000000000004 .00289999999
9999999 -.0003249999999999999 3.252606517456514e-016 -1 0 30 744 744 0 10 743 74
5 0 +-.0009000000000000004 .002899999999999999 -.0003249999999999999 -1 0 - 30 7
45 745 0 12 744 746 0 +-.0007500000000000005 .002899999999999999 -.0003249999999
999999 -3.252606517456515e-016 1 0 30 746 746 0 14 745 747 0 +-.0009 .0018999999
99999999 -.0003249999999999999 1 1.44560289664734e-015 0 30 747 747 0 16 746 748
 0 +.000325 -.00305 -.000325 -1 0 1.668003342285392e-016 30 748 748 0 19 747 749
 0 +.000325 -.007050999999999999 -.000325 - 1 0 30 749 749 0 21 748 750 0 +-.001
049999999999999 -.00205 -.0003249999999999998 1 0 -1.668003342285392e-016 30 750
 750 0 23 749 751 0 +.00105 .003249999999999999 -.0003249999999999998 1.22739868
5832647e-016 1 -2.047305110285552e-032 30 751 751 0 25 750 752 0 +-.001049999999
999999 .003249999999999999 -.0003249999999999998 -1 0 1.668003342285392e-016 30
 752 752 0 27 751 753 0 +.000325 -.007050999999999999 -.000325 - 1 0 30 753 753
 0 29 752 754 0 +.000325 .00705 -.000325 -1 0 1.668003342285392e-016 30 754 754
 0 31 753 755 0 +-.000325 -.007050999999999999 -.0003249999999999999 - 1 0 30 75
5 755 0 33 754 756 0 +-.001049999999999999 .003249999999999999 -.000324999999999
9998 -1 0 1.668003342285392e-016 30 756 756 0 35 755 757 0 +-.00105 .00324999999
9999999 -.0003249999999999998 1.227398685832647e-016 -1 -2.047305110285552e-032
 30 757 757 0 37 756 758 0 +-.001049999999999999 -.00205 -.0003249999999999998 1
 0 -1.668003342285392e-016 30 758 758 0 39 757 759 0 +-.000325 -.007050999999999
999 -.0003249999999999999 - 1 0 30 759 759 0 41 758 760 0 +.0007500000000000006
 .0019 -.0003249999999999999 1 -1.44560289664734e-015 0 30 760 760 0 44 759 761
 0 +.0007500000000000002 .0029 -.0003249999999999999 3.252606517456512e-016 -1 0
 30 761 761 0 46 760 762 0 +.0009000000000000002 .0029 -.0003249999999999999 -1
 0 0 30 762 762 0 48 761 763 0 +.0009000000000000002 .0029 -.0003249999999999999
 -3.252606517456512e-016 1 0 30 763 763 0 51 762 764 0 +-.000325 -.00305 .000325
 0 0 1 30 764 764 0 53 763 765 0 +-.000325 -.00205 .000325 0 0 1 30 765 765 0 55
 764 766 0 +-.000325 -.007050999999999999 .000325 - 1 0 30 766 766 0 58 765 767
 0 +.000325 -.00305 .0003250000000000002 0 0 -1 30 767 767 0 60 766 768 0 +.0003
25 -.007050999999999999 .0003250000000000002 - 1 0 30 768 768 0 62 767 769 0 +.0
00325 -.00205 .0003250000000000002 0 0 -1 30 769 769 0 65 768 770 0 +.000325 -.0
0305 .0003250000000000002 1 0 1.668003342285392e-016 30 770 770 0 66 769 771 0 +
.000325 -.00205 .0003250000000000002 1 0 1.668003342285392e-016 30 771 771 0 69
 770 772 0 +.00105 .003249999999999999 .0009 1.227398685832647e-016 1 - 30 772 7
72 0 72 771 773 0 +.0006749999999999998 -.00205 .0009 1 0 - 30 773 773 0 74 772
 774 0 +.00125 .003249999999999999 .0009 - 1 0 30 774 774 0 76 773 775 0 +-.0012
5 .003249999999999999 .0009 -1 0 - 30 775 775 0 79 774 776 0 +-.00125 .00705 .00
125 0 -1 0 30 776 776 0 82 775 777 0 +-.00125 .003249999999999999 .00125 -1 0 -
 30 777 777 0 84 776 778 0 +.00125 .00705 .00125 0 -1 0 30 778 778 0 86 777 779
 0 +-.00125 .00705 .00125 1 0 - 30 779 779 0 89 778 780 0 +.00125 .0032499999999
99999 .0009 0 - 1 30 780 780 0 90 779 781 0 +.00125 -.00205 .0009 0 - 1 30 781 7
81 0 92 780 782 0 +.00125 .00705 .00125 0 -1 0 30 782 782 0 94 781 783 0 +.00125
 -.00705 .00125 0 0 -1 30 783 783 0 96 782 784 0 +.00125 .00705 -.00125 0 -1 0 3
0 784 784 0 98 783 785 0 +.00125 .00705 .00125 0 0 -1 30 785 785 0 101 784 786 0
 +-.00125 -.00705 -.00125 -1 0 - 30 786 786 0 103 785 787 0 +-.00125 .00705 -.00
125 0 -1 0 30 787 787 0 105 786 788 0 +-.00125 .00705 -.00125 -1 0 - 30 788 788
 0 108 787 789 0 +-.00125 .003249999999999999 .0009 0 -1 0 30 789 789 0 111 788
 790 0 +-.00125 .003249999999999999 .0009 0 - 1 30 790 790 0 112 789 791 0 +-.00
125 .00705 .00125 0 - 1 30 791 791 0 113 790 792 0 +-.00125 -.00705 .00125 0 - 1
 30 792 792 0 115 791 793 0 +-.00125 .00705 .00125 0 -1 0 30 793 793 0 117 792 7
94 0 +-.00125 -.00205 .0009 0 - 1 30 794 794 0 120 793 795 0 +.00057500000000000
23 1.084202172485509e-019 .00125 -1.885568995626964e-016 1 0 30 795 795 0 123 79
4 796 0 +0 -.00205 .00125 1 0 - 30 796 796 0 125 795 797 0 +-.000575000000000000
2 -2.16840434497101e-020 .00125 -3.771137991253929e-017 1 0 31 797 797 0 127 796
 798 0 -0 .0008250000000000002 .00125 - 0 1 1 0 0 .0005750000000000012 30 798 79
8 0 129 797 799 0 +.0006749999999999998 -.00205 .00125 1 0 - 30 799 799 0 131 79
8 800 0 +.0006749999999999998 -.00205 .00125 0 -1 0 30 800 800 0 133 799 801 0 +
-.0006750000000000003 .001549999999999999 .00125 1 0 - 30 801 801 0 135 800 802
 0 +-.0006750000000000003 -.00205 .00125 0 1 0 30 802 802 0 137 801 803 0 +-.001
25 -.00205 .00125 1 0 - 30 803 803 0 138 802 804 0 +-.00125 -.00705 .00125 1 0 -
 30 804 804 0 141 803 805 0 +.000325 .00705 .0003250000000000002 1 0 1.668003342
285392e-016 30 805 805 0 144 804 806 0 +-.000325 .00705 .000325 0 - 1 30 806 806
 0 145 805 807 0 +.000325 .00705 .0003250000000000002 0 0 -1 30 807 807 0 149 80
6 808 0 +-.00105 -.00705 -.00105 0 0 -1 30 808 808 0 152 807 809 0 +.00105 -.007
05 .00105 -1 0 0 30 809 809 0 154 808 810 0 +.00105 -.00705 -.00105 0 0 1 30 810
 810 0 156 809 811 0 +.00105 -.00705 -.00105 1 0 - 30 811 811 0 160 810 812 0 +-
.000325 -.007050999999999999 .000325 - 1 0 30 812 812 0 162 811 813 0 +-.000325
 .003249999999999999 .000325 0 0 -1 30 813 813 0 165 812 814 0 +.000325 .0032499
99999999999 .0003250000000000002 0 0 1 30 814 814 0 167 813 815 0 +.000325 -.007
050999999999999 .0003250000000000002 - 1 0 30 815 815 0 170 814 816 0 +.000325 .
003249999999999999 .0003250000000000002 -1 0 -1.668003342285392e-016 30 816 816
 0 173 815 817 0 +-.00125 .003249999999999999 .0009 -1 0 - 30 817 817 0 175 816
 818 0 +-.00105 .003249999999999999 -.006025877125495689 0 - 1 30 818 818 0 176
 817 819 0 +.00105 .003249999999999999 -.006025877125495689 0 - 1 30 819 819 0 1
79 818 820 0 +.00105 -.00205 -.006025877125495689 0 - 1 30 820 820 0 180 819 821
 0 +-.00105 -.00205 -.006025877125495689 0 - 1 30 821 821 0 182 820 822 0 +-.001
25 -.00205 .0009 1 0 - 30 822 822 0 183 821 823 0 +-.0006750000000000003 -.00205
 .0009 0 - 1 30 823 823 0 185 822 824 0 +-.00105 -.00205 .0009 1 0 - 30 824 824
 0 187 823 825 0 +.0006749999999999998 -.00205 .0009 0 - 1 30 825 825 0 190 824
 826 0 +.0006749999999999998 -.00205 .0009 0 -1 0 30 826 826 0 192 825 827 0 +.0
006749999999999998 .001549999999999999 .0009 0 - 1 30 827 827 0 195 826 828 0 +-
.0006750000000000003 .001549999999999999 .0009 1 0 - 30 828 828 0 197 827 829 0
 +-.0006750000000000003 .001549999999999999 .0009 0 - 1 30 829 829 0 200 828 830
 0 +-.0006750000000000003 -.00205 .0009 0 1 0 30 830 830 0 203 829 831 0 +-.0010
5 .003249999999999999 .0009 1.227398685832647e-016 -1 0 30 831 831 0 212 830 832
 0 +.0005750000000000024 -.00205 .001225 0 - 1 30 832 832 0 214 831 833 0 +0 -.0
0205 .001225 1 0 - 30 833 833 0 216 832 834 0 +-.000575 -.00205 .001225 0 - 1 30
 834 834 0 219 833 835 0 +-.0005750000000000002 -2.16840434497101e-020 .001225 -
3.771137991253929e-017 1 0 30 835 835 0 221 834 836 0 +-.0005750000000000002 .00
08250000000000002 .001225 0 - 1 31 836 836 0 224 835 837 0 -0 .00082500000000000
02 .001225 - 0 1 1 0 0 .0005750000000000012 30 837 837 0 226 836 838 0 +.0005750
000000000022 .0008250000000000002 .001225 0 - 1 30 838 838 0 229 837 839 0 +.000
5750000000000023 1.084202172485509e-019 .001225 -1.885568995626964e-016 1 0 30 8
39 839 0 234 838 840 0 +-.00105 -.00305 -.00105 0 0 -1 30 840 840 0 237 839 841
 0 +.00105 -.00305 -.00105 1 0 - 30 841 841 0 239 840 842 0 +.00105 -.00305 -.00
105 0 0 1 30 842 842 0 241 841 843 0 +.00105 -.00305 .00105 -1 0 0 30 843 843 0
 245 842 844 0 +-.00105 -.00305 -.00105 0 -1 0 30 844 844 0 246 843 845 0 +-.001
05 -.00305 .00105 0 -1 0 30 845 845 0 249 844 846 0 +.00105 -.00305 .00105 0 -1
 0 30 846 846 0 252 845 847 0 +.00105 -.00305 -.00105 0 -1 0 30 847 847 0 257 84
6 848 0 +-.0009 .001899999999999999 .001911187420807835 0 0 -1 30 848 848 0 259
 847 849 0 +-.0009000000000000004 .002899999999999999 .0009 0 -1 0 30 849 849 0
 261 848 850 0 +-.0009000000000000004 .002899999999999999 .001911187420807835 0
 0 -1 30 850 850 0 264 849 851 0 +-.00075 .001899999999999999 .00191118742080783
5 0 0 -1 30 851 851 0 266 850 852 0 +-.0009000000000000004 .0019 .00075 1 0 - 30
 852 852 0 268 851 853 0 +.0007500000000000006 .0019 .001911187420807835 0 0 -1
 30 853 853 0 269 852 854 0 +.0009000000000000005 .001899999999999999 .001911187
420807835 0 0 -1 30 854 854 0 271 853 855 0 +-.0009000000000000004 .0019 .0009 1
 0 - 30 855 855 0 274 854 856 0 +-.0007500000000000005 .002899999999999999 .0007
5 -3.252606517456515e-016 1 0 30 856 856 0 276 855 857 0 +-.0007500000000000005
 .002899999999999999 .001911187420807835 0 0 -1 30 857 857 0 279 856 858 0 +-.00
09000000000000004 .002899999999999999 .0009 -1 0 - 30 858 858 0 281 857 859 0 +.
0009000000000000002 .0029 .001911187420807835 0 0 -1 30 859 859 0 282 858 860 0
 +.0007500000000000002 .0029 .001911187420807835 0 0 -1 30 860 860 0 284 859 861
 0 +-.0009000000000000004 .002899999999999999 .00075 -1 0 - 30 861 861 0 287 860
 862 0 +.0009000000000000005 .002899999999999999 .0009 - 1 0 30 862 862 0 290 86
1 0 0 +.0007500000000000002 .0029 .00075 3.252606517456513e-016 -1 0 80 1 863 61
9 864 9000 0 0 0 0 3 6 0 0 TFTTTTTTFFFFTT3 79 25 864 H3DX_BRIDGE/PERSISTENT_ID81
 1 865 865 863 3 0 0 0 0 866 84 3 866 10911 867 867 0 1 3 0 2 0 0 0 0 81 1 868 8
68 863 2 0 874 0 0 871 70 869 869 2 0 0 4 2 20 4 870 870 1 T74 20 870 2 0 868 87
4 0 0 0 0 0 0 0 0 0 0 0 0 0 0 0 0 0 0 84 10 871 149320351080 1 872 863 873 8017
 0 0 0 0 0 0 0 0 TTTTTTTTTTTTTF3 79 13 873 SDL/TYSA_NAME81 1 874 874 872 2 868 0
 0 0 875 84 6 875 Header100 876 876 877 0 0 1 0 0 0 1 0 0 0 1 0 0 0 1 0 ?11 877
 877 0 1 2 876 1 884 0 0 0 10 878 880 879 880 0 0 0 0 0 1e3 1e-008 884 0 0 1 0 1
 0 81 1 879 879 872 878 0 0 0 0 882 70 880 880 878 0 0 4 1 20 4 881 881 1 T74 20
 881 1 0 879 0 0 0 0 0 0 0 0 0 0 0 0 0 0 0 0 0 0 0 84 4 882 Blok100 883 883 884
 0 0 1 0 0 0 1 0 0 0 1 0 0 0 1 0 ?11 884 884 0 1 878 883 1 891 877 0 0 10 885 88
7 886 887 0 0 0 0 0 1e3 1e-008 891 0 0 1 0 1 0 81 1 886 886 872 885 0 0 0 0 889
 70 887 887 885 0 0 4 1 20 4 888 888 1 T74 20 888 1 0 886 0 0 0 0 0 0 0 0 0 0 0
 0 0 0 0 0 0 0 0 84 18 889 Header/Header-wire100 890 890 891 0 0 1 0 0 0 1 0 0 0
 1 0 0 0 1 0 ?11 891 891 0 1 885 890 1 0 884 0 0 81 1 892 892 863 1 0 896 0 0 89
5 70 893 893 1 0 0 4 2 20 4 894 894 1 T74 20 894 2 0 892 896 0 0 0 0 0 0 0 0 0 0
 0 0 0 0 0 0 0 0 84 10 895 149320351081 1 896 896 872 1 892 0 0 0 897 84 6 897 S
ocket1 0 