**ABCDEFGHIJKLMNOPQRSTUVWXYZabcdefghijklmnopqrstuvwxyz**************************
**PARASOLID !"#$%&'()*+,-./:;<=>?@[\]^_`{|}~0123456789**************************
**PART1;
MC=unknown;
MC_MODEL=unknown;
MC_ID=unknown;
OS=unknown;
OS_RELEASE=unknown;
FRU=unknown;
APPL=File generated by HOOPS Exchange Version 10.0.12;
SITE=unknown;
USER=unknown;
FORMAT=text;
GUISE=transmit;
KEY=Wire;
FILE=c:\tempstorage\5444211219897769\Wire.SLDPRT.x_t;
DATE=unknown;
**PART2;
SCH=SCH_1100000_11004;
USFLD_SIZE=0;
**PART3;
**END_OF_HEADER*****************************************************************
T51 : TRANSMIT FILE created by modeller version 110000017 SCH_1100000_110040 10
 1 86 86 83 0 0 0 0 0 1e3 1e-008 0 0 0 1 0 1 10 10 2 6 5 6 0 0 0 0 0 1e3 1e-008
 10 0 0 1 0 1 0 80 1 3 0 4 8017 0 0 0 0 0 0 0 0 TTTTTTTTTTTTTF3 79 13 4 SDL/TYSA
_NAME81 1 5 5 3 2 0 0 0 0 8 70 6 6 2 0 0 4 1 20 4 7 7 1 T74 20 7 1 0 5 0 0 0 0 0
 0 0 0 0 0 0 0 0 0 0 0 0 0 0 84 4 8 15cm100 9 9 10 0 0 1 0 0 0 1 0 0 0 1 0 0 0 1
 0 ?11 10 10 0 1 2 9 1 17 0 0 0 10 11 13 12 13 0 0 0 0 0 1e3 1e-008 17 0 0 1 0 1
 0 81 1 12 12 3 11 0 0 0 0 15 70 13 13 11 0 0 4 1 20 4 14 14 1 T74 20 14 1 0 12
 0 0 0 0 0 0 0 0 0 0 0 0 0 0 0 0 0 0 0 84 4 15 20cm100 16 16 17 0 0 1 0 0 0 1 0
 0 0 1 0 0 0 1 0 ?11 17 17 0 1 11 16 1 24 10 0 0 10 18 20 19 20 0 0 0 0 0 1e3 1e
-008 24 0 0 1 0 1 0 81 1 19 19 3 18 0 0 0 0 22 70 20 20 18 0 0 4 1 20 4 21 21 1
 T74 20 21 1 0 19 0 0 0 0 0 0 0 0 0 0 0 0 0 0 0 0 0 0 0 84 4 22 30cm100 23 23 24
 0 0 1 0 0 0 1 0 0 0 1 0 0 0 1 0 ?11 24 24 0 1 18 23 1 81 17 0 0 10 25 78 78 75
 0 0 0 0 0 1e3 1e-008 81 0 0 1 0 1 73 12 26 71 71 52 0 0 0 0 1e3 1e-008 73 0 0 1
 0 1 1 41 64 68 47 39 34 35 13 27 27 0 0 0 0 0 0 39 28 14 28 28 51 ?32 0 29 41 4
8 +0 0 32 0 27 15 29 29 0 42 28 0 16 30 30 0 ?42 34 0 67 0 0 26 18 31 31 0 44 35
 0 46 ?26 14 32 32 62 ?37 28 33 41 55 -0 0 37 28 27 15 33 33 0 43 32 36 16 34 34
 0 ?43 0 30 68 0 0 26 18 35 35 0 45 0 31 47 ?26 15 36 36 0 44 32 0 14 37 37 65 ?
0 32 38 41 64 -0 0 0 32 27 15 38 38 0 45 37 0 19 39 39 0 26 40 0 27 V19 40 40 0
 26 0 39 41 S13 41 41 0 26 0 28 0 0 40 0 17 42 0 29 42 42 31 44 30 0 0 +17 43 0
 33 43 43 35 45 34 0 0 +17 44 0 36 44 44 31 42 30 0 42 -17 45 0 38 45 45 35 43 3
4 0 43 -29 46 46 0 31 0 47 .00045 0 0 29 47 47 0 35 46 0 .24962700413688 0 .0002
517421023495954 50 48 48 0 28 0 55 0 +0 0 0 0 0 1 1 0 0 80 1 49 3 50 8001 0 0 0
 0 3 5 0 0 FFFFTFTFFFFFFF2 79 15 50 SDL/TYSA_COLOUR81 1 51 51 49 28 0 0 0 62 54
 70 52 52 26 0 0 4 2 20 4 53 53 1 T74 20 53 2 0 65 71 0 0 0 0 0 0 0 0 0 0 0 0 0
 0 0 0 0 0 83 3 54 .8392156958580017 .4666666686534882 .3686274588108063 124 55
 55 0 32 48 64 0 +56 0 126 56 TF3 3 7 14 1 1 3 7 TTF2 4 57 58 59 60 61 45 392 57
 .00045 0 0 1 .02128333333333345 0 -.06808740299899679 1 .04211909467118179 0 -.
1191420470957041 1 .07334410261924074 0 -.1701263397646299 1 .08374838538807526
 0 -.182852505830904 1 .1045000876407187 0 -.1997573520686638 1 .114832194539386
8 0 -.203930685836064 1 .1354310614637586 0 -.2038589660748578 1 .14573095963238
54 0 -.199624049008381 1 .1664282411646288 0 -.1826526168376814 1 .1768099413141
02 0 -.1699119669900092 1 .2079849651589006 0 -.1188970955432913 1 .228805406739
8888 0 -.06783925074540481 1 .24962700413688 0 .0002517421023495954 1 .00015 .00
03 0 .3333333333333334 .007094444444444483 .0003 -.0226958009996656 .33333333333
33334 .01403969822372727 .0003 -.03971401569856802 .3333333333333334 .0244480342
0641358 .0003 -.0567087799215433 .3333333333333334 .02791612846269176 .0003 -.06
095083527696799 .3333333333333334 .03483336254690625 .0003 -.06658578402288794 .
3333333333333334 .03827739817979559 .0003 -.067976895278688 .3333333333333334 .0
4514368715458619 .0003 -.06795298869161927 .3333333333333334 .04857698654412847
 .0003 -.06654134966946036 .3333333333333334 .05547608038820959 .0003 -.06088420
561256048 .3333333333333334 .05893664710470068 .0003 -.05663732233000308 .333333
3333333334 .06932832171963356 .0003 -.0396323651810971 .3333333333333334 .076268
46891329629 .0003 -.02261308358180161 .3333333333333334 .08320900137896002 .0003
 8.391403411653182e-005 .3333333333333334 -.00015 .0003 0 .3333333333333334 .006
794444444444486 .0003 -.02270978667201744 .3333333333333334 .01373807955407359 .
0003 -.03974576272672985 .3333333333333334 .02416307690468598 .0003 -.0568051892
5773806 .3333333333333334 .02763942709292603 .0003 -.06107668159092336 .33333333
33333334 .03461108189747596 .0003 -.06679312976243786 .3333333333333334 .0381114
9070906921 .0003 -.06823986773636112 .3333333333333334 .0451340906232157 .0003 -
.06826377432342987 .3333333333333334 .04864523567809376 .0003 -.0668375641162160
9 .3333333333333334 .05563503072290153 .0003 -.06114331125498021 .33333333333333
34 .05911890845085489 .0003 -.05687664684950468 .3333333333333334 .0695605671692
5536 .0003 -.03982741324374799 .3333333333333334 .07650930886316361 .0003 -.0227
9250408988362 .3333333333333334 .08345766528770666 .0003 -8.391403411653181e-005
 .3333333333333334 -.00045 5.510910596163089e-020 0 1 .02038333333333346 5.51091
0596163089e-020 -.06812936001605233 1 .04121423866229002 5.510910596163089e-020
 -.1192372881801896 1 .07248923071402331 5.510910596163089e-020 -.17041556777321
42 1 .08291828127877807 5.510910596163089e-020 -.18323004477277 1 .1038332456924
279 5.510910596163089e-020 -.2003793892873135 1 .1143344721272076 5.510910596163
089e-020 -.2047196032090833 1 .1354022718696471 5.510910596163089e-020 -.2047913
229702896 1 .1459357070342813 5.510910596163089e-020 -.2005126923486483 1 .16690
50921687046 5.510910596163089e-020 -.1834299337649406 1 .1773567253525646 5.5109
10596163089e-020 -.170629940548514 1 .2086817015077661 5.510910596163089e-020 -.
1194822397312439 1 .2295279265894908 5.510910596163089e-020 -.0683775122696518 1
 .25037299586312 5.510910596163089e-020 -.0002517421023495954 1 -.00015 -.0003 0
 .3333333333333334 .006794444444444486 -.0003 -.02270978667201744 .3333333333333
334 .01373807955411976 -.0003 -.03974576272672985 .3333333333333334 .02416307690
46629 -.0003 -.05680518925773806 .3333333333333334 .02763942709292603 -.0003 -.0
6107668159092336 .3333333333333334 .03461108189747596 -.0003 -.06679312976243786
 .3333333333333334 .03811149070906921 -.0003 -.06823986773636112 .33333333333333
34 .0451340906232157 -.0003 -.06826377432342987 .3333333333333334 .0486452356780
9376 -.0003 -.06683756411621609 .3333333333333334 .05563503072290153 -.0003 -.06
114331125498021 .3333333333333334 .05911890845085489 -.0003 -.05687664684950468
 .3333333333333334 .06956056716925536 -.0003 -.03982741324374799 .33333333333333
34 .07650930886316361 -.0003 -.02279250408988427 .3333333333333334 .083457665287
70666 -.0003 -8.391403411653184e-005 .3333333333333334 .00015 -.0003 0 .33333333
33333334 .007094444444444483 -.0003 -.0226958009996656 .3333333333333334 .014039
69822372727 -.0003 -.03971401569856802 .3333333333333334 .02444803420641358 -.00
03 -.0567087799215433 .3333333333333334 .02791612846269176 -.0003 -.060950835276
96799 .3333333333333334 .03483336254690625 -.0003 -.06658578402288794 .333333333
3333334 .03827739817979559 -.0003 -.067976895278688 .3333333333333334 .045143687
15458619 -.0003 -.06795298869161927 .3333333333333334 .04857698654412847 -.0003
 -.06654134966946036 .3333333333333334 .05547608038820959 -.0003 -.0608842056125
6048 .3333333333333334 .05893664710470068 -.0003 -.05663732233000308 .3333333333
333334 .06932832171963356 -.0003 -.0396323651810971 .3333333333333334 .076268468
91329629 -.0003 -.02261308358180161 .3333333333333334 .08320900137896002 -.0003
 8.391403411653182e-005 .3333333333333334 .00045 0 0 1 .02128333333333345 0 -.06
808740299899679 1 .04211909467118179 0 -.1191420470957041 1 .07334410261924074 0
 -.1701263397646299 1 .08374838538807526 0 -.182852505830904 1 .1045000876407187
 0 -.1997573520686638 1 .1148321945393868 0 -.203930685836064 1 .135431061463758
6 0 -.2038589660748578 1 .1457309596323854 0 -.199624049008381 1 .16642824116462
88 0 -.1826526168376814 1 .176809941314102 0 -.1699119669900092 1 .2079849651589
006 0 -.1188970955432913 1 .2288054067398888 0 -.06783925074540481 1 .2496270041
3688 0 .0002517421023495954 1 127 3 58 4 3 4 127 7 59 4 2 2 2 2 2 4 128 3 60 0 .
5 1 128 7 61 0 .25 .375 .5 .625 .75 1 81 1 62 62 49 32 0 0 51 65 63 83 3 63 .694
1176652908325 .09803921729326248 .09803921729326248 50 64 64 0 37 55 0 0 +.25 0
 4.160751712597078e-033 -.5594268941102122 0 -.8288796958221389 -.82887969582213
89 0 .5594268941102122 81 1 65 65 49 37 0 0 62 0 66 83 3 66 .8392156958580017 .4
666666686534882 .3686274588108063 31 67 67 0 30 0 68 0 +0 0 0 0 0 1 1 0 0 .00045
 31 68 68 0 34 67 0 0 +.25 0 4.160751712597078e-033 -.5594268941102122 0 -.82887
96958221389 -.8288796958221389 0 .5594268941102122 .00045 80 1 69 49 70 9000 0 0
 0 0 3 6 0 0 TFTTTTTTFFFFTT3 79 25 70 H3DX_BRIDGE/PERSISTENT_ID81 1 71 71 69 26
 0 0 0 0 72 84 3 72 10211 73 73 0 1 26 0 25 0 0 0 0 81 1 74 74 69 25 0 78 0 0 77
 70 75 75 25 0 0 4 2 20 4 76 76 1 T74 20 76 2 0 74 78 0 0 0 0 0 0 0 0 0 0 0 0 0
 0 0 0 0 0 84 10 77 149321054681 1 78 78 3 25 74 0 0 0 79 84 4 79 50cm100 80 80
 81 0 0 1 0 0 0 1 0 0 0 1 0 0 0 1 0 ?11 81 81 0 1 25 80 1 0 24 0 0 81 1 82 82 69
 1 0 86 0 0 85 70 83 83 1 0 0 4 2 20 4 84 84 1 T74 20 84 2 0 82 86 0 0 0 0 0 0 0
 0 0 0 0 0 0 0 0 0 0 0 84 10 85 149321054681 1 86 86 3 1 82 0 0 0 87 84 4 87 Wir
e1 0 