                                                                        S      1
File generated by HOOPS Exchange Version 10.0.20                        S      2
                                                                        S      3
1H,,1H;,3HPin,8HPin.iges,14HHOOPS Exchange,7H10.0.20,32,24,8,56,15,3HPinG      1
,1.,2,2HMM,1000,1.,13H170428.090138,1D-007,10000.,,,9,0,13H170428.090138G      2
;                                                                       G      3
     502       1       1       0   65535       0       0       000010201D      1
     502    1000       0       5       1                               0D      2
     126       6       1       0       0       0       0       000010200D      3
     126    1000       0       3       0                               0D      4
     110       9       1       0       0       0       0       000010200D      5
     110    1000       0       1       0                               0D      6
     126      10       1       0       0       0       0       000010200D      7
     126    1000       0       3       0                               0D      8
     110      13       1       0       0       0       0       000010200D      9
     110    1000       0       1       0                               0D     10
     126      14       1       0       0       0       0       000010200D     11
     126    1000       0       3       0                               0D     12
     110      17       1       0       0       0       0       000010200D     13
     110    1000       0       1       0                               0D     14
     126      18       1       0       0       0       0       000010200D     15
     126    1000       0       3       0                               0D     16
     126      21       1       0       0       0       0       000010200D     17
     126    1000       0       3       0                               0D     18
     110      24       1       0       0       0       0       000010200D     19
     110    1000       0       1       0                               0D     20
     126      25       1       0       0       0       0       000010200D     21
     126    1000       0       3       0                               0D     22
     126      28       1       0       0       0       0       000010200D     23
     126    1000       0       3       0                               0D     24
     126      31       1       0       0       0       0       000010200D     25
     126    1000       0       3       0                               0D     26
     110      34       1       0       0       0       0       000010200D     27
     110    1000       0       1       0                               0D     28
     110      35       1       0       0       0       0       000010200D     29
     110    1000       0       1       0                               0D     30
     110      36       1       0       0       0       0       000010200D     31
     110    1000       0       1       0                               0D     32
     110      37       1       0       0       0       0       000010200D     33
     110    1000       0       1       0                               0D     34
     110      38       1       0       0       0       0       000010200D     35
     110    1000       0       1       0                               0D     36
     110      39       1       0       0       0       0       000010200D     37
     110    1000       0       1       0                               0D     38
     110      40       1       0       0       0       0       000010200D     39
     110    1000       0       1       0                               0D     40
     110      41       1       0       0       0       0       000010200D     41
     110    1000       0       1       0                               0D     42
     110      42       1       0       0       0       0       000010200D     43
     110    1000       0       1       0                               0D     44
     110      43       1       0       0       0       0       000010200D     45
     110    1000       0       1       0                               0D     46
     110      44       1       0       0       0       0       000010200D     47
     110    1000       0       1       0                               0D     48
     110      45       1       0       0       0       0       000010200D     49
     110    1000       0       1       0                               0D     50
     110      46       1       0       0       0       0       000010200D     51
     110    1000       0       1       0                               0D     52
     110      47       1       0       0       0       0       000010200D     53
     110    1000       0       1       0                               0D     54
     110      48       1       0       0       0       0       000010200D     55
     110    1000       0       1       0                               0D     56
     110      49       1       0       0       0       0       000010200D     57
     110    1000       0       1       0                               0D     58
     504      50       1       0   65535       0       0       000010201D     59
     504    1000       0       6       1                               0D     60
     128      56       1       0       0       0       0       000010200D     61
     128    1000       0       3       0                               0D     62
     508      59       1       0       0       0       0       000010001D     63
     508    1000       0       1       1                               0D     64
     510      60       1       0   65535       0       0       000010201D     65
     510    1000       0       1       1                               0D     66
     128      61       1       0       0       0       0       000010200D     67
     128    1000       0       3       0                               0D     68
     508      64       1       0       0       0       0       000010001D     69
     508    1000       0       1       1                               0D     70
     510      65       1       0   65535       0       0       000010201D     71
     510    1000       0       1       1                               0D     72
     128      66       1       0       0       0       0       000010200D     73
     128    1000       0       3       0                               0D     74
     508      69       1       0       0       0       0       000010001D     75
     508    1000       0       1       1                               0D     76
     510      70       1       0   65535       0       0       000010201D     77
     510    1000       0       1       1                               0D     78
     128      71       1       0       0       0       0       000010200D     79
     128    1000       0       3       0                               0D     80
     508      74       1       0       0       0       0       000010001D     81
     508    1000       0       1       1                               0D     82
     510      75       1       0   65535       0       0       000010201D     83
     510    1000       0       1       1                               0D     84
     128      76       1       0       0       0       0       000010200D     85
     128    1000       0       7       0                               0D     86
     508      83       1       0       0       0       0       000010001D     87
     508    1000       0       1       1                               0D     88
     510      84       1       0   65535       0       0       000010201D     89
     510    1000       0       1       1                               0D     90
     128      85       1       0       0       0       0       000010200D     91
     128    1000       0       5       0                               0D     92
     508      90       1       0       0       0       0       000010001D     93
     508    1000       0       1       1                               0D     94
     510      91       1       0   65535       0       0       000010201D     95
     510    1000       0       1       1                               0D     96
     128      92       1       0       0       0       0       000010200D     97
     128    1000       0       5       0                               0D     98
     508      97       1       0       0       0       0       000010001D     99
     508    1000       0       1       1                               0D    100
     510      98       1       0   65535       0       0       000010201D    101
     510    1000       0       1       1                               0D    102
     128      99       1       0       0       0       0       000010200D    103
     128    1000       0       5       0                               0D    104
     508     104       1       0       0       0       0       000010001D    105
     508    1000       0       1       1                               0D    106
     510     105       1       0   65535       0       0       000010201D    107
     510    1000       0       1       1                               0D    108
     128     106       1       0       0       0       0       000010200D    109
     128    1000       0       5       0                               0D    110
     508     111       1       0       0       0       0       000010001D    111
     508    1000       0       1       1                               0D    112
     510     112       1       0   65535       0       0       000010201D    113
     510    1000       0       1       1                               0D    114
     128     113       1       0       0       0       0       000010200D    115
     128    1000       0       7       0                               0D    116
     508     120       1       0       0       0       0       000010001D    117
     508    1000       0       1       1                               0D    118
     510     121       1       0   65535       0       0       000010201D    119
     510    1000       0       1       1                               0D    120
     128     122       1       0       0       0       0       000010200D    121
     128    1000       0       5       0                               0D    122
     508     127       1       0       0       0       0       000010001D    123
     508    1000       0       1       1                               0D    124
     510     128       1       0   65535       0       0       000010201D    125
     510    1000       0       1       1                               0D    126
     128     129       1       0       0       0       0       000010200D    127
     128    1000       0       6       0                               0D    128
     508     135       1       0       0       0       0       000010001D    129
     508    1000       0       1       1                               0D    130
     510     136       1       0   65535       0       0       000010201D    131
     510    1000       0       1       1                               0D    132
     128     137       1       0       0       0       0       000010200D    133
     128    1000       0       5       0                               0D    134
     508     142       1       0       0       0       0       000010001D    135
     508    1000       0       1       1                               0D    136
     510     143       1       0   65535       0       0       000010201D    137
     510    1000       0       1       1                               0D    138
     128     144       1       0       0       0       0       000010200D    139
     128    1000       0       5       0                               0D    140
     508     149       1       0       0       0       0       000010001D    141
     508    1000       0       1       1                               0D    142
     510     150       1       0   65535       0       0       000010201D    143
     510    1000       0       1       1                               0D    144
     514     151       1       0       0       0       0       000010200D    145
     514    1000       0       2       1                               0D    146
     186     153       1       0   65535       0       0       000020201D    147
     186    1000       0       1       0                               0D    148
     308     154       1       0   65535       0       0       000020201D    149
     308    1000       0       1       0                 Default       0D    150
     408     155       1       0   65535       0       0       000000001D    151
     408    1000       0       1       0                 Default       0D    152
502,16,0.325,-8.9,0.325,0.325,-8.9,-0.325,0.325,8.9,-0.325,            1P      1
0.325,8.9,0.325,-0.325,-8.9,-0.325,-0.325,8.9,-0.325,-0.325,           1P      2
-8.9,0.325,-0.325,8.9,0.325,0.2,9.4,0.2,0.2,9.4,-0.2,-0.2,9.4,         1P      3
-0.2,-0.2,9.4,0.2,0.2,-9.4,0.2,0.2,-9.4,-0.2,-0.2,-9.4,0.2,-0.2,       1P      4
-9.4,-0.2,0,0;                                                         1P      5
126,3,3,0,0,1,0,0.,0.,0.,0.,1.,1.,1.,1.,1.,1.,1.,1.,0.325,-8.9,        3P      6
0.325,0.325,-8.9,0.108333333333333,0.325,-8.9,                         3P      7
-0.108333333333333,0.325,-8.9,-0.325,0.,1.,0.,0.,0.,0,0;               3P      8
110,0.325,8.9,-0.325,0.325,-8.9,-0.325,0,0;                            5P      9
126,3,3,0,0,1,0,0.,0.,0.,0.,1.,1.,1.,1.,1.,1.,1.,1.,0.325,8.9,         7P     10
0.325,0.325,8.9,0.108333333333333,0.325,8.9,-0.108333333333333,        7P     11
0.325,8.9,-0.325,0.,1.,0.,0.,0.,0,0;                                   7P     12
110,0.325,8.9,0.325,0.325,-8.9,0.325,0,0;                              9P     13
126,3,3,0,0,1,0,0.,0.,0.,0.,1.,1.,1.,1.,1.,1.,1.,1.,0.325,-8.9,       11P     14
-0.325,0.108333333333333,-8.9,-0.325,-0.108333333333333,-8.9,         11P     15
-0.325,-0.325,-8.9,-0.325,0.,1.,0.,0.,0.,0,0;                         11P     16
110,-0.325,8.9,-0.325,-0.325,-8.9,-0.325,0,0;                         13P     17
126,3,3,0,0,1,0,0.,0.,0.,0.,1.,1.,1.,1.,1.,1.,1.,1.,0.325,8.9,        15P     18
-0.325,0.108333333333333,8.9,-0.325,-0.108333333333333,8.9,           15P     19
-0.325,-0.325,8.9,-0.325,0.,1.,0.,0.,0.,0,0;                          15P     20
126,3,3,0,0,1,0,0.,0.,0.,0.,1.,1.,1.,1.,1.,1.,1.,1.,-0.325,-8.9,      17P     21
-0.325,-0.325,-8.9,-0.108333333333333,-0.325,-8.9,                    17P     22
0.108333333333333,-0.325,-8.9,0.325,0.,1.,0.,0.,0.,0,0;               17P     23
110,-0.325,8.9,0.325,-0.325,-8.9,0.325,0,0;                           19P     24
126,3,3,0,0,1,0,0.,0.,0.,0.,1.,1.,1.,1.,1.,1.,1.,1.,-0.325,8.9,       21P     25
-0.325,-0.325,8.9,-0.108333333333333,-0.325,8.9,                      21P     26
0.108333333333333,-0.325,8.9,0.325,0.,1.,0.,0.,0.,0,0;                21P     27
126,3,3,0,0,1,0,0.,0.,0.,0.,1.,1.,1.,1.,1.,1.,1.,1.,-0.325,-8.9,      23P     28
0.325,-0.108333333333333,-8.9,0.325,0.108333333333333,-8.9,           23P     29
0.325,0.325,-8.9,0.325,0.,1.,0.,0.,0.,0,0;                            23P     30
126,3,3,0,0,1,0,0.,0.,0.,0.,1.,1.,1.,1.,1.,1.,1.,1.,-0.325,8.9,       25P     31
0.325,-0.108333333333333,8.9,0.325,0.108333333333333,8.9,0.325,       25P     32
0.325,8.9,0.325,0.,1.,0.,0.,0.,0,0;                                   25P     33
110,0.2,9.4,0.2,0.2,9.4,-0.2,0,0;                                     27P     34
110,0.2,9.4,-0.2,-0.2,9.4,-0.2,0,0;                                   29P     35
110,-0.2,9.4,-0.2,-0.2,9.4,0.2,0,0;                                   31P     36
110,-0.2,9.4,0.2,0.2,9.4,0.2,0,0;                                     33P     37
110,-0.325,8.9,0.325,-0.2,9.4,0.2,0,0;                                35P     38
110,-0.325,8.9,-0.325,-0.2,9.4,-0.2,0,0;                              37P     39
110,0.325,8.9,-0.325,0.2,9.4,-0.2,0,0;                                39P     40
110,0.325,8.9,0.325,0.2,9.4,0.2,0,0;                                  41P     41
110,0.2,-9.4,0.2,0.2,-9.4,-0.2,0,0;                                   43P     42
110,-0.2,-9.4,0.2,0.2,-9.4,0.2,0,0;                                   45P     43
110,-0.2,-9.4,-0.2,-0.2,-9.4,0.2,0,0;                                 47P     44
110,0.2,-9.4,-0.2,-0.2,-9.4,-0.2,0,0;                                 49P     45
110,-0.325,-8.9,0.325,-0.2,-9.4,0.2,0,0;                              51P     46
110,-0.325,-8.9,-0.325,-0.2,-9.4,-0.2,0,0;                            53P     47
110,0.325,-8.9,-0.325,0.2,-9.4,-0.2,0,0;                              55P     48
110,0.325,-8.9,0.325,0.2,-9.4,0.2,0,0;                                57P     49
504,28,3,1,1,1,2,5,1,3,1,2,7,1,4,1,3,9,1,4,1,1,11,1,2,1,5,13,1,       59P     50
6,1,5,15,1,3,1,6,17,1,5,1,7,19,1,8,1,7,21,1,6,1,8,23,1,7,1,1,25,      59P     51
1,8,1,4,27,1,9,1,10,29,1,10,1,11,31,1,11,1,12,33,1,12,1,9,35,1,       59P     52
8,1,12,37,1,6,1,11,39,1,3,1,10,41,1,4,1,9,43,1,13,1,14,45,1,15,       59P     53
1,13,47,1,16,1,15,49,1,14,1,16,51,1,7,1,15,53,1,5,1,16,55,1,2,1,      59P     54
14,57,1,1,1,13,0,0;                                                   59P     55
128,1,1,1,1,0,0,1,0,0,-0.65,-0.65,0.,0.,-18.3,-18.3,-0.5,-0.5,        61P     56
1.,1.,1.,1.,0.325,-8.9,-0.325,0.325,-8.9,0.325,0.325,8.9,-0.325,      61P     57
0.325,8.9,0.325,-0.65,0.,-18.3,-0.5,0,0;                              61P     58
508,4,0,59,4,0,0,0,59,3,1,0,0,59,2,1,0,0,59,1,0,0,0,0;                63P     59
510,61,1,1,63,0,0;                                                    65P     60
128,1,1,1,1,0,0,1,0,0,0.,0.,0.65,0.65,-18.3,-18.3,-0.5,-0.5,1.,       67P     61
1.,1.,1.,-0.325,-8.9,-0.325,0.325,-8.9,-0.325,-0.325,8.9,-0.325,      67P     62
0.325,8.9,-0.325,0.,0.65,-18.3,-0.5,0,0;                              67P     63
508,4,0,59,2,0,0,0,59,7,1,0,0,59,6,1,0,0,59,5,0,0,0,0;                69P     64
510,67,1,1,69,0,0;                                                    71P     65
128,1,1,1,1,0,0,1,0,0,0.,0.,0.65,0.65,-18.3,-18.3,-0.5,-0.5,1.,       73P     66
1.,1.,1.,-0.325,-8.9,0.325,-0.325,-8.9,-0.325,-0.325,8.9,0.325,       73P     67
-0.325,8.9,-0.325,0.,0.65,-18.3,-0.5,0,0;                             73P     68
508,4,0,59,6,0,0,0,59,10,1,0,0,59,9,1,0,0,59,8,0,0,0,0;               75P     69
510,73,1,1,75,0,0;                                                    77P     70
128,1,1,1,1,0,0,1,0,0,-0.65,-0.65,0.,0.,-18.3,-18.3,-0.5,-0.5,        79P     71
1.,1.,1.,1.,0.325,-8.9,0.325,-0.325,-8.9,0.325,0.325,8.9,0.325,       79P     72
-0.325,8.9,0.325,-0.65,0.,-18.3,-0.5,0,0;                             79P     73
508,4,0,59,9,0,0,0,59,12,1,0,0,59,4,1,0,0,59,11,0,0,0,0;              81P     74
510,79,1,1,81,0,0;                                                    83P     75
128,1,1,1,1,0,0,1,0,0,-0.2000000000004,-0.2000000000004,              85P     76
0.2000000000004,0.2000000000004,-0.2000000000004,                     85P     77
-0.2000000000004,0.2000000000004,0.2000000000004,1.,1.,1.,1.,         85P     78
-0.2000000000004,9.4,0.2000000000004,-0.2000000000004,9.4,            85P     79
-0.2000000000004,0.2000000000004,9.4,0.2000000000004,                 85P     80
0.2000000000004,9.4,-0.2000000000004,-0.2000000000004,                85P     81
0.2000000000004,-0.2000000000004,0.2000000000004,0,0;                 85P     82
508,4,0,59,16,0,0,0,59,15,0,0,0,59,14,0,0,0,59,13,0,0,0,0;            87P     83
510,85,1,1,87,0,0;                                                    89P     84
128,1,1,1,1,0,0,1,0,0,8.55544417315665,8.55544417315665,              91P     85
9.07083237635886,9.07083237635886,-0.325,-0.325,0.325,0.325,1.,       91P     86
1.,1.,1.,-0.325,8.9,-0.325,-0.199999999999999,9.40000000000001,       91P     87
-0.325,-0.325,8.9,0.325,-0.199999999999999,9.40000000000001,          91P     88
0.325,8.55544417315665,9.07083237635886,-0.325,0.325,0,0;             91P     89
508,4,0,59,10,0,0,0,59,18,1,0,0,59,15,1,0,0,59,17,0,0,0,0;            93P     90
510,91,1,1,93,0,0;                                                    95P     91
128,1,1,1,1,0,0,1,0,0,-9.07083237635886,-9.07083237635886,            97P     92
-8.55544417315665,-8.55544417315665,-0.325,-0.325,0.325,0.325,        97P     93
1.,1.,1.,1.,-0.325,9.40000000000001,-0.199999999999999,-0.325,        97P     94
8.9,-0.325,0.325,9.40000000000001,-0.199999999999999,0.325,8.9,       97P     95
-0.325,-9.07083237635886,-8.55544417315665,-0.325,0.325,0,0;          97P     96
508,4,0,59,7,0,0,0,59,19,1,0,0,59,14,1,0,0,59,18,0,0,0,0;             99P     97
510,97,1,1,99,0,0;                                                   101P     98
128,1,1,1,1,0,0,1,0,0,8.55544417315665,8.55544417315665,             103P     99
9.07083237635886,9.07083237635886,-0.325,-0.325,0.325,0.325,1.,      103P    100
1.,1.,1.,-0.325,8.9,0.325,-0.325,9.4,0.199999999999999,0.325,        103P    101
8.9,0.325,0.325,9.4,0.199999999999999,8.55544417315665,              103P    102
9.07083237635886,-0.325,0.325,0,0;                                   103P    103
508,4,0,59,12,0,0,0,59,17,1,0,0,59,16,1,0,0,59,20,0,0,0,0;           105P    104
510,103,1,1,105,0,0;                                                 107P    105
128,1,1,1,1,0,0,1,0,0,-9.07083237635886,-9.07083237635886,           109P    106
-8.55544417315665,-8.55544417315665,-0.325,-0.325,0.325,0.325,       109P    107
1.,1.,1.,1.,0.2,9.40000000000001,-0.325,0.325000000000001,8.9,       109P    108
-0.325,0.2,9.40000000000001,0.325,0.325000000000001,8.9,0.325,       109P    109
-9.07083237635886,-8.55544417315665,-0.325,0.325,0,0;                109P    110
508,4,0,59,3,0,0,0,59,20,1,0,0,59,13,1,0,0,59,19,0,0,0,0;            111P    111
510,109,1,1,111,0,0;                                                 113P    112
128,1,1,1,1,0,0,1,0,0,-0.2000000000004,-0.2000000000004,             115P    113
0.2000000000004,0.2000000000004,-0.2000000000004,                    115P    114
-0.2000000000004,0.2000000000004,0.2000000000004,1.,1.,1.,1.,        115P    115
0.2000000000004,-9.4,0.2000000000004,0.2000000000004,-9.4,           115P    116
-0.2000000000004,-0.2000000000004,-9.4,0.2000000000004,              115P    117
-0.2000000000004,-9.4,-0.2000000000004,-0.2000000000004,             115P    118
0.2000000000004,-0.2000000000004,0.2000000000004,0,0;                115P    119
508,4,0,59,24,1,0,0,59,23,1,0,0,59,22,1,0,0,59,21,1,0,0,0;           117P    120
510,115,1,1,117,0,0;                                                 119P    121
128,1,1,1,1,0,0,1,0,0,8.55544417315665,8.55544417315665,             121P    122
9.07083237635886,9.07083237635886,-0.325,-0.325,0.325,0.325,1.,      121P    123
1.,1.,1.,-0.325,-8.9,0.325,-0.199999999999999,-9.40000000000001,     121P    124
0.325,-0.325,-8.9,-0.325,-0.199999999999999,-9.40000000000001,       121P    125
-0.325,8.55544417315665,9.07083237635886,-0.325,0.325,0,0;           121P    126
508,4,0,59,23,0,0,0,59,26,0,0,0,59,8,1,0,0,59,25,1,0,0,0;            123P    127
510,121,1,1,123,0,0;                                                 125P    128
128,1,1,1,1,0,0,1,0,0,-9.07083237635886,-9.07083237635886,           127P    129
-8.55544417315665,-8.55544417315665,-0.325,-0.325,0.325,0.325,       127P    130
1.,1.,1.,1.,0.325,-9.40000000000001,-0.199999999999999,0.325,        127P    131
-8.9,-0.325,-0.325,-9.40000000000001,-0.199999999999999,-0.325,      127P    132
-8.9,-0.325,-9.07083237635886,-8.55544417315665,-0.325,0.325,0,      127P    133
0;                                                                   127P    134
508,4,0,59,24,0,0,0,59,27,0,0,0,59,5,1,0,0,59,26,1,0,0,0;            129P    135
510,127,1,1,129,0,0;                                                 131P    136
128,1,1,1,1,0,0,1,0,0,8.55544417315665,8.55544417315665,             133P    137
9.07083237635886,9.07083237635886,-0.325,-0.325,0.325,0.325,1.,      133P    138
1.,1.,1.,0.325,-8.9,0.325,0.325,-9.4,0.199999999999999,-0.325,       133P    139
-8.9,0.325,-0.325,-9.4,0.199999999999999,8.55544417315665,           133P    140
9.07083237635886,-0.325,0.325,0,0;                                   133P    141
508,4,0,59,22,0,0,0,59,25,0,0,0,59,11,1,0,0,59,28,1,0,0,0;           135P    142
510,133,1,1,135,0,0;                                                 137P    143
128,1,1,1,1,0,0,1,0,0,-9.07083237635886,-9.07083237635886,           139P    144
-8.55544417315665,-8.55544417315665,-0.325,-0.325,0.325,0.325,       139P    145
1.,1.,1.,1.,0.2,-9.40000000000001,0.325,0.325000000000001,-8.9,      139P    146
0.325,0.2,-9.40000000000001,-0.325,0.325000000000001,-8.9,           139P    147
-0.325,-9.07083237635886,-8.55544417315665,-0.325,0.325,0,0;         139P    148
508,4,0,59,21,0,0,0,59,28,0,0,0,59,1,1,0,0,59,27,1,0,0,0;            141P    149
510,139,1,1,141,0,0;                                                 143P    150
514,14,65,0,71,0,77,0,83,0,89,0,95,0,101,0,107,0,113,0,119,0,        145P    151
125,0,131,0,137,0,143,0,0,0;                                         145P    152
186,145,1,0;0,0;                                                     147P    153
308,1,7HDefault,1,147,0,0;                                           149P    154
408,149,0.,0.,0.,1.,0,0;                                             151P    155
S      3G      3D    152P    155                                        T      1
