                                                                        S      1
File generated by HOOPS Exchange Version 10.0.20                        S      2
                                                                        S      3
1H,,1H;,4HWire,9HWire.iges,14HHOOPS Exchange,7H10.0.20,32,24,8,56,15,4HWG      1
ire,1.,2,2HMM,1000,1.,13H170428.090151,1D-007,10000.,,,9,0,13H170428.090G      2
151;                                                                    G      3
     308       1       1       0   65535       0       0       000020201D      1
     308    1000       0       1       0                    15cm       0D      2
     408       2       1       0   65535       0       0       000000001D      3
     408    1000       0       1       0                    15cm       0D      4
     308       3       1       0   65535       0       0       000020201D      5
     308    1000       0       1       0                    20cm       0D      6
     408       4       1       0   65535       0       0       000000001D      7
     408    1000       0       1       0                    20cm       0D      8
     308       5       1       0   65535       0       0       000020201D      9
     308    1000       0       1       0                    30cm       0D     10
     408       6       1       0   65535       0       0       000000001D     11
     408    1000       0       1       0                    30cm       0D     12
     502       7       1       0   65535       0       0       000010201D     13
     502    1000       0       3       1                               0D     14
     124      10       1       0       0       0       0       001010200D     15
     124    1000       0       1       0                               0D     16
     100      11       1       0       0       0      15       000010200D     17
     100    1000       0       1       0                               0D     18
     124      12       1       0       0       0       0       001010200D     19
     124    1000       0       1       0                               0D     20
     100      13       1       0       0       0      19       000010200D     21
     100    1000       0       2       0                               0D     22
     126      15       1       0       0       0       0       000010200D     23
     126    1000       0      17       0                               0D     24
     124      32       1       0       0       0       0       001010200D     25
     124    1000       0       3       0                               0D     26
     100      35       1       0       0       0      25       000010200D     27
     100    1000       0       2       0                               0D     28
     126      37       1       0       0       0       0       000010200D     29
     126    1000       0      12       0                               0D     30
     124      49       1       0       0       0       0       001010200D     31
     124    1000       0       3       0                               0D     32
     100      52       1       0       0       0      31       000010200D     33
     100    1000       0       1       0                               0D     34
     504      53       1       0   65535       0       0       000010201D     35
     504    1000       0       2       1                               0D     36
     128      55       1       0       0       0       0       000010200D     37
     128    1000       0       3       0                               0D     38
     508      58       1       0       0       0       0       000010001D     39
     508    1000       0       1       1                               0D     40
     510      59       1       0   65535       0       0       000010201D     41
     510    1000       0       1       1                               0D     42
     314      60       1       0       0       0       0       000020200D     43
     314    1000       0       2       0                               0D     44
     128      62       1       0       0       0       0       000010200D     45
     128    1000     -43      88       0                               0D     46
     508     150       1       0       0       0       0       000010001D     47
     508    1000       0       1       1                               0D     48
     510     151       1       1   65535       0       0       000010201D     49
     510    1000     -43       1       1                               0D     50
     128     152       1       0       0       0       0       000010200D     51
     128    1000       0       6       0                               0D     52
     508     158       1       0       0       0       0       000010001D     53
     508    1000       0       1       1                               0D     54
     510     159       1       0   65535       0       0       000010201D     55
     510    1000       0       1       1                               0D     56
     128     160       1       0       0       0       0       000010200D     57
     128    1000     -43      88       0                               0D     58
     508     248       1       0       0       0       0       000010001D     59
     508    1000       0       1       1                               0D     60
     510     249       1       1   65535       0       0       000010201D     61
     510    1000     -43       1       1                               0D     62
     514     250       1       0       0       0       0       000010200D     63
     514    1000       0       1       1                               0D     64
     186     251       1       0   65535       0       0       000020201D     65
     186    1000       0       1       0                               0D     66
     308     252       1       0   65535       0       0       000020201D     67
     308    1000       0       1       0                    50cm       0D     68
     408     253       1       0   65535       0       0       000000001D     69
     408    1000       0       1       0                    50cm       0D     70
308,1,4H15cm,0,0,0;                                                    1P      1
408,1,0.,0.,0.,1.,0,0;                                                 3P      2
308,1,4H20cm,0,0,0;                                                    5P      3
408,5,0.,0.,0.,1.,0,0;                                                 7P      4
308,1,4H30cm,0,0,0;                                                    9P      5
408,9,0.,0.,0.,1.,0,0;                                                11P      6
502,4,0.45,0.,0.,-0.45,5.51091059616309D-017,0.,250.37299586312,      13P      7
5.51091059616309D-017,-0.251742102349595,249.62700413688,0.,          13P      8
0.251742102349595,0,0;                                                13P      9
124,1.,0.,0.,0.,0.,1.,0.,0.,0.,0.,1.,0.,0,0;                          15P     10
100,0.,0.,0.,0.45,0.,-0.45,5.51091059616309D-017,0,0;                 17P     11
124,1.,0.,0.,0.,0.,1.,0.,0.,0.,0.,1.,0.,0,0;                          19P     12
100,0.,0.,0.,-0.45,5.51091059616309D-017,0.45,                        21P     13
-1.10218211923262D-016,0,0;                                           21P     14
126,13,3,0,0,1,0,0.,0.,0.,0.,0.25,0.25,0.375,0.375,0.5,0.5,           23P     15
0.625,0.625,0.75,0.75,1.,1.,1.,1.,1.,1.,1.,1.,1.,1.,1.,1.,1.,1.,      23P     16
1.,1.,1.,1.,250.37299586312,5.51091059616309D-017,                    23P     17
-0.251742102349595,229.527926589491,5.51091059616309D-017,            23P     18
-68.3775122696518,208.681701507766,5.51091059616309D-017,             23P     19
-119.482239731244,177.356725352565,5.51091059616309D-017,             23P     20
-170.629940548514,166.905092168705,5.51091059616309D-017,             23P     21
-183.429933764941,145.935707034281,5.51091059616309D-017,             23P     22
-200.512692348648,135.402271869647,5.51091059616309D-017,             23P     23
-204.79132297029,114.334472127208,5.51091059616309D-017,              23P     24
-204.719603209083,103.833245692428,5.51091059616309D-017,             23P     25
-200.379389287314,82.9182812787781,5.51091059616309D-017,             23P     26
-183.23004477277,72.4892307140233,5.51091059616309D-017,              23P     27
-170.415567773214,41.21423866229,5.51091059616309D-017,               23P     28
-119.23728818019,20.3833333333335,5.51091059616309D-017,              23P     29
-68.1293600160523,-0.45,5.51091059616309D-017,0.,0.,1.,0.,0.,0.,      23P     30
0,0;                                                                  23P     31
124,-0.828879695822139,0.,-0.559426894110212,250.,0.,1.,0.,0.,        25P     32
0.559426894110212,0.,-0.828879695822139,4.16075171259708D-030,0,      25P     33
0;                                                                    25P     34
100,0.,0.,0.,-0.45,5.51091059616309D-017,0.45,                        27P     35
-1.10218211923262D-016,0,0;                                           27P     36
126,13,3,0,0,1,0,0.,0.,0.,0.,0.25,0.25,0.375,0.375,0.5,0.5,           29P     37
0.625,0.625,0.75,0.75,1.,1.,1.,1.,1.,1.,1.,1.,1.,1.,1.,1.,1.,1.,      29P     38
1.,1.,1.,1.,249.62700413688,0.,0.251742102349595,                     29P     39
228.805406739889,0.,-67.8392507454048,207.984965158901,0.,            29P     40
-118.897095543291,176.809941314102,0.,-169.911966990009,              29P     41
166.428241164629,0.,-182.652616837681,145.730959632385,0.,            29P     42
-199.624049008381,135.431061463759,0.,-203.858966074858,              29P     43
114.832194539387,0.,-203.930685836064,104.500087640719,0.,            29P     44
-199.757352068664,83.7483853880753,0.,-182.852505830904,              29P     45
73.3441026192407,0.,-170.12633976463,42.1190946711818,0.,             29P     46
-119.142047095704,21.2833333333334,0.,-68.0874029989968,0.45,0.,      29P     47
0.,0.,1.,0.,0.,0.,0,0;                                                29P     48
124,-0.828879695822139,0.,-0.559426894110212,250.,0.,1.,0.,0.,        31P     49
0.559426894110212,0.,-0.828879695822139,4.16075171259708D-030,0,      31P     50
0;                                                                    31P     51
100,0.,0.,0.,0.45,0.,-0.45,5.51091059616309D-017,0,0;                 33P     52
504,6,17,13,1,13,2,21,13,2,13,1,23,13,3,13,2,27,13,3,13,4,29,13,      35P     53
4,13,1,33,13,4,13,3,0,0;                                              35P     54
128,1,1,1,1,0,0,1,0,0,-0.45,-0.45,0.45,0.45,-0.45,-0.45,0.45,         37P     55
0.45,1.,1.,1.,1.,-0.45,-0.45,0.,0.45,-0.45,0.,-0.45,0.45,0.,          37P     56
0.45,0.45,0.,-0.45,0.45,-0.45,0.45,0,0;                               37P     57
508,2,0,35,1,1,0,0,35,2,1,0,0,0;                                      39P     58
510,37,1,1,39,0,0;                                                    41P     59
314,69.4117660522461,9.80392169952393,9.80392169952393,5HCOLOR,       43P     60
0,0;                                                                  43P     61
128,6,13,3,3,0,0,0,0,0,0.,0.,0.,0.,0.5,0.5,0.5,1.,1.,1.,1.,0.,        45P     62
0.,0.,0.,0.25,0.25,0.375,0.375,0.5,0.5,0.625,0.625,0.75,0.75,1.,      45P     63
1.,1.,1.,1.,0.333333333333333,0.333333333333333,1.,                   45P     64
0.333333333333333,0.333333333333333,1.,1.,0.333333333333333,          45P     65
0.333333333333333,1.,0.333333333333333,0.333333333333333,1.,1.,       45P     66
0.333333333333333,0.333333333333333,1.,0.333333333333333,             45P     67
0.333333333333333,1.,1.,0.333333333333333,0.333333333333333,1.,       45P     68
0.333333333333333,0.333333333333333,1.,1.,0.333333333333333,          45P     69
0.333333333333333,1.,0.333333333333333,0.333333333333333,1.,1.,       45P     70
0.333333333333333,0.333333333333333,1.,0.333333333333333,             45P     71
0.333333333333333,1.,1.,0.333333333333333,0.333333333333333,1.,       45P     72
0.333333333333333,0.333333333333333,1.,1.,0.333333333333333,          45P     73
0.333333333333333,1.,0.333333333333333,0.333333333333333,1.,1.,       45P     74
0.333333333333333,0.333333333333333,1.,0.333333333333333,             45P     75
0.333333333333333,1.,1.,0.333333333333333,0.333333333333333,1.,       45P     76
0.333333333333333,0.333333333333333,1.,1.,0.333333333333333,          45P     77
0.333333333333333,1.,0.333333333333333,0.333333333333333,1.,1.,       45P     78
0.333333333333333,0.333333333333333,1.,0.333333333333333,             45P     79
0.333333333333333,1.,1.,0.333333333333333,0.333333333333333,1.,       45P     80
0.333333333333333,0.333333333333333,1.,1.,0.333333333333333,          45P     81
0.333333333333333,1.,0.333333333333333,0.333333333333333,1.,          45P     82
0.45,0.,0.,0.45,0.9,0.,-0.45,0.9,0.,-0.45,5.51091059616309D-017,      45P     83
0.,-0.45,-0.9,0.,0.45,-0.9,0.,0.45,0.,0.,21.2833333333334,0.,         45P     84
-68.0874029989968,21.2833333333334,0.9,-68.0874029989968,             45P     85
20.3833333333335,0.9,-68.1293600160523,20.3833333333335,              45P     86
5.51091059616309D-017,-68.1293600160523,20.3833333333335,-0.9,        45P     87
-68.1293600160523,21.2833333333334,-0.9,-68.0874029989968,            45P     88
21.2833333333334,0.,-68.0874029989968,42.1190946711818,0.,            45P     89
-119.142047095704,42.1190946711818,0.9,-119.142047095704,             45P     90
41.2142386622208,0.9,-119.23728818019,41.21423866229,                 45P     91
5.51091059616309D-017,-119.23728818019,41.2142386623593,-0.9,         45P     92
-119.23728818019,42.1190946711818,-0.9,-119.142047095704,             45P     93
42.1190946711818,0.,-119.142047095704,73.3441026192407,0.,            45P     94
-170.12633976463,73.3441026192407,0.9,-170.12633976463,               45P     95
72.4892307140579,0.9,-170.415567773214,72.4892307140233,              45P     96
5.51091059616309D-017,-170.415567773214,72.4892307139887,-0.9,        45P     97
-170.415567773214,73.3441026192407,-0.9,-170.12633976463,             45P     98
73.3441026192407,0.,-170.12633976463,83.7483853880753,0.,             45P     99
-182.852505830904,83.7483853880753,0.9,-182.852505830904,             45P    100
82.9182812787781,0.9,-183.23004477277,82.9182812787781,               45P    101
5.51091059616309D-017,-183.23004477277,82.9182812787781,-0.9,         45P    102
-183.23004477277,83.7483853880753,-0.9,-182.852505830904,             45P    103
83.7483853880753,0.,-182.852505830904,104.500087640719,0.,            45P    104
-199.757352068664,104.500087640719,0.9,-199.757352068664,             45P    105
103.833245692428,0.9,-200.379389287314,103.833245692428,              45P    106
5.51091059616309D-017,-200.379389287314,103.833245692428,-0.9,        45P    107
-200.379389287314,104.500087640719,-0.9,-199.757352068664,            45P    108
104.500087640719,0.,-199.757352068664,114.832194539387,0.,            45P    109
-203.930685836064,114.832194539387,0.9,-203.930685836064,             45P    110
114.334472127208,0.9,-204.719603209083,114.334472127208,              45P    111
5.51091059616309D-017,-204.719603209083,114.334472127208,-0.9,        45P    112
-204.719603209083,114.832194539387,-0.9,-203.930685836064,            45P    113
114.832194539387,0.,-203.930685836064,135.431061463759,0.,            45P    114
-203.858966074858,135.431061463759,0.9,-203.858966074858,             45P    115
135.402271869647,0.9,-204.79132297029,135.402271869647,               45P    116
5.51091059616309D-017,-204.79132297029,135.402271869647,-0.9,         45P    117
-204.79132297029,135.431061463759,-0.9,-203.858966074858,             45P    118
135.431061463759,0.,-203.858966074858,145.730959632385,0.,            45P    119
-199.624049008381,145.730959632385,0.9,-199.624049008381,             45P    120
145.935707034281,0.9,-200.512692348648,145.935707034281,              45P    121
5.51091059616309D-017,-200.512692348648,145.935707034281,-0.9,        45P    122
-200.512692348648,145.730959632385,-0.9,-199.624049008381,            45P    123
145.730959632385,0.,-199.624049008381,166.428241164629,0.,            45P    124
-182.652616837681,166.428241164629,0.9,-182.652616837681,             45P    125
166.905092168705,0.9,-183.429933764941,166.905092168705,              45P    126
5.51091059616309D-017,-183.429933764941,166.905092168705,-0.9,        45P    127
-183.429933764941,166.428241164629,-0.9,-182.652616837681,            45P    128
166.428241164629,0.,-182.652616837681,176.809941314102,0.,            45P    129
-169.911966990009,176.809941314102,0.9,-169.911966990009,             45P    130
177.356725352565,0.9,-170.629940548514,177.356725352565,              45P    131
5.51091059616309D-017,-170.629940548514,177.356725352565,-0.9,        45P    132
-170.629940548514,176.809941314102,-0.9,-169.911966990009,            45P    133
176.809941314102,0.,-169.911966990009,207.984965158901,0.,            45P    134
-118.897095543291,207.984965158901,0.9,-118.897095543291,             45P    135
208.681701507766,0.9,-119.482239731244,208.681701507766,              45P    136
5.51091059616309D-017,-119.482239731244,208.681701507766,-0.9,        45P    137
-119.482239731244,207.984965158901,-0.9,-118.897095543291,            45P    138
207.984965158901,0.,-118.897095543291,228.805406739889,0.,            45P    139
-67.8392507454048,228.805406739889,0.9,-67.8392507454048,             45P    140
229.527926589491,0.9,-68.3775122696509,229.527926589491,              45P    141
5.51091059616309D-017,-68.3775122696518,229.527926589491,-0.9,        45P    142
-68.3775122696528,228.805406739889,-0.9,-67.8392507454048,            45P    143
228.805406739889,0.,-67.8392507454048,249.62700413688,0.,             45P    144
0.251742102349595,249.62700413688,0.9,0.251742102349595,              45P    145
250.37299586312,0.9,-0.251742102349595,250.37299586312,               45P    146
5.51091059616309D-017,-0.251742102349595,250.37299586312,-0.9,        45P    147
-0.251742102349595,249.62700413688,-0.9,0.251742102349595,            45P    148
249.62700413688,0.,0.251742102349595,0.,1.,0.,1.,0,0;                 45P    149
508,4,0,35,2,1,0,0,35,5,0,0,0,35,4,0,0,0,35,3,1,0,0,0;                47P    150
510,45,1,1,47,0,0;                                                    49P    151
128,1,1,1,1,0,0,1,0,0,-0.45000000000004,-0.45000000000004,            51P    152
0.449999999999994,0.449999999999994,-0.45,-0.45,0.45,0.45,1.,1.,      51P    153
1.,1.,250.37299586312,-0.45,-0.251742102349618,249.62700413688,       51P    154
-0.45,0.251742102349592,250.37299586312,0.45,-0.251742102349618,      51P    155
249.62700413688,0.45,0.251742102349592,-0.45000000000004,             51P    156
0.449999999999994,-0.45,0.45,0,0;                                     51P    157
508,2,0,35,6,1,0,0,35,4,1,0,0,0;                                      53P    158
510,51,1,1,53,0,0;                                                    55P    159
128,6,13,3,3,0,0,0,0,0,0.,0.,0.,0.,0.5,0.5,0.5,1.,1.,1.,1.,0.,        57P    160
0.,0.,0.,0.25,0.25,0.375,0.375,0.5,0.5,0.625,0.625,0.75,0.75,1.,      57P    161
1.,1.,1.,1.,0.333333333333333,0.333333333333333,1.,                   57P    162
0.333333333333333,0.333333333333333,1.,1.,0.333333333333333,          57P    163
0.333333333333333,1.,0.333333333333333,0.333333333333333,1.,1.,       57P    164
0.333333333333333,0.333333333333333,1.,0.333333333333333,             57P    165
0.333333333333333,1.,1.,0.333333333333333,0.333333333333333,1.,       57P    166
0.333333333333333,0.333333333333333,1.,1.,0.333333333333333,          57P    167
0.333333333333333,1.,0.333333333333333,0.333333333333333,1.,1.,       57P    168
0.333333333333333,0.333333333333333,1.,0.333333333333333,             57P    169
0.333333333333333,1.,1.,0.333333333333333,0.333333333333333,1.,       57P    170
0.333333333333333,0.333333333333333,1.,1.,0.333333333333333,          57P    171
0.333333333333333,1.,0.333333333333333,0.333333333333333,1.,1.,       57P    172
0.333333333333333,0.333333333333333,1.,0.333333333333333,             57P    173
0.333333333333333,1.,1.,0.333333333333333,0.333333333333333,1.,       57P    174
0.333333333333333,0.333333333333333,1.,1.,0.333333333333333,          57P    175
0.333333333333333,1.,0.333333333333333,0.333333333333333,1.,1.,       57P    176
0.333333333333333,0.333333333333333,1.,0.333333333333333,             57P    177
0.333333333333333,1.,1.,0.333333333333333,0.333333333333333,1.,       57P    178
0.333333333333333,0.333333333333333,1.,1.,0.333333333333333,          57P    179
0.333333333333333,1.,0.333333333333333,0.333333333333333,1.,          57P    180
0.45,0.,0.,0.45,0.9,0.,-0.45,0.9,0.,-0.45,5.51091059616309D-017,      57P    181
0.,-0.45,-0.9,0.,0.45,-0.9,0.,0.45,0.,0.,21.2833333333334,0.,         57P    182
-68.0874029989968,21.2833333333334,0.9,-68.0874029989968,             57P    183
20.3833333333335,0.9,-68.1293600160523,20.3833333333335,              57P    184
5.51091059616309D-017,-68.1293600160523,20.3833333333335,-0.9,        57P    185
-68.1293600160523,21.2833333333334,-0.9,-68.0874029989968,            57P    186
21.2833333333334,0.,-68.0874029989968,42.1190946711818,0.,            57P    187
-119.142047095704,42.1190946711818,0.9,-119.142047095704,             57P    188
41.2142386622208,0.9,-119.23728818019,41.21423866229,                 57P    189
5.51091059616309D-017,-119.23728818019,41.2142386623593,-0.9,         57P    190
-119.23728818019,42.1190946711818,-0.9,-119.142047095704,             57P    191
42.1190946711818,0.,-119.142047095704,73.3441026192407,0.,            57P    192
-170.12633976463,73.3441026192407,0.9,-170.12633976463,               57P    193
72.4892307140579,0.9,-170.415567773214,72.4892307140233,              57P    194
5.51091059616309D-017,-170.415567773214,72.4892307139887,-0.9,        57P    195
-170.415567773214,73.3441026192407,-0.9,-170.12633976463,             57P    196
73.3441026192407,0.,-170.12633976463,83.7483853880753,0.,             57P    197
-182.852505830904,83.7483853880753,0.9,-182.852505830904,             57P    198
82.9182812787781,0.9,-183.23004477277,82.9182812787781,               57P    199
5.51091059616309D-017,-183.23004477277,82.9182812787781,-0.9,         57P    200
-183.23004477277,83.7483853880753,-0.9,-182.852505830904,             57P    201
83.7483853880753,0.,-182.852505830904,104.500087640719,0.,            57P    202
-199.757352068664,104.500087640719,0.9,-199.757352068664,             57P    203
103.833245692428,0.9,-200.379389287314,103.833245692428,              57P    204
5.51091059616309D-017,-200.379389287314,103.833245692428,-0.9,        57P    205
-200.379389287314,104.500087640719,-0.9,-199.757352068664,            57P    206
104.500087640719,0.,-199.757352068664,114.832194539387,0.,            57P    207
-203.930685836064,114.832194539387,0.9,-203.930685836064,             57P    208
114.334472127208,0.9,-204.719603209083,114.334472127208,              57P    209
5.51091059616309D-017,-204.719603209083,114.334472127208,-0.9,        57P    210
-204.719603209083,114.832194539387,-0.9,-203.930685836064,            57P    211
114.832194539387,0.,-203.930685836064,135.431061463759,0.,            57P    212
-203.858966074858,135.431061463759,0.9,-203.858966074858,             57P    213
135.402271869647,0.9,-204.79132297029,135.402271869647,               57P    214
5.51091059616309D-017,-204.79132297029,135.402271869647,-0.9,         57P    215
-204.79132297029,135.431061463759,-0.9,-203.858966074858,             57P    216
135.431061463759,0.,-203.858966074858,145.730959632385,0.,            57P    217
-199.624049008381,145.730959632385,0.9,-199.624049008381,             57P    218
145.935707034281,0.9,-200.512692348648,145.935707034281,              57P    219
5.51091059616309D-017,-200.512692348648,145.935707034281,-0.9,        57P    220
-200.512692348648,145.730959632385,-0.9,-199.624049008381,            57P    221
145.730959632385,0.,-199.624049008381,166.428241164629,0.,            57P    222
-182.652616837681,166.428241164629,0.9,-182.652616837681,             57P    223
166.905092168705,0.9,-183.429933764941,166.905092168705,              57P    224
5.51091059616309D-017,-183.429933764941,166.905092168705,-0.9,        57P    225
-183.429933764941,166.428241164629,-0.9,-182.652616837681,            57P    226
166.428241164629,0.,-182.652616837681,176.809941314102,0.,            57P    227
-169.911966990009,176.809941314102,0.9,-169.911966990009,             57P    228
177.356725352565,0.9,-170.629940548514,177.356725352565,              57P    229
5.51091059616309D-017,-170.629940548514,177.356725352565,-0.9,        57P    230
-170.629940548514,176.809941314102,-0.9,-169.911966990009,            57P    231
176.809941314102,0.,-169.911966990009,207.984965158901,0.,            57P    232
-118.897095543291,207.984965158901,0.9,-118.897095543291,             57P    233
208.681701507766,0.9,-119.482239731244,208.681701507766,              57P    234
5.51091059616309D-017,-119.482239731244,208.681701507766,-0.9,        57P    235
-119.482239731244,207.984965158901,-0.9,-118.897095543291,            57P    236
207.984965158901,0.,-118.897095543291,228.805406739889,0.,            57P    237
-67.8392507454048,228.805406739889,0.9,-67.8392507454048,             57P    238
229.527926589491,0.9,-68.3775122696509,229.527926589491,              57P    239
5.51091059616309D-017,-68.3775122696518,229.527926589491,-0.9,        57P    240
-68.3775122696528,228.805406739889,-0.9,-67.8392507454048,            57P    241
228.805406739889,0.,-67.8392507454048,249.62700413688,0.,             57P    242
0.251742102349595,249.62700413688,0.9,0.251742102349595,              57P    243
250.37299586312,0.9,-0.251742102349595,250.37299586312,               57P    244
5.51091059616309D-017,-0.251742102349595,250.37299586312,-0.9,        57P    245
-0.251742102349595,249.62700413688,-0.9,0.251742102349595,            57P    246
249.62700413688,0.,0.251742102349595,0.,1.,0.,1.,0,0;                 57P    247
508,4,0,35,6,0,0,0,35,5,1,0,0,35,1,1,0,0,35,3,0,0,0,0;                59P    248
510,57,1,1,59,0,0;                                                    61P    249
514,4,41,1,49,0,55,0,61,0,0,0;                                        63P    250
186,63,1,0;0,0;                                                       65P    251
308,1,4H50cm,1,65,0,0;                                                67P    252
408,67,0.,0.,0.,1.,0,0;                                               69P    253
S      3G      3D     70P    253                                        T      1
