500 0 1 0
10 Techsoft3D 14 ACIS 5.0 SEVEN 25 Fri Apr 28 09:05:20 2017
 1 9.9999999999999995e-007 1e-010
-0 body $1 $2 $-1 $-1 #
-1 rgb_color-st-attrib $-1 $3 $-1 $0 0.86666667461395264 0.90980392694473267 1 #
-2 lump $-1 $-1 $4 $0 #
-3 string_attrib-name_attrib-gen-attrib $-1 $5 $1 $0 keep keep_kept ignore 17 ATTRIB_XACIS_NAME 7 Default #
-4 shell $-1 $-1 $-1 $6 $-1 $2 #
-5 string_attrib-name_attrib-gen-attrib $-1 $-1 $3 $0 keep keep_kept ignore 23 ATTRIB_XSTEP_PRODUCT_ID 7 Default #
-6 face $7 $8 $9 $4 $-1 $10 reversed single #
-7 rgb_color-st-attrib $-1 $-1 $-1 $6 0.86666667461395264 0.90980392694473267 1 #
-8 face $11 $12 $13 $4 $-1 $14 reversed single #
-9 loop $-1 $-1 $15 $6 #
-10 plane-surface $-1 0.32500000000000001 9.4000000000000004 0.32500000000000001 -1 0 0 0 0 1 forward_v F -0.65000000000000002 F 0 F -18.300000000000001 F -0.50000000000000044 #
-11 rgb_color-st-attrib $-1 $-1 $-1 $8 0.86666667461395264 0.90980392694473267 1 #
-12 face $16 $17 $18 $4 $-1 $19 reversed single #
-13 loop $-1 $-1 $20 $8 #
-14 plane-surface $-1 -0.32500000000000001 9.4000000000000004 -0.32500000000000001 0 0 1 1 0 -0 forward_v F 0 F 0.65000000000000002 F -18.300000000000001 F -0.50000000000000044 #
-15 coedge $-1 $21 $22 $23 $24 forward $9 $-1 #
-16 rgb_color-st-attrib $-1 $-1 $-1 $12 0.86666667461395264 0.90980392694473267 1 #
-17 face $25 $26 $27 $4 $-1 $28 reversed single #
-18 loop $-1 $-1 $29 $12 #
-19 plane-surface $-1 -0.32500000000000001 9.4000000000000004 0.32500000000000001 1 0 0 0 0 -1 forward_v F 0 F 0.65000000000000002 F -18.300000000000001 F -0.50000000000000044 #
-20 coedge $-1 $30 $31 $32 $33 forward $13 $-1 #
-21 coedge $-1 $34 $15 $31 $35 reversed $9 $-1 #
-22 coedge $-1 $15 $34 $36 $37 forward $9 $-1 #
-23 coedge $-1 $38 $39 $15 $24 reversed $40 $-1 #
-24 edge $-1 $41 0 $42 1 $15 $43 forward 7 unknown #
-25 rgb_color-st-attrib $-1 $-1 $-1 $17 0.86666667461395264 0.90980392694473267 1 #
-26 face $44 $45 $46 $4 $-1 $47 reversed single #
-27 loop $-1 $-1 $48 $17 #
-28 plane-surface $-1 -0.32500000000000001 9.4000000000000004 0.32500000000000001 0 0 -1 -1 0 0 forward_v F -0.65000000000000002 F 0 F -18.300000000000001 F -0.50000000000000044 #
-29 coedge $-1 $49 $50 $51 $52 forward $18 $-1 #
-30 coedge $-1 $53 $20 $50 $54 reversed $13 $-1 #
-31 coedge $-1 $20 $53 $21 $35 forward $13 $-1 #
-32 coedge $-1 $55 $56 $20 $33 reversed $57 $-1 #
-33 edge $-1 $42 0 $58 1 $20 $59 forward 7 unknown #
-34 coedge $-1 $22 $21 $60 $61 reversed $9 $-1 #
-35 edge $-1 $62 0.5 $42 18.300000000000001 $21 $63 forward 7 unknown #
-36 coedge $-1 $64 $48 $22 $37 reversed $27 $-1 #
-37 edge $-1 $65 0.5 $41 18.300000000000001 $22 $66 forward 7 unknown #
-38 coedge $-1 $67 $23 $68 $69 forward $40 $-1 #
-39 coedge $-1 $23 $67 $55 $70 reversed $40 $-1 #
-40 loop $-1 $-1 $39 $71 #
-41 vertex $-1 $24 $72 #
-42 vertex $-1 $24 $73 #
-43 intcurve-curve $-1 forward { exactcur full nubs 3 open 2
0 3 1 3
0.32500000000000001 -8.9000000000000004 0.32500000000000001
0.32500000000000001 -8.9000000000000004 0.10833333333333334
0.32500000000000001 -8.9000000000000004 -0.10833333333333334
0.32500000000000001 -8.9000000000000004 -0.32500000000000001
0.00050000000000000001
null_surface
null_surface
nullbs
nullbs
F 0 F 1
0
0
0
F 0 F 1 } F 0 F 1 #
-44 rgb_color-st-attrib $-1 $-1 $-1 $26 0.86666667461395264 0.90980392694473267 1 #
-45 face $74 $75 $76 $4 $-1 $77 reversed single #
-46 loop $-1 $-1 $78 $26 #
-47 plane-surface $-1 0 9.4000000000000004 0 0 -1 0 0 0 -1 forward_v F -0.20000000000039997 F 0.20000000000040002 F -0.2000000000004 F 0.20000000000040005 #
-48 coedge $-1 $36 $79 $80 $81 forward $27 $-1 #
-49 coedge $-1 $82 $29 $79 $83 reversed $18 $-1 #
-50 coedge $-1 $29 $82 $30 $54 forward $18 $-1 #
-51 coedge $-1 $84 $85 $29 $52 reversed $86 $-1 #
-52 edge $-1 $58 0 $87 1 $29 $88 forward 7 unknown #
-53 coedge $-1 $31 $30 $89 $90 reversed $13 $-1 #
-54 edge $-1 $91 0.5 $58 18.300000000000001 $30 $92 forward 7 unknown #
-55 coedge $-1 $93 $32 $39 $70 forward $57 $-1 #
-56 coedge $-1 $32 $93 $84 $94 reversed $57 $-1 #
-57 loop $-1 $-1 $56 $95 #
-58 vertex $-1 $33 $96 #
-59 intcurve-curve $-1 forward { exactcur full nubs 3 open 2
0 3 1 3
0.32500000000000001 -8.9000000000000004 -0.32500000000000001
0.10833333333333334 -8.9000000000000004 -0.32500000000000001
-0.10833333333333334 -8.9000000000000004 -0.32500000000000001
-0.32500000000000001 -8.9000000000000004 -0.32500000000000001
0.00050000000000000001
null_surface
null_surface
nullbs
nullbs
F 0 F 1
0
0
0
F 0 F 1 } F 0 F 1 #
-60 coedge $-1 $97 $98 $34 $61 forward $99 $-1 #
-61 edge $-1 $65 0 $62 1 $34 $100 forward 7 unknown #
-62 vertex $-1 $35 $101 #
-63 straight-curve $-1 0.32500000000000001 9.4000000000000004 -0.32500000000000001 0 -1 0 F 0.5 F 18.300000000000001 #
-64 coedge $-1 $79 $36 $102 $103 reversed $27 $-1 #
-65 vertex $-1 $61 $104 #
-66 straight-curve $-1 0.32500000000000001 9.4000000000000004 0.32500000000000001 0 -1 0 F 0.5 F 18.300000000000001 #
-67 coedge $-1 $39 $38 $105 $106 forward $40 $-1 #
-68 coedge $-1 $80 $107 $38 $69 reversed $108 $-1 #
-69 edge $-1 $41 1.9428902930940239e-016 $109 0.53033008588991015 $68 $110 forward 7 unknown #
-70 edge $-1 $42 2.2204460492503131e-016 $111 0.53033008588991015 $55 $112 forward 7 unknown #
-71 face $113 $-1 $40 $4 $-1 $114 reversed single #
-72 point $-1 0.32500000000000029 -8.9000000000000021 0.32499999999999968 #
-73 point $-1 0.32500000000000029 -8.8999999999999986 -0.32500000000000007 #
-74 rgb_color-st-attrib $-1 $-1 $-1 $45 0.86666667461395264 0.90980392694473267 1 #
-75 face $115 $116 $117 $4 $-1 $118 reversed single #
-76 loop $-1 $-1 $119 $45 #
-77 plane-surface $-1 -2.399999999999999 0.59999999999999931 0 0.97014250014533199 -0.24253562503633283 0 0.24253562503633283 0.97014250014533199 0 forward_v F 8.555444173156646 F 9.0708323763588581 F -0.32500000000000007 F 0.32500000000000007 #
-78 coedge $-1 $120 $121 $122 $123 forward $46 $-1 #
-79 coedge $-1 $48 $64 $49 $83 forward $27 $-1 #
-80 coedge $-1 $124 $68 $48 $81 reversed $108 $-1 #
-81 edge $-1 $87 0 $41 1 $48 $125 forward 7 unknown #
-82 coedge $-1 $50 $49 $126 $127 reversed $18 $-1 #
-83 edge $-1 $128 0.5 $87 18.300000000000001 $49 $129 forward 7 unknown #
-84 coedge $-1 $130 $51 $56 $94 forward $86 $-1 #
-85 coedge $-1 $51 $130 $124 $131 reversed $86 $-1 #
-86 loop $-1 $-1 $85 $132 #
-87 vertex $-1 $52 $133 #
-88 intcurve-curve $-1 forward { exactcur full nubs 3 open 2
0 3 1 3
-0.32500000000000001 -8.9000000000000004 -0.32500000000000001
-0.32500000000000001 -8.9000000000000004 -0.10833333333333334
-0.32500000000000001 -8.9000000000000004 0.10833333333333334
-0.32500000000000001 -8.9000000000000004 0.32500000000000001
0.00050000000000000001
null_surface
null_surface
nullbs
nullbs
F 0 F 1
0
0
0
F 0 F 1 } F 0 F 1 #
-89 coedge $-1 $134 $135 $53 $90 forward $117 $-1 #
-90 edge $-1 $62 0 $91 1 $53 $136 forward 7 unknown #
-91 vertex $-1 $54 $137 #
-92 straight-curve $-1 -0.32500000000000001 9.4000000000000004 -0.32500000000000001 0 -1 0 F 0.5 F 18.300000000000001 #
-93 coedge $-1 $56 $55 $138 $139 forward $57 $-1 #
-94 edge $-1 $58 2.2204460492503131e-016 $140 0.53033008588991015 $84 $141 forward 7 unknown #
-95 face $142 $143 $57 $4 $-1 $144 reversed single #
-96 point $-1 -0.32500000000000007 -8.8999999999999986 -0.32500000000000007 #
-97 coedge $-1 $122 $60 $135 $145 forward $99 $-1 #
-98 coedge $-1 $60 $122 $146 $147 reversed $99 $-1 #
-99 loop $-1 $-1 $97 $148 #
-100 intcurve-curve $-1 forward { exactcur full nubs 3 open 2
0 3 1 3
0.32500000000000001 8.9000000000000004 0.32500000000000001
0.32500000000000001 8.9000000000000004 0.10833333333333334
0.32500000000000001 8.9000000000000004 -0.10833333333333334
0.32500000000000001 8.9000000000000004 -0.32500000000000001
0.00050000000000000001
null_surface
null_surface
nullbs
nullbs
F 0 F 1
0
0
0
F 0 F 1 } F 0 F 1 #
-101 point $-1 0.32500000000000029 8.8999999999999986 -0.32500000000000007 #
-102 coedge $-1 $146 $149 $64 $103 forward $150 $-1 #
-103 edge $-1 $128 0 $65 1 $64 $151 forward 7 unknown #
-104 point $-1 0.32500000000000029 8.9000000000000021 0.32499999999999968 #
-105 coedge $-1 $152 $138 $67 $106 reversed $153 $-1 #
-106 edge $-1 $109 0 $111 0.40000000000000002 $105 $154 forward 7 unknown #
-107 coedge $-1 $68 $124 $152 $155 forward $108 $-1 #
-108 loop $-1 $-1 $68 $143 #
-109 vertex $-1 $106 $156 #
-110 straight-curve $-1 0.32500000000000001 -8.9000000000000004 0.32500000000000001 -0.23570226039551551 -0.94280904158206347 -0.23570226039551564 F 1.9428902930940239e-016 F 0.53033008588991015 #
-111 vertex $-1 $106 $157 #
-112 straight-curve $-1 0.32500000000000001 -8.9000000000000004 -0.32500000000000001 -0.23570226039551553 -0.94280904158206358 0.23570226039551559 F 2.2204460492503131e-016 F 0.53033008588991015 #
-113 rgb_color-st-attrib $-1 $-1 $-1 $71 0.86666667461395264 0.90980392694473267 1 #
-114 plane-surface $-1 2.3999999999999981 -0.59999999999999865 0 -0.97014250014533199 0.24253562503633264 0 0.24253562503633264 0.97014250014533199 0 forward_v F -9.0708323763588599 F -8.5554441731566477 F -0.32500000000000007 F 0.32500000000000007 #
-115 rgb_color-st-attrib $-1 $-1 $-1 $75 0.86666667461395264 0.90980392694473267 1 #
-116 face $158 $148 $150 $4 $-1 $159 reversed single #
-117 loop $-1 $-1 $134 $75 #
-118 plane-surface $-1 0 0.59999999999999865 -2.3999999999999977 0 -0.24253562503633269 0.97014250014533199 0 -0.97014250014533199 -0.24253562503633269 forward_v F -9.0708323763588599 F -8.555444173156646 F -0.32500000000000001 F 0.32500000000000001 #
-119 coedge $-1 $160 $126 $149 $161 forward $76 $-1 #
-120 coedge $-1 $162 $78 $163 $164 forward $46 $-1 #
-121 coedge $-1 $78 $162 $165 $166 forward $46 $-1 #
-122 coedge $-1 $98 $97 $78 $123 reversed $99 $-1 #
-123 edge $-1 $167 0 $168 0.40000000000000002 $78 $169 forward 7 unknown #
-124 coedge $-1 $107 $80 $85 $131 forward $108 $-1 #
-125 intcurve-curve $-1 forward { exactcur full nubs 3 open 2
0 3 1 3
-0.32500000000000001 -8.9000000000000004 0.32500000000000001
-0.10833333333333334 -8.9000000000000004 0.32500000000000001
0.10833333333333334 -8.9000000000000004 0.32500000000000001
0.32500000000000001 -8.9000000000000004 0.32500000000000001
0.00050000000000000001
null_surface
null_surface
nullbs
nullbs
F 0 F 1
0
0
0
F 0 F 1 } F 0 F 1 #
-126 coedge $-1 $119 $170 $82 $127 forward $76 $-1 #
-127 edge $-1 $91 0 $128 1 $82 $171 forward 7 unknown #
-128 vertex $-1 $83 $172 #
-129 straight-curve $-1 -0.32500000000000001 9.4000000000000004 0.32500000000000001 0 -1 0 F 0.5 F 18.300000000000001 #
-130 coedge $-1 $85 $84 $173 $174 forward $86 $-1 #
-131 edge $-1 $87 2.0816681711721685e-016 $175 0.53033008588991015 $85 $176 forward 7 unknown #
-132 face $177 $95 $86 $4 $-1 $178 reversed single #
-133 point $-1 -0.32500000000000029 -8.9000000000000021 0.32499999999999968 #
-134 coedge $-1 $163 $89 $170 $179 forward $117 $-1 #
-135 coedge $-1 $89 $163 $97 $145 reversed $117 $-1 #
-136 intcurve-curve $-1 forward { exactcur full nubs 3 open 2
0 3 1 3
0.32500000000000001 8.9000000000000004 -0.32500000000000001
0.10833333333333334 8.9000000000000004 -0.32500000000000001
-0.10833333333333334 8.9000000000000004 -0.32500000000000001
-0.32500000000000001 8.9000000000000004 -0.32500000000000001
0.00050000000000000001
null_surface
null_surface
nullbs
nullbs
F 0 F 1
0
0
0
F 0 F 1 } F 0 F 1 #
-137 point $-1 -0.32500000000000007 8.8999999999999986 -0.32500000000000007 #
-138 coedge $-1 $105 $173 $93 $139 reversed $153 $-1 #
-139 edge $-1 $111 -0.40000000000000002 $140 5.5511151231257827e-017 $138 $180 forward 7 unknown #
-140 vertex $-1 $174 $181 #
-141 straight-curve $-1 -0.32500000000000001 -8.9000000000000004 -0.32500000000000001 0.23570226039551573 -0.94280904158206358 0.23570226039551559 F 2.2204460492503131e-016 F 0.53033008588991015 #
-142 rgb_color-st-attrib $-1 $-1 $-1 $95 0.86666667461395264 0.90980392694473267 1 #
-143 face $182 $71 $108 $4 $-1 $183 reversed single #
-144 plane-surface $-1 0 -0.59999999999999865 -2.3999999999999977 0 0.24253562503633269 0.97014250014533199 0 0.97014250014533199 -0.24253562503633269 forward_v F -9.0708323763588599 F -8.555444173156646 F -0.32500000000000001 F 0.32500000000000001 #
-145 edge $-1 $62 2.2204460492503131e-016 $168 0.53033008588991015 $135 $184 forward 7 unknown #
-146 coedge $-1 $165 $102 $98 $147 forward $150 $-1 #
-147 edge $-1 $65 1.9428902930940239e-016 $167 0.53033008588991015 $146 $185 forward 7 unknown #
-148 face $186 $187 $99 $4 $-1 $188 reversed single #
-149 coedge $-1 $102 $165 $119 $161 reversed $150 $-1 #
-150 loop $-1 $-1 $146 $116 #
-151 intcurve-curve $-1 forward { exactcur full nubs 3 open 2
0 3 1 3
-0.32500000000000001 8.9000000000000004 0.32500000000000001
-0.10833333333333334 8.9000000000000004 0.32500000000000001
0.10833333333333334 8.9000000000000004 0.32500000000000001
0.32500000000000001 8.9000000000000004 0.32500000000000001
0.00050000000000000001
null_surface
null_surface
nullbs
nullbs
F 0 F 1
0
0
0
F 0 F 1 } F 0 F 1 #
-152 coedge $-1 $173 $105 $107 $155 reversed $153 $-1 #
-153 loop $-1 $-1 $105 $187 #
-154 straight-curve $-1 0.20000000000000007 -9.4000000000000004 0.19999999999999998 0 0 -1 F 0 F 0.40000000000000002 #
-155 edge $-1 $175 0 $109 0.40000000000000002 $152 $189 forward 7 unknown #
-156 point $-1 0.20000000000000034 -9.4000000000000021 0.19999999999999976 #
-157 point $-1 0.20000000000000034 -9.4000000000000021 -0.20000000000000001 #
-158 rgb_color-st-attrib $-1 $-1 $-1 $116 0.86666667461395264 0.90980392694473267 1 #
-159 plane-surface $-1 0 0.59999999999999898 2.3999999999999986 0 -0.2425356250363328 -0.97014250014533199 0 0.97014250014533199 -0.2425356250363328 forward_v F 8.5554441731566477 F 9.0708323763588563 F -0.32500000000000001 F 0.32500000000000001 #
-160 coedge $-1 $170 $119 $162 $190 reversed $76 $-1 #
-161 edge $-1 $128 2.0816681711721685e-016 $191 0.53033008588991015 $119 $192 forward 7 unknown #
-162 coedge $-1 $121 $120 $160 $190 forward $46 $-1 #
-163 coedge $-1 $135 $134 $120 $164 reversed $117 $-1 #
-164 edge $-1 $168 -0.40000000000000002 $193 5.5511151231257827e-017 $120 $194 forward 7 unknown #
-165 coedge $-1 $149 $146 $121 $166 reversed $150 $-1 #
-166 edge $-1 $191 0 $167 0.40000000000000002 $121 $195 forward 7 unknown #
-167 vertex $-1 $123 $196 #
-168 vertex $-1 $123 $197 #
-169 straight-curve $-1 0.20000000000000007 9.4000000000000004 0.19999999999999998 0 0 -1 F 0 F 0.40000000000000002 #
-170 coedge $-1 $126 $160 $134 $179 reversed $76 $-1 #
-171 intcurve-curve $-1 forward { exactcur full nubs 3 open 2
0 3 1 3
-0.32500000000000001 8.9000000000000004 -0.32500000000000001
-0.32500000000000001 8.9000000000000004 -0.10833333333333334
-0.32500000000000001 8.9000000000000004 0.10833333333333334
-0.32500000000000001 8.9000000000000004 0.32500000000000001
0.00050000000000000001
null_surface
null_surface
nullbs
nullbs
F 0 F 1
0
0
0
F 0 F 1 } F 0 F 1 #
-172 point $-1 -0.32500000000000029 8.9000000000000021 0.32499999999999968 #
-173 coedge $-1 $138 $152 $130 $174 reversed $153 $-1 #
-174 edge $-1 $140 -0.40000000000000008 $175 0 $173 $198 forward 7 unknown #
-175 vertex $-1 $155 $199 #
-176 straight-curve $-1 -0.32500000000000001 -8.9000000000000004 0.32500000000000001 0.2357022603955157 -0.94280904158206358 -0.23570226039551564 F 2.0816681711721685e-016 F 0.53033008588991015 #
-177 rgb_color-st-attrib $-1 $-1 $-1 $132 0.86666667461395264 0.90980392694473267 1 #
-178 plane-surface $-1 -2.399999999999999 -0.59999999999999931 0 0.97014250014533199 0.24253562503633283 0 0.24253562503633283 -0.97014250014533199 0 forward_v F 8.555444173156646 F 9.0708323763588581 F -0.32500000000000007 F 0.32500000000000007 #
-179 edge $-1 $91 2.2204460492503131e-016 $193 0.53033008588991015 $170 $200 forward 7 unknown #
-180 straight-curve $-1 -0.19999999999999996 -9.4000000000000004 -0.20000000000000004 -1 0 0 F -0.40000000000000002 F 5.5511151231257827e-017 #
-181 point $-1 -0.20000000000000007 -9.4000000000000021 -0.20000000000000001 #
-182 rgb_color-st-attrib $-1 $-1 $-1 $143 0.86666667461395264 0.90980392694473267 1 #
-183 plane-surface $-1 0 -0.59999999999999898 2.3999999999999986 0 0.2425356250363328 -0.97014250014533199 0 -0.97014250014533199 -0.2425356250363328 forward_v F 8.5554441731566477 F 9.0708323763588563 F -0.32500000000000001 F 0.32500000000000001 #
-184 straight-curve $-1 0.32500000000000001 8.9000000000000004 -0.32500000000000001 -0.23570226039551553 0.94280904158206358 0.23570226039551559 F 2.2204460492503131e-016 F 0.53033008588991015 #
-185 straight-curve $-1 0.32500000000000001 8.9000000000000004 0.32500000000000001 -0.23570226039551551 0.94280904158206347 -0.23570226039551564 F 1.9428902930940239e-016 F 0.53033008588991015 #
-186 rgb_color-st-attrib $-1 $-1 $-1 $148 0.86666667461395264 0.90980392694473267 1 #
-187 face $201 $132 $153 $4 $-1 $202 reversed single #
-188 plane-surface $-1 2.3999999999999981 0.59999999999999865 0 -0.97014250014533199 -0.24253562503633264 0 0.24253562503633264 -0.97014250014533199 0 forward_v F -9.0708323763588599 F -8.5554441731566477 F -0.32500000000000007 F 0.32500000000000007 #
-189 straight-curve $-1 -0.19999999999999996 -9.4000000000000004 0.19999999999999998 1 0 -0 F 0 F 0.40000000000000002 #
-190 edge $-1 $193 -0.40000000000000008 $191 0 $162 $203 forward 7 unknown #
-191 vertex $-1 $190 $204 #
-192 straight-curve $-1 -0.32500000000000001 8.9000000000000004 0.32500000000000001 0.2357022603955157 0.94280904158206358 -0.23570226039551564 F 2.0816681711721685e-016 F 0.53033008588991015 #
-193 vertex $-1 $164 $205 #
-194 straight-curve $-1 -0.19999999999999996 9.4000000000000004 -0.20000000000000004 -1 0 0 F -0.40000000000000002 F 5.5511151231257827e-017 #
-195 straight-curve $-1 -0.19999999999999996 9.4000000000000004 0.19999999999999998 1 0 -0 F 0 F 0.40000000000000002 #
-196 point $-1 0.20000000000000034 9.4000000000000021 0.19999999999999976 #
-197 point $-1 0.20000000000000034 9.4000000000000021 -0.20000000000000001 #
-198 straight-curve $-1 -0.19999999999999996 -9.4000000000000004 0.19999999999999998 0 0 1 F -0.40000000000000008 F 0 #
-199 point $-1 -0.20000000000000007 -9.4000000000000021 0.19999999999999976 #
-200 straight-curve $-1 -0.32500000000000001 8.9000000000000004 -0.32500000000000001 0.23570226039551573 0.94280904158206358 0.23570226039551559 F 2.2204460492503131e-016 F 0.53033008588991015 #
-201 rgb_color-st-attrib $-1 $-1 $-1 $187 0.86666667461395264 0.90980392694473267 1 #
-202 plane-surface $-1 0 -9.4000000000000004 0 0 1 0 0 0 -1 forward_v F -0.20000000000039997 F 0.20000000000040002 F -0.20000000000040005 F 0.2000000000004 #
-203 straight-curve $-1 -0.19999999999999996 9.4000000000000004 0.19999999999999998 0 0 1 F -0.40000000000000008 F 0 #
-204 point $-1 -0.20000000000000007 9.4000000000000021 0.19999999999999976 #
-205 point $-1 -0.20000000000000007 9.4000000000000021 -0.20000000000000001 #
End-of-ACIS-data
