500 0 1 0
10 Techsoft3D 14 ACIS 5.0 SEVEN 25 Fri Apr 28 09:05:35 2017
 1 9.9999999999999995e-007 1e-010
-0 body $1 $2 $-1 $-1 #
-1 rgb_color-st-attrib $-1 $3 $-1 $0 0.83921569585800171 0.46666666865348816 0.36862745881080627 #
-2 lump $-1 $-1 $4 $0 #
-3 string_attrib-name_attrib-gen-attrib $-1 $5 $1 $0 keep keep_kept ignore 17 ATTRIB_XACIS_NAME 4 50cm #
-4 shell $-1 $-1 $-1 $6 $-1 $2 #
-5 string_attrib-name_attrib-gen-attrib $-1 $-1 $3 $0 keep keep_kept ignore 23 ATTRIB_XSTEP_PRODUCT_ID 4 50cm #
-6 face $7 $8 $9 $4 $-1 $10 forward single #
-7 rgb_color-st-attrib $-1 $-1 $-1 $6 0.83921569585800171 0.46666666865348816 0.36862745881080627 #
-8 face $11 $12 $13 $4 $-1 $14 reversed single #
-9 loop $-1 $-1 $15 $6 #
-10 plane-surface $-1 0 0 0 0 0 1 1 0 0 forward_v F -0.45000000000000001 F 0.45000000000000001 F -0.45000000000000001 F 0.45000000000000001 #
-11 rgb_color-st-attrib $-1 $-1 $-1 $8 0.69411766529083252 0.098039217293262482 0.098039217293262482 #
-12 face $16 $-1 $17 $4 $-1 $18 reversed single #
-13 loop $-1 $-1 $19 $8 #
-14 spline-surface $-1 forward { exactsur full nurbs 3 3 both periodic open none none 3 7
0 3 0.5 3 1 3
0 3 0.25 2 0.375 2 0.5 2 0.625 2
0.75 2 1 3
0.45000000000000001 0 0 1
0.45000000000000001 0.8999999999999998 0 0.33333333333333337
-0.4499999999999999 0.90000000000000002 0 0.33333333333333337
-0.45000000000000001 5.5109105961630889e-017 0 1
-0.45000000000000007 -0.8999999999999998 0 0.33333333333333337
0.45000000000000001 -0.8999999999999998 0 0.33333333333333337
0.45000000000000001 0 0 1
21.283333333333445 0 -68.087402998996794 1
21.283333333333445 0.8999999999999998 -68.087402998996794 0.33333333333333337
20.383333333333454 0.90000000000000002 -68.129360016052331 0.33333333333333337
20.383333333333454 5.5109105961630889e-017 -68.129360016052331 1
20.383333333333454 -0.8999999999999998 -68.129360016052331 0.33333333333333337
21.283333333333445 -0.8999999999999998 -68.087402998996794 0.33333333333333337
21.283333333333445 0 -68.087402998996794 1
42.119094671181792 0 -119.14204709570406 1
42.119094671181792 0.8999999999999998 -119.14204709570404 0.33333333333333337
41.214238662220751 0.90000000000000002 -119.23728818018954 0.33333333333333337
41.214238662290015 5.5109105961630889e-017 -119.23728818018955 1
41.214238662359264 -0.8999999999999998 -119.23728818018954 0.33333333333333337
42.119094671181792 -0.8999999999999998 -119.14204709570404 0.33333333333333337
42.119094671181792 0 -119.14204709570406 1
73.344102619240743 0 -170.12633976462988 1
73.344102619240743 0.8999999999999998 -170.12633976462988 0.33333333333333337
72.489230714057925 0.90000000000000002 -170.41556777321415 0.33333333333333337
72.489230714023321 5.5109105961630889e-017 -170.41556777321415 1
72.48923071398869 -0.8999999999999998 -170.41556777321415 0.33333333333333337
73.344102619240743 -0.8999999999999998 -170.12633976462988 0.33333333333333337
73.344102619240743 0 -170.12633976462988 1
83.748385388075263 0 -182.85250583090397 1
83.748385388075263 0.8999999999999998 -182.85250583090397 0.33333333333333337
82.918281278778068 0.90000000000000002 -183.23004477277004 0.33333333333333337
82.918281278778068 5.5109105961630889e-017 -183.23004477277004 1
82.918281278778068 -0.8999999999999998 -183.23004477277004 0.33333333333333337
83.748385388075263 -0.8999999999999998 -182.85250583090397 0.33333333333333337
83.748385388075263 0 -182.85250583090397 1
104.50008764071873 0 -199.75735206866381 1
104.50008764071873 0.8999999999999998 -199.75735206866378 0.33333333333333337
103.83324569242787 0.90000000000000002 -200.37938928731353 0.33333333333333337
103.83324569242788 5.5109105961630889e-017 -200.37938928731353 1
103.83324569242787 -0.8999999999999998 -200.37938928731353 0.33333333333333337
104.50008764071873 -0.8999999999999998 -199.75735206866378 0.33333333333333337
104.50008764071873 0 -199.75735206866381 1
114.83219453938678 0 -203.93068583606399 1
114.83219453938676 0.8999999999999998 -203.93068583606399 0.33333333333333337
114.33447212720762 0.90000000000000002 -204.71960320908335 0.33333333333333337
114.33447212720763 5.5109105961630889e-017 -204.71960320908335 1
114.33447212720762 -0.8999999999999998 -204.71960320908335 0.33333333333333337
114.83219453938676 -0.8999999999999998 -203.93068583606399 0.33333333333333337
114.83219453938678 0 -203.93068583606399 1
135.43106146375854 0 -203.85896607485776 1
135.43106146375854 0.8999999999999998 -203.85896607485776 0.33333333333333337
135.40227186964711 0.90000000000000002 -204.79132297028957 0.33333333333333337
135.40227186964711 5.5109105961630889e-017 -204.79132297028957 1
135.40227186964711 -0.8999999999999998 -204.79132297028957 0.33333333333333337
135.43106146375854 -0.8999999999999998 -203.85896607485776 0.33333333333333337
135.43106146375854 0 -203.85896607485776 1
145.73095963238538 0 -199.62404900838104 1
145.73095963238538 0.8999999999999998 -199.62404900838104 0.33333333333333337
145.93570703428128 0.90000000000000002 -200.51269234864824 0.33333333333333337
145.93570703428128 5.5109105961630889e-017 -200.51269234864827 1
145.93570703428128 -0.8999999999999998 -200.51269234864824 0.33333333333333337
145.73095963238538 -0.8999999999999998 -199.62404900838104 0.33333333333333337
145.73095963238538 0 -199.62404900838104 1
166.42824116462876 0 -182.65261683768142 1
166.42824116462876 0.8999999999999998 -182.65261683768142 0.33333333333333337
166.90509216870458 0.90000000000000002 -183.42993376494061 0.33333333333333337
166.90509216870458 5.5109105961630889e-017 -183.42993376494061 1
166.90509216870458 -0.8999999999999998 -183.42993376494061 0.33333333333333337
166.42824116462876 -0.8999999999999998 -182.65261683768142 0.33333333333333337
166.42824116462876 0 -182.65261683768142 1
176.80994131410202 0 -169.9119669900092 1
176.80994131410202 0.8999999999999998 -169.9119669900092 0.33333333333333337
177.35672535256464 0.90000000000000002 -170.62994054851401 0.33333333333333337
177.35672535256464 5.5109105961630889e-017 -170.62994054851401 1
177.35672535256464 -0.8999999999999998 -170.62994054851401 0.33333333333333337
176.80994131410202 -0.8999999999999998 -169.9119669900092 0.33333333333333337
176.80994131410202 0 -169.9119669900092 1
207.98496515890065 0 -118.89709554329129 1
207.98496515890065 0.8999999999999998 -118.89709554329129 0.33333333333333337
208.68170150776604 0.90000000000000002 -119.48223973124395 0.33333333333333337
208.68170150776604 5.5109105961630889e-017 -119.48223973124395 1
208.68170150776604 -0.8999999999999998 -119.48223973124395 0.33333333333333337
207.98496515890065 -0.8999999999999998 -118.89709554329129 0.33333333333333337
207.98496515890065 0 -118.89709554329129 1
228.80540673988884 0 -67.839250745404811 1
228.80540673988884 0.8999999999999998 -67.839250745404811 0.33333333333333337
229.52792658949079 0.90000000000000002 -68.37751226965085 0.33333333333333337
229.52792658949079 5.5109105961630889e-017 -68.377512269651803 1
229.52792658949079 -0.8999999999999998 -68.377512269652783 0.33333333333333337
228.80540673988884 -0.8999999999999998 -67.839250745404811 0.33333333333333337
228.80540673988884 0 -67.839250745404811 1
249.62700413688006 0 0.25174210234959543 1
249.62700413688003 0.8999999999999998 0.25174210234959543 0.33333333333333337
250.37299586311994 0.90000000000000002 -0.25174210234959538 0.33333333333333337
250.37299586311994 5.5109105961630889e-017 -0.25174210234959543 1
250.37299586311994 -0.8999999999999998 -0.25174210234959549 0.33333333333333337
249.62700413688003 -0.8999999999999998 0.25174210234959543 0.33333333333333337
249.62700413688006 0 0.25174210234959543 1
0.00050000000000000001
1 0.5
0
0
0
5 0.25 0.375 0.5 0.625 0.75
0
F 0 F 1 F 0 F 1 } F 0 F 1 F 0 F 1 #
-15 tcoedge-coedge $-1 $15 $15 $20 $21 forward $9 $22 0 6.2831853071795862 #
-16 rgb_color-st-attrib $-1 $-1 $-1 $12 0.83921569585800171 0.46666666865348816 0.36862745881080627 #
-17 loop $-1 $-1 $23 $12 #
-18 plane-surface $-1 250 0 4.1607517125970782e-030 -0.55942689411021218 0 -0.82887969582213894 -0.82887969582213894 0 0.55942689411021218 forward_v F -0.45000000000003959 F 0.44999999999999363 F -0.45000000000000001 F 0.45000000000000001 #
-19 tcoedge-coedge $-1 $24 $20 $25 $26 reversed $13 $27 -1 -0 #
-20 tcoedge-coedge $-1 $19 $25 $15 $21 reversed $13 $28 -6.2831853071795862 -0 #
-21 tedge-edge $-1 $29 0 $29 6.2831853071795862 $15 $30 forward 7 unknown 9.9999999999999995e-007 #
-22 pcurve $-1 0 forward { exppc nurbs 2 periodic 5
0 2 1.5707963267948966 2 3.1415926535897931 2 4.7123889803846897 2 6.2831853071795862 2
0.45000000000000001 -5.5109105961630889e-017 1
0.45000000000000001 0.45000000000000001 0.70710678118654757
2.7554552980815445e-017 0.45000000000000001 1
-0.4499999999999999 0.45000000000000001 0.70710678118654757
-0.45000000000000001 5.5109105961630889e-017 1
-0.45000000000000007 -0.4499999999999999 0.70710678118654757
-8.2663658942446331e-017 -0.45000000000000001 1
0.44999999999999984 -0.45000000000000012 0.70710678118654757
0.45000000000000001 -5.5109105961630889e-017 1
0.00050000000000000001
plane 0 0 0 0 0 1 1 0 0 forward_v F -0.45000000000000001 F 0.45000000000000001 F -0.45000000000000001 F 0.45000000000000001
} 0 0 #
-23 tcoedge-coedge $-1 $23 $23 $24 $31 reversed $17 $32 -6.2831853071795862 -0 #
-24 tcoedge-coedge $-1 $25 $19 $23 $31 forward $13 $33 0 6.2831853071795862 #
-25 tcoedge-coedge $-1 $20 $24 $19 $26 forward $13 $34 0 1 #
-26 tedge-edge $-1 $35 0 $29 1 $19 $36 forward 7 unknown 9.9999999999999995e-007 #
-27 pcurve $-1 0 reversed { exppc nubs 1 open 2
0 1 1 1
0 1
0 0
0.00050000000000000001
spline forward { ref 0 } F 0 F 1 F 0 F 1
} 0 0 #
-28 pcurve $-1 0 reversed { exppc nubs 1 periodic 2
0 1 6.2831853071795862 1
0 0
0.99999999999999989 0
0.00050000000000000001
spline forward { ref 0 } F 0 F 1 F 0 F 1
} 0 0 #
-29 vertex $-1 $21 $37 #
-30 ellipse-curve $-1 0 0 0 0 0 1 0.45000000000000001 0 0 1 F 0 F 6.2831853071795862 #
-31 tedge-edge $-1 $35 0 $35 6.2831853071795862 $24 $38 forward 7 unknown 9.9999999999999995e-007 #
-32 pcurve $-1 0 reversed { exppc nurbs 2 periodic 5
0 2 1.5707963267948966 2 3.1415926535897931 2 4.7123889803846897 2 6.2831853071795862 2
0.44999999999999096 -5.5109105961630889e-017 1
0.44999999999999096 0.45000000000000001 0.70710678118654757
8.6234301872903661e-018 0.45000000000000001 1
-0.44999999999999085 0.45000000000000001 0.70710678118654757
-0.44999999999999096 5.5109105961630889e-017 1
-0.44999999999999096 -0.4499999999999999 0.70710678118654757
-2.58702905618711e-017 -0.45000000000000001 1
0.44999999999999085 -0.45000000000000012 0.70710678118654757
0.44999999999999096 -5.5109105961630889e-017 1
0.00050000000000000001
plane 250 0 4.1607517125970782e-030 -0.55942689411021218 0 -0.82887969582213894 -0.82887969582213894 0 0.55942689411021218 forward_v F -0.45000000000003959 F 0.44999999999999363 F -0.45000000000000001 F 0.45000000000000001
} 0 0 #
-33 pcurve $-1 0 forward { exppc nubs 1 periodic 2
0 1 6.2831853071795862 1
0 1
0.99999999999999467 1
0.00050000000000000001
spline forward { ref 0 } F 0 F 1 F 0 F 1
} 0 0 #
-34 pcurve $-1 0 forward { exppc nubs 1 open 2
0 1 1 1
0.99999999999999467 1
0.99999999999999989 0
0.00050000000000000001
spline forward { ref 0 } F 0 F 1 F 0 F 1
} 0 0 #
-35 vertex $-1 $26 $39 #
-36 intcurve-curve $-1 forward { exactcur full nubs 3 open 7
0 3 0.25 2 0.375 2 0.5 2 0.625 2
0.75 2 1 3
249.62700413688006 0 0.25174210234959543
228.80540673988884 0 -67.839250745404811
207.98496515890065 0 -118.89709554329129
176.80994131410202 0 -169.9119669900092
166.42824116462876 0 -182.65261683768142
145.73095963238538 0 -199.62404900838104
135.43106146375854 0 -203.85896607485776
114.83219453938678 0 -203.93068583606399
104.50008764071873 0 -199.75735206866381
83.748385388075263 0 -182.85250583090397
73.344102619240743 0 -170.12633976462988
42.119094671181792 0 -119.14204709570406
21.283333333333445 0 -68.087402998996794
0.45000000000000001 0 0
0.00050000000000000001
null_surface
null_surface
nullbs
nullbs
F 0 F 1
0
5 0.25 0.375 0.5 0.625 0.75
0
F 0 F 1 } F 0 F 1 #
-37 point $-1 0.44999999999999912 -8.3266726846886778e-017 3.5527136788005009e-015 #
-38 ellipse-curve $-1 250 0 4.1607517125970782e-030 -0.55942689411021218 0 -0.82887969582213894 -0.37299586311996252 0 0.25174210234959549 1 F 0 F 6.2831853071795862 #
-39 point $-1 249.62700413688003 -4.7739590058882749e-015 0.25174210234959543 #
End-of-ACIS-data
